<svg width="40" height="39" viewBox="0 0 40 39" fill="none" xmlns="http://www.w3.org/2000/svg">
<mask id="mask0_3_771" style="mask-type:luminance" maskUnits="userSpaceOnUse" x="0" y="-2" width="40" height="41">
<path d="M40 -1.875H0V38.125H40V-1.875Z" fill="white"/>
</mask>
<g mask="url(#mask0_3_771)">
<path d="M23.75 19.1406H14.7656V20.625H23.75V19.1406Z" fill="#FF008A"/>
<path d="M39.2968 35.9375H0.78125V37.4219H39.2968V35.9375Z" fill="#FF008A"/>
<path d="M16.0938 29.2188H8.75V31.25H16.0938V29.2188Z" fill="#FF008A"/>
<path d="M14.8047 5.11719H19.8047L19.1406 8.00781L11.9141 8.7109L14.8047 5.11719Z" fill="#FF008A"/>
<path d="M25.0787 0.82812C22.9068 1.28125 18.149 2.26562 14.5006 3.01562C10.8443 3.76562 7.79747 4.42188 7.72716 4.47656C7.64903 4.52344 6.86778 5.4375 5.98497 6.50781C4.48497 8.3047 4.3756 8.4609 4.3756 8.75C4.3756 8.9609 4.43028 9.1172 4.53185 9.2188C4.6881 9.375 4.78966 9.375 11.7193 9.375H18.7506V10.3359C18.7506 11.2812 18.7428 11.3047 18.5631 11.3906C18.235 11.5391 17.7897 11.9844 17.649 12.3047C17.4772 12.6797 17.4537 13.4844 17.6022 13.8516C17.6647 13.9922 17.7975 14.2109 17.9068 14.3359L18.11 14.5703L16.5084 15.9375C15.6334 16.6875 14.7897 17.4141 14.6412 17.5469L14.3756 17.7969V19.3672C14.3756 20.8359 14.3834 20.9453 14.5318 21.0938C14.6881 21.25 14.7897 21.25 19.3756 21.25C23.9615 21.25 24.0631 21.25 24.2193 21.0938C24.3678 20.9453 24.3756 20.8359 24.3756 19.3672V17.7969L24.11 17.5469C23.9615 17.4141 23.1178 16.6875 22.2428 15.9375L20.6412 14.5703L20.8443 14.3359C20.9537 14.2109 21.0865 13.9922 21.149 13.8516C21.2975 13.4844 21.274 12.6797 21.1022 12.3047C20.9615 11.9844 20.5162 11.5391 20.1881 11.3906C20.0084 11.3047 20.0006 11.2812 20.0006 10.3359V9.375H24.0631H28.1256V20.3125V31.25H27.0318C25.5709 31.25 25.6256 31.1953 25.6256 32.6562V33.75H24.3756H23.1256V28.5938C23.1256 23.5391 23.1256 23.4375 22.9693 23.2812C22.8131 23.125 22.7115 23.125 17.9693 23.125H13.1256V17.6562C13.1256 12.2891 13.1256 12.1875 12.9693 12.0312C12.8209 11.8828 12.7115 11.875 11.2506 11.875C9.78966 11.875 9.68028 11.8828 9.53185 12.0312C9.38341 12.1797 9.3756 12.2891 9.3756 15.4688V18.75H8.4381H7.5006V15.4688C7.5006 12.2891 7.49278 12.1797 7.34435 12.0312C7.19591 11.8828 7.08653 11.875 5.6256 11.875C4.16466 11.875 4.05528 11.8828 3.90685 12.0312C3.75841 12.1797 3.7506 12.2891 3.7506 15.4688V18.75H2.96935C1.73497 18.75 1.8756 17.7891 1.8756 26.4062V33.75H1.09434C-0.0619053 33.75 0.000594892 33.625 0.000594892 35.9375C0.000594892 37.7109 0.00840741 37.8203 0.156845 37.9688C0.313095 38.125 0.41466 38.125 20.0006 38.125C39.5865 38.125 39.6881 38.125 39.8443 37.9688C39.9928 37.8203 40.0006 37.7109 40.0006 35.9375C40.0006 34.1641 39.9928 34.0547 39.8443 33.9062C39.6959 33.7578 39.5865 33.75 37.6568 33.75H35.6256V32.6562C35.6256 31.2422 35.6334 31.25 34.5318 31.25H33.7506V20.25V9.2578L34.6334 9C35.11 8.8594 35.5318 8.75 35.5709 8.75C35.6022 8.75 35.6256 9.3828 35.6256 10.1562C35.6256 11.4609 35.6334 11.5703 35.7818 11.7188C35.9303 11.8672 36.0397 11.875 37.8131 11.875C39.5865 11.875 39.6959 11.8672 39.8443 11.7188C39.9928 11.5703 40.0006 11.4609 40.0006 8.1406C40.0006 5.51562 39.9772 4.6875 39.9068 4.59375C39.8209 4.49219 35.7662 1.67969 33.9068 0.44531L33.2428 0L31.1334 0.00781L29.024 0.01562L25.0787 0.82812ZM32.5006 2.8125V4.375H30.2662C29.0397 4.375 28.0475 4.34375 28.0631 4.3125C28.0787 4.27344 28.4693 3.57031 28.9381 2.75L29.7975 1.25H31.149H32.5006V2.8125ZM27.9147 1.8125C27.8287 1.95312 27.4693 2.58594 27.11 3.21875L26.4537 4.375L20.5475 4.36719C17.3053 4.35938 14.7193 4.33594 14.8053 4.32031C14.8912 4.29688 17.899 3.67188 21.485 2.92969C25.0709 2.1875 28.024 1.57031 28.0318 1.57031C28.0475 1.5625 27.9928 1.67969 27.9147 1.8125ZM35.899 3.38281C36.6334 3.89844 37.2428 4.32812 37.2584 4.34375C37.274 4.35938 36.5162 4.375 35.5631 4.375H33.8287V3.16406V1.94531L34.2037 2.20312C34.4068 2.34375 35.1725 2.875 35.899 3.38281ZM12.1412 6.61719C11.6803 7.17188 11.2818 7.61719 11.2506 7.61719C11.2193 7.61719 10.8209 7.17188 10.36 6.61719L9.52403 5.625H11.2506H12.9772L12.1412 6.61719ZM18.3912 6.61719C17.9303 7.17188 17.5318 7.61719 17.5006 7.61719C17.4693 7.61719 17.0709 7.17188 16.61 6.61719L15.774 5.625H17.5006H19.2272L18.3912 6.61719ZM24.6412 6.61719C24.1803 7.17188 23.7818 7.61719 23.7506 7.61719C23.7193 7.61719 23.3209 7.17188 22.86 6.61719L22.024 5.625H23.7506H25.4772L24.6412 6.61719ZM32.5006 6.875V8.125H30.0006H27.5006V6.875V5.625H30.0006H32.5006V6.875ZM38.7506 5.99219V6.36719L36.2506 7.11719L33.7506 7.86719V6.75V5.625H36.2506H38.7506V5.99219ZM9.01622 7.125L9.85216 8.125H8.1256H6.40685L7.24278 7.10938C7.71153 6.55469 8.10997 6.10938 8.13341 6.11719C8.16466 6.125 8.55528 6.57812 9.01622 7.125ZM15.2662 7.125L16.1022 8.125H14.3756H12.6568L13.4928 7.10938C13.9615 6.55469 14.36 6.10938 14.3834 6.11719C14.4147 6.125 14.8053 6.57812 15.2662 7.125ZM21.5162 7.125L22.3522 8.125H20.6256H18.9068L19.7428 7.10938C20.2115 6.55469 20.61 6.10938 20.6334 6.11719C20.6647 6.125 21.0553 6.57812 21.5162 7.125ZM26.2506 7.5V8.125H25.7037H25.149L25.6725 7.5C25.9615 7.15625 26.2115 6.875 26.2272 6.875C26.235 6.875 26.2506 7.15625 26.2506 7.5ZM38.7506 9.2188V10.625H37.8131H36.8756V9.4688V8.3203L37.6803 8.07812C38.1178 7.9375 38.5397 7.82812 38.6178 7.82031C38.7428 7.8125 38.7506 7.92969 38.7506 9.2188ZM31.2897 9.4375C30.5084 10.1172 29.5475 10.9219 29.4772 10.9688C29.399 11.0156 29.3756 10.8359 29.3756 10.2031V9.375H30.3678C30.9147 9.375 31.3287 9.4062 31.2897 9.4375ZM32.4693 14.2734C32.4459 14.2969 30.235 12.7656 29.8678 12.4688C29.8522 12.4531 30.4381 11.9453 31.1568 11.3281L32.4615 10.2109L32.485 12.2266C32.4928 13.3359 32.485 14.2578 32.4693 14.2734ZM19.7662 12.7344C19.8522 12.8203 19.9225 12.9922 19.9225 13.125C19.9225 13.2578 19.8522 13.4297 19.7662 13.5156C19.6803 13.6016 19.5084 13.6719 19.3756 13.6719C19.2428 13.6719 19.0709 13.6016 18.985 13.5156C18.899 13.4297 18.8287 13.2578 18.8287 13.125C18.8287 12.9922 18.899 12.8203 18.985 12.7344C19.0709 12.6484 19.2428 12.5781 19.3756 12.5781C19.5084 12.5781 19.6803 12.6484 19.7662 12.7344ZM6.2506 15.9375V18.75H5.6256H5.0006V15.9375V13.125H5.6256H6.2506V15.9375ZM11.8756 17.2031V21.2891L11.2506 20.1953L10.6256 19.1016V16.1094V13.125H11.2506H11.8756V17.2031ZM31.8756 15.625C31.8756 15.6562 31.3287 16.0781 30.6647 16.5547L29.4537 17.4141V15.625V13.8359L30.6647 14.6953C31.3287 15.1719 31.8756 15.5938 31.8756 15.625ZM20.7115 16.4141L21.9381 17.4609L20.6568 17.4844C19.9537 17.4922 18.7975 17.4922 18.0943 17.4844L16.8131 17.4609L18.0709 16.3828C18.7662 15.7969 19.36 15.3203 19.4068 15.3359C19.4459 15.3516 20.0318 15.8359 20.7115 16.4141ZM32.5006 18.75C32.5006 19.7344 32.485 20.5469 32.4615 20.5469C32.36 20.5469 30.0006 18.7969 30.0162 18.7344C30.0475 18.6484 32.3443 16.9688 32.4459 16.9609C32.4772 16.9531 32.5006 17.7578 32.5006 18.75ZM23.1256 19.375V20H19.3756H15.6256V19.375V18.75H19.3756H23.1256V19.375ZM10.7428 22.0469C11.3912 23.1797 11.9772 24.1641 12.0553 24.2344C12.1803 24.3672 12.5084 24.375 17.0318 24.375H21.8756V29.0625V33.75H19.3756H16.8756V31.4062C16.8756 29.1641 16.8678 29.0547 16.7193 28.9062C16.5709 28.7578 16.4615 28.75 12.5006 28.75C8.53966 28.75 8.43028 28.7578 8.28185 28.9062C8.13341 29.0547 8.1256 29.1641 8.1256 31.4062V33.75H5.6256H3.1256V26.875V20H6.35216H9.57872L10.7428 22.0469ZM31.8756 21.875C31.8756 21.9062 31.3287 22.3281 30.6647 22.8047L29.4537 23.6641V21.875V20.0859L30.6647 20.9453C31.3287 21.4219 31.8756 21.8438 31.8756 21.875ZM32.5006 25C32.5006 25.9844 32.485 26.7969 32.4615 26.7969C32.36 26.7969 30.0006 25.0469 30.0162 24.9844C30.0475 24.8984 32.3443 23.2188 32.4459 23.2109C32.4772 23.2031 32.5006 24.0078 32.5006 25ZM32.0084 28.1562C32.0397 28.1797 29.5475 30.3125 29.4928 30.3125C29.4693 30.3125 29.4537 29.4141 29.4537 28.3203V26.3281L30.7272 27.2344C31.4225 27.7344 32.0006 28.1484 32.0084 28.1562ZM32.4772 31.2266C32.4615 31.2422 32.024 31.2422 31.5006 31.2344L30.5631 31.2109L31.5162 30.3984L32.4615 29.5859L32.485 30.3906C32.4928 30.8281 32.4928 31.2031 32.4772 31.2266ZM15.6256 31.875V33.75H12.5006H9.3756V31.875V30H12.5006H15.6256V31.875ZM34.3756 33.125V33.75H30.6256H26.8756V33.125V32.5H30.6256H34.3756V33.125ZM38.7506 35.9375V36.875H20.0006H1.25059V35.9375V35H20.0006H38.7506V35.9375Z" fill="#393F4D"/>
<path d="M5.15625 22.6562C5.05469 22.7578 5 22.9141 5 23.125C5 23.3359 5.05469 23.4922 5.15625 23.5938C5.30469 23.7422 5.41406 23.75 6.875 23.75C8.33594 23.75 8.44531 23.7422 8.59375 23.5938C8.69531 23.4922 8.75 23.3359 8.75 23.125C8.75 22.9141 8.69531 22.7578 8.59375 22.6562C8.44531 22.5078 8.33594 22.5 6.875 22.5C5.41406 22.5 5.30469 22.5078 5.15625 22.6562Z" fill="#393F4D"/>
<path d="M5.15625 25.7812C5.05469 25.8828 5 26.0391 5 26.25C5 26.4609 5.05469 26.6172 5.15625 26.7188C5.30469 26.8672 5.41406 26.875 8.125 26.875C10.8359 26.875 10.9453 26.8672 11.0938 26.7188C11.1953 26.6172 11.25 26.4609 11.25 26.25C11.25 26.0391 11.1953 25.8828 11.0938 25.7812C10.9453 25.6328 10.8359 25.625 8.125 25.625C5.41406 25.625 5.30469 25.6328 5.15625 25.7812Z" fill="#393F4D"/>
<path d="M13.9062 25.7812C13.8047 25.8828 13.75 26.0391 13.75 26.25C13.75 26.4609 13.8047 26.6172 13.9062 26.7188C14.0547 26.8672 14.1641 26.875 16.875 26.875C19.5859 26.875 19.6953 26.8672 19.8438 26.7188C19.9453 26.6172 20 26.4609 20 26.25C20 26.0391 19.9453 25.8828 19.8438 25.7812C19.6953 25.6328 19.5859 25.625 16.875 25.625C14.1641 25.625 14.0547 25.6328 13.9062 25.7812Z" fill="#393F4D"/>
</g>
</svg>
