<svg width="39" height="39" viewBox="0 0 39 39" fill="none" xmlns="http://www.w3.org/2000/svg">
<mask id="mask0_3_935" style="mask-type:luminance" maskUnits="userSpaceOnUse" x="-1" y="-1" width="41" height="41">
<path d="M39.4799 -0.587814H-0.656529V39.5486H39.4799V-0.587814Z" fill="white"/>
</mask>
<g mask="url(#mask0_3_935)">
<path d="M9.11938 32.8593C9.11938 32.0067 9.81056 31.3156 10.6631 31.3156H17.867C18.7196 31.3156 19.4108 32.0067 19.4108 32.8593H9.11938Z" fill="#FF008A"/>
<path d="M2.43014 2.49972C2.43014 1.64715 3.12128 0.956008 3.97384 0.956008H9.11953C9.9721 0.956008 10.6633 1.64715 10.6633 2.49972H2.43014Z" fill="#FF008A"/>
<path d="M20.1825 13.5629H23.5272L24.2991 15.1066L23.5272 17.6795L20.1825 18.7086L17.8669 19.7378L18.8961 15.8785L20.1825 13.5629Z" fill="#FF008A" stroke="#393F4D" stroke-width="0.833333"/>
<path d="M27.3886 17.9367L25.3302 23.8542H33.0488V23.3397L30.7333 17.9367H27.3886Z" fill="#FF008A"/>
<path d="M18.9714 0.0393774C18.7598 0.0707323 18.4227 0.172642 18.2267 0.25887C18.0386 0.345105 16.1807 1.72479 14.0954 3.32398C12.0103 4.92317 10.2935 6.2323 10.2778 6.2323C10.2543 6.2323 10.2386 5.81683 10.2386 5.29945V4.36658L10.5914 4.31955C10.8344 4.28036 10.9911 4.20197 11.1009 4.06086C11.2499 3.87272 11.2577 3.74729 11.2577 2.23434C11.2577 0.705706 11.2499 0.595958 11.0931 0.399975L10.9363 0.19616H6.74235C2.65816 0.19616 2.55625 0.19616 2.39947 0.35294C2.25053 0.501888 2.24268 0.611636 2.24268 2.2265C2.24268 4.27251 2.23485 4.25684 3.01092 4.32739L3.49695 4.37443V7.91774V11.461L2.22701 12.4252C0.659177 13.6089 0.478881 13.7736 0.220185 14.2674C-0.0541831 14.7927 -0.0777006 15.6707 0.180993 16.1488C0.557272 16.8544 1.29415 17.3012 2.09374 17.3012H2.55625V27.986V38.6786L2.76007 38.8353L2.97173 39L19.4497 38.9843C35.5356 38.9608 35.9354 38.9608 36.1 38.8118L36.2646 38.6628V27.9781V17.3012H36.7271C37.5267 17.3012 38.2636 16.8544 38.6399 16.1488C38.875 15.7098 38.875 14.7221 38.6399 14.2674C38.3968 13.8128 38.1695 13.6168 34.9868 11.171C32.2274 9.05444 32.102 8.94465 32.2431 8.81922C32.3215 8.74865 33.3563 7.82367 34.5399 6.76536C35.7237 5.70708 36.7898 4.70367 36.9074 4.53121C37.464 3.69242 37.5188 2.51654 37.0563 1.57585C36.3822 0.203998 34.5399 -0.407453 33.176 0.290227C32.6194 0.572436 32.4626 0.737062 30.1736 3.30046C28.7703 4.88397 27.8923 5.80899 27.8375 5.76979C26.6459 4.81342 20.7823 0.376462 20.5863 0.274548C20.3354 0.149124 20.1316 0.0942506 19.528 0.00801911C19.4418 -0.00765919 19.1909 0.0080191 18.9714 0.0393774ZM19.8416 1.37203C20.0689 1.45826 26.936 6.75753 26.936 6.8516C26.936 6.88295 26.7165 7.14164 26.4499 7.43953L25.9561 7.97259L22.8204 5.53462C20.0689 3.40237 19.6534 3.10448 19.4104 3.10448C19.1674 3.10448 18.2032 3.81784 10.7874 9.56392C3.23826 15.412 2.41515 16.0312 2.15646 16.0312C1.82721 16.0312 1.48229 15.7961 1.37254 15.4982C1.20008 15.0513 1.37254 14.8554 2.97173 13.6168C3.80268 12.974 7.6125 10.0186 11.4537 7.04757C15.2949 4.07654 18.5873 1.56801 18.7754 1.47394C19.1517 1.27796 19.5124 1.2466 19.8416 1.37203ZM34.9947 1.41906C35.5826 1.66208 36.0216 2.28921 36.0294 2.87715C36.0294 3.53563 35.9119 3.68458 33.5365 5.81683C32.3059 6.92999 31.0437 8.05102 30.7458 8.30188C29.8678 9.03872 28.3471 10.4028 28.2843 10.5046C28.2216 10.6223 24.4902 13.9931 24.4275 13.9931C24.404 13.9931 24.3021 13.8676 24.2001 13.7108C24.0904 13.5619 23.8552 13.3267 23.6671 13.1935L23.33 12.9427L23.5103 12.7467C23.6201 12.6369 25.7523 10.2303 28.2686 7.40817C33.4974 1.52881 33.4817 1.54449 33.7952 1.40339C34.1088 1.26228 34.6419 1.27012 34.9947 1.41906ZM9.92502 2.23434V3.01825H6.711H3.49695V2.23434V1.45042H6.711H9.92502V2.23434ZM8.90597 5.82466V7.30627L6.96969 8.79572C5.89573 9.61099 4.97855 10.3087 4.93152 10.3401C4.85312 10.387 4.8296 9.76778 4.8296 7.37682V4.3509H6.86778H8.90597V5.82466ZM22.2795 6.74968C24.0904 8.16073 25.0468 8.95251 25.0233 9.02308C24.9998 9.08579 24.3099 9.88534 23.4868 10.8025L21.9895 12.4801L21.3153 12.5272C20.0611 12.6055 19.1047 13.2562 18.5481 14.4242C18.2816 14.9886 17.9288 16.0156 17.6858 16.9484L17.5996 17.2855H13.0293C7.74578 17.2855 7.98091 17.2541 7.25974 17.9832C6.56206 18.6809 6.55421 18.7279 6.55421 22.1536V25.0463H5.91141C5.36266 25.0463 5.24508 25.0698 5.0883 25.2187L4.90799 25.3834V29.4911C4.90799 33.489 4.91584 33.5988 5.06478 33.7477C5.20588 33.8889 5.32347 33.9045 6.31904 33.9045H7.41652V34.9941C7.41652 36.1229 7.49491 36.5228 7.73006 36.6482C7.94956 36.7658 11.1088 36.7423 11.2656 36.6247C11.5242 36.4287 11.5713 36.1935 11.5713 35.049V33.9045H13.8446H16.118V35.1588C16.118 36.8442 15.9691 36.7266 18.0856 36.7266C18.9793 36.7266 19.771 36.7031 19.8416 36.6796C20.1238 36.5698 20.1943 36.2249 20.1943 35.0412V33.9045H21.2761C22.2874 33.9045 22.3736 33.8889 22.5147 33.7398C22.6558 33.5831 22.6637 33.3949 22.6637 29.4597V25.3441L22.4755 25.1952C22.3345 25.0777 22.1698 25.0463 21.676 25.0463H21.0566V22.1615V19.2845L21.8641 19.065C22.3109 18.9474 22.8518 18.7593 23.0792 18.6573C23.5887 18.4222 24.1923 17.8264 24.4667 17.2855C24.7018 16.8309 24.9292 15.851 24.8665 15.6001C24.8273 15.459 25.1722 15.1219 26.8654 13.6168L28.9036 11.7981L29.5856 12.3233C29.9697 12.6212 31.3416 13.6795 32.6429 14.6908L35.0103 16.5251V27.1001V37.6673H19.4104H3.81051V27.1001V16.5329L11.5556 10.5673C15.8123 7.28275 19.3399 4.59392 19.3947 4.59392C19.4496 4.58608 20.7509 5.55813 22.2795 6.74968ZM34.1323 12.2371C35.8021 13.5148 37.2288 14.6359 37.2993 14.73C37.5973 15.1063 37.5188 15.5922 37.119 15.8588C36.9388 15.9842 36.7898 16.0312 36.6331 15.9999C36.4763 15.9685 30.542 11.5237 29.9541 10.9985C29.8835 10.9358 30.8869 9.93242 31.0359 9.9167C31.0751 9.9167 32.4626 10.9593 34.1323 12.2371ZM22.3893 14.0323C23.087 14.3851 23.4789 14.973 23.4868 15.6707C23.4868 16.6349 22.9616 17.3796 22.0522 17.7089C21.284 17.9753 18.6892 18.7828 18.6579 18.7593C18.6108 18.7123 19.0811 16.7524 19.3006 16.0705C19.4104 15.7255 19.5907 15.263 19.6926 15.0357C20.1865 14.0009 21.4173 13.5384 22.3893 14.0323ZM17.333 18.7123C17.1763 19.4491 17.137 19.8725 17.2233 20.0527C17.3801 20.3977 17.8505 20.5231 18.1797 20.3036C18.2737 20.2409 18.6971 20.0684 19.1204 19.9195L19.8808 19.6372V22.3418V25.0463H19.2144C18.603 25.0463 18.5246 25.0619 18.3522 25.2422C18.1797 25.4147 18.1562 25.4931 18.1562 26.0653V26.6925H13.7662H9.37632V26.0261C9.37632 25.1246 9.29789 25.0463 8.43563 25.0463H7.80849V22.3104C7.80849 19.4648 7.82413 19.2923 8.14556 18.9395C8.51398 18.5476 8.49048 18.5476 13.0843 18.5398H17.3723L17.333 18.7123ZM8.12206 28.2917C8.12206 30.1809 8.12992 30.2906 8.2867 30.4866L8.44349 30.6905H13.7741C18.9949 30.6905 19.0969 30.6905 19.2537 30.5337C19.4026 30.3847 19.4104 30.275 19.4104 28.3387V26.3006H20.4295H21.4486V29.4753V32.6502H13.8055H6.16226V29.4753V26.3006H7.14215H8.12206V28.2917ZM18.1562 28.6914V29.4362H13.7662H9.37632V28.6914V27.9467H13.7662H18.1562V28.6914ZM10.2386 34.6884V35.4723H9.49389H8.74919V34.6884V33.9045H9.49389H10.2386V34.6884ZM18.8616 34.6884V35.4723H18.0777H17.2938V34.6884V33.9045H18.0777H18.8616V34.6884Z" fill="#393F4D"/>
<path d="M14.1516 9.52481C14.081 9.56395 13.8145 9.97158 13.5636 10.4184L13.109 11.2416L12.3878 11.6413C11.3765 12.1979 11.2982 12.2685 11.2982 12.6448C11.2982 12.8173 11.3452 13.0132 11.4079 13.0759C11.4627 13.1465 11.8704 13.4052 12.3094 13.656L13.109 14.1029L13.5558 14.9024C13.8067 15.3414 14.0653 15.7491 14.1359 15.8039C14.2927 15.9372 14.8101 15.9372 14.9669 15.8118C15.0296 15.7569 15.2882 15.3493 15.5391 14.9024L15.9859 14.095L16.7856 13.6482C17.6478 13.1778 17.7184 13.1151 17.789 12.825C17.8908 12.4174 17.6792 12.1744 16.8091 11.7041L15.9938 11.2494L15.5313 10.4342C15.2491 9.92459 15.006 9.58753 14.8885 9.53259C14.6611 9.43074 14.324 9.42288 14.1516 9.52481ZM14.7788 11.9393C14.912 12.2215 15.0374 12.3625 15.304 12.4958C15.4921 12.5978 15.6489 12.7075 15.6489 12.731C15.6489 12.7623 15.5 12.8564 15.3118 12.9505C15.0687 13.0681 14.9198 13.217 14.7788 13.4757C14.6768 13.6717 14.5749 13.8363 14.5514 13.8363C14.5279 13.8363 14.426 13.6795 14.3162 13.4835C14.183 13.2405 14.0105 13.0759 13.744 12.927L13.3598 12.7232L13.7518 12.488C13.9948 12.3312 14.1986 12.1274 14.324 11.9079C14.426 11.7198 14.5279 11.563 14.5593 11.563C14.5828 11.563 14.6847 11.7354 14.7788 11.9393Z" fill="#393F4D"/>
<path d="M26.8824 17.3795C26.6472 17.646 24.1152 23.9566 24.1152 24.2858C24.1152 24.4583 24.17 24.6072 24.2798 24.7013C24.4287 24.8346 24.6012 24.8502 25.7692 24.8737L27.0941 24.8973V29.0755V33.2538L26.5375 33.3008C25.9181 33.3557 25.6751 33.4811 25.4479 33.8495C25.3146 34.0612 25.291 34.2493 25.291 35.0646C25.291 36.1464 25.3538 36.3581 25.7771 36.6638L26.0358 36.8441H29.0147C32.3306 36.8441 32.2523 36.8598 32.5893 36.3111C32.7304 36.0837 32.7382 35.9426 32.7226 34.9862L32.699 33.9044L32.456 33.6614C32.1973 33.4105 31.8133 33.2851 31.2723 33.2773H30.9352V29.0833V24.8894H31.288H31.6329L31.6565 27.5626L31.68 30.2357L31.8759 30.3925C32.0249 30.5101 32.1425 30.5415 32.3777 30.5101C32.9499 30.4317 32.9342 30.5257 32.9577 27.5626L32.9812 24.9129L33.3105 24.8659C33.6711 24.8188 33.9141 24.5915 33.9141 24.3093C33.9141 24.0428 31.2488 17.4971 31.0763 17.3403C30.9352 17.2227 30.7158 17.207 28.9833 17.207C27.0706 17.207 27.0392 17.207 26.8824 17.3795ZM31.3037 20.9855L32.3306 23.5176L30.6452 23.5411C29.7201 23.5489 28.2307 23.5489 27.337 23.5411L25.7065 23.5176L26.7648 20.9855L27.8231 18.4613H29.0538H30.2768L31.3037 20.9855ZM29.681 29.0833V33.2773H29.0538H28.4267V29.0833V24.8894H29.0538H29.681V29.0833ZM31.484 35.0803V35.5507H29.0147H26.5453V35.0803V34.61H29.0147H31.484V35.0803Z" fill="#393F4D"/>
<path d="M13.1169 19.896C13.0149 19.9901 12.7876 20.3506 12.5994 20.7034C12.2624 21.3306 12.2624 21.3306 11.5647 21.7068C10.8121 22.1066 10.6318 22.2869 10.6318 22.6397C10.6318 23.0081 10.7573 23.1335 11.5255 23.5569L12.2702 23.9566L12.67 24.6936C13.0855 25.4775 13.2109 25.5951 13.6107 25.5951C13.9321 25.5951 14.1203 25.3912 14.5436 24.5995L14.8885 23.9488L15.6175 23.5569C16.378 23.1414 16.5112 23.0081 16.5112 22.6397C16.5112 22.2869 16.3231 22.1066 15.5783 21.699L14.8807 21.3306L14.5201 20.6407C14.3162 20.2644 14.0732 19.896 13.9791 19.8333C13.7283 19.6608 13.3207 19.6843 13.1169 19.896ZM14.3241 22.475L14.6376 22.6475L14.379 22.7808C14.0811 22.9297 13.9164 23.1022 13.744 23.4314L13.6264 23.6666L13.4618 23.3452C13.3677 23.1492 13.1717 22.9454 12.9836 22.8278L12.67 22.6397L12.968 22.5064C13.1952 22.4045 13.3206 22.2713 13.4461 22.0125L13.6186 21.652L13.8146 21.9733C13.9243 22.1537 14.1438 22.3732 14.3241 22.475Z" fill="#393F4D"/>
</g>
</svg>
