<svg width="40" height="40" viewBox="0 0 40 40" fill="none" xmlns="http://www.w3.org/2000/svg">
<mask id="mask0_3_975" style="mask-type:luminance" maskUnits="userSpaceOnUse" x="0" y="0" width="40" height="40">
<path d="M40 0H0V40H40V0Z" fill="white"/>
</mask>
<g mask="url(#mask0_3_975)">
<path d="M30.4765 22.381L24.7622 26.6666V27.1429H30.9527L32.3813 25.7143L34.7622 26.6666V22.381H30.4765Z" fill="#FF008A"/>
<path d="M20.0016 26.6667C20.0016 29.0337 15.2257 29.9999 12.8587 29.9999C10.4917 29.9999 7.62061 29.0336 7.62061 26.6667C7.62061 24.2997 10.4917 26.6665 12.8587 26.6665C15.2257 26.6665 20.0016 24.2997 20.0016 26.6667Z" fill="#FF008A"/>
<path d="M8.57126 17.1429C9.62323 17.1429 10.476 16.2901 10.476 15.2381C10.476 14.1862 9.62323 13.3334 8.57126 13.3334C7.51929 13.3334 6.6665 14.1862 6.6665 15.2381C6.6665 16.2901 7.51929 17.1429 8.57126 17.1429Z" fill="#FF008A"/>
<path d="M32.1704 20L29.5249 14.2856H34.2868L32.1704 20Z" fill="#FF008A"/>
<path d="M11.5234 0.0546323C9.9375 0.249945 8.25782 0.671822 7.38282 1.0937C6.22657 1.6562 5.34375 2.5312 4.75782 3.71088C4.32812 4.57807 4.21875 5.03901 4.16407 6.19526C4.11719 7.17182 4.10938 7.20307 3.88282 7.44526C2.92969 8.4609 2.10938 9.67965 1.44532 11.0468C0.875 12.2109 0.570312 13.0859 0.257812 14.4687L0.0390625 15.4296L0.015625 27.4843L0 39.539L0.226562 39.7734C0.554688 40.0937 1.0625 40.0937 1.42187 39.7734L1.67968 39.5468L1.71875 27.6406L1.75782 15.7421L1.97657 14.7656C2.33594 13.1875 2.96094 11.6875 3.78125 10.4296L4.14062 9.88273V10.8827C4.14062 12.2343 4.28125 12.5 5 12.5C5.40625 12.5 5.59375 12.3984 5.74219 12.1093C5.84375 11.9218 5.85938 11.4062 5.85938 8.92965C5.85938 5.64057 5.89844 5.27338 6.34375 4.42963C6.67968 3.7812 7.47657 2.99995 8.125 2.67963C8.67183 2.4062 9.70317 2.10932 10.8203 1.91401C11.8984 1.7187 14.0625 1.67182 15.2032 1.82807C16.3359 1.97651 17.8047 2.33588 18.4062 2.60932C19.3984 3.06245 20.1641 3.9062 20.5703 4.97651L20.7422 5.42963L20.7657 13.7109C20.7891 22.3671 20.7812 22.5859 20.4532 23.6718C20.3282 24.0625 20.0078 24.8437 19.875 25.0625C19.8672 25.0781 19.4062 24.8671 18.8516 24.5859C15.3438 22.8593 11.25 22.8671 7.74219 24.625C7.25 24.875 6.82032 25.0546 6.78907 25.039C6.69532 24.9765 6.25 23.8437 6.07812 23.2187C5.9375 22.6875 5.91407 22.3437 5.88282 20.3906C5.85157 18.0937 5.8125 17.8202 5.51562 17.6171C5.32812 17.4843 4.75 17.4609 4.52344 17.5781C4.17188 17.7656 4.14062 17.9921 4.14062 20.1718C4.14062 23.1327 4.375 24.2734 5.3125 25.9765C6.82812 28.7031 9.52342 30.3906 12.8203 30.664C14.4297 30.7968 16.5625 30.2734 18.0468 29.3671C20.2188 28.0468 21.6094 26.1718 22.2891 23.6406C22.4532 23.0234 22.4532 22.8437 22.5 16.4452L22.5391 9.88273L22.9141 10.4687C23.4219 11.25 23.9922 12.4531 24.2969 13.3593C24.8672 15.0781 25 16.375 25 20.2968V22.8984L25.1875 23.0859C25.5859 23.4843 26.2344 23.4296 26.5391 22.9765C26.7188 22.7109 26.7188 22.7031 26.7188 19.8046C26.7188 18.2031 26.6797 16.5312 26.6407 16.0859C26.3282 12.9218 25.1407 10.1562 23.0625 7.77338L22.5234 7.14057L22.4844 6.0937C22.4453 5.17963 22.4062 4.95307 22.2109 4.39838C21.7812 3.20307 21.0703 2.26557 20.0547 1.55464C18.6328 0.562444 16.1094 -0.0078652 13.2188 0.00775916C12.4141 0.0155698 11.6562 0.0390079 11.5234 0.0546323ZM15.1562 25.2109C15.5625 25.2734 16.25 25.4452 16.6875 25.5859C17.6328 25.8984 18.7734 26.4531 18.7266 26.5859C18.6797 26.7421 17.6484 27.5702 17.1016 27.8984C15.8438 28.6484 14.5938 28.9452 12.9688 28.8827C12.0312 28.8515 11.8282 28.8125 11.0938 28.5702C10.6407 28.414 10.0469 28.1718 9.76567 28.0156C9.25783 27.7421 7.96875 26.75 7.91407 26.5937C7.88282 26.4921 8.57033 26.1171 9.375 25.7968C11.1641 25.0859 13.1875 24.8827 15.1562 25.2109Z" fill="#393F4D"/>
<path d="M28.2812 5.44531V10.8984L29.1953 15.4531L30.1016 20L31.6719 19.9843L33.2344 19.9609L34.1172 15.5859L34.9922 11.2109L35 5.60156V0H34.1407H33.2812V5.41406V10.8281L32.5391 14.5312C32.1328 16.5703 31.7968 18.25 31.7968 18.2578C31.7968 18.2734 31.7422 18.2812 31.6797 18.2812C31.5391 18.2812 31.625 18.6562 30.7422 14.2188L30 10.5156V5.25781V0H29.1407H28.2812V5.44531Z" fill="#393F4D"/>
<path d="M7.46094 10.8749C7.44532 10.9295 7.42188 11.1405 7.39844 11.3436C7.34375 11.8983 6.94532 12.6795 6.45312 13.1718C5.95312 13.664 5.42187 13.9374 4.67187 14.078L4.14062 14.1795V15.0077V15.8358L4.65625 15.9218C5.74219 16.1015 6.60157 16.7343 7.07812 17.6952C7.25782 18.0624 7.38282 18.4374 7.41407 18.7265L7.46094 19.1795L8.34375 19.203L9.21875 19.2265V18.953C9.21875 18.5077 9.51567 17.6874 9.83592 17.2577C10.4062 16.5155 11.0703 16.0936 11.9766 15.9295L12.5 15.8358V14.9999V14.164L12 14.078C11.0625 13.9061 10.4141 13.4999 9.84375 12.742C9.51567 12.3124 9.21875 11.4999 9.21875 11.0468V10.7811H8.35933C7.73438 10.7811 7.48437 10.8045 7.46094 10.8749ZM9.10942 14.5545C9.25 14.6718 9.42192 14.8202 9.5 14.8827C9.64067 14.9843 9.63283 15.0077 9.34375 15.242C9.01567 15.5233 8.51567 16.0468 8.41408 16.2186C8.36717 16.3045 8.28125 16.242 8.05469 15.953C7.80469 15.6405 7.55469 15.414 7.03907 15.0233C7.01563 15.0077 7.08594 14.9374 7.19532 14.867C7.45313 14.6952 8.28125 13.828 8.28125 13.7265C8.28125 13.6795 8.41408 13.7968 8.57817 13.9843C8.73442 14.1718 8.97658 14.4295 9.10942 14.5545Z" fill="#393F4D"/>
<path d="M26.8984 23.9141L23.2812 26.1797V27.5V28.8204L26.9141 31.086L30.5468 33.3594H35.2734H40V32.5V31.6407H35.5625H31.125L28.5469 30.0313C27.1328 29.1485 25.9609 28.4063 25.9453 28.3906C25.9297 28.375 27.0391 28.3594 28.4141 28.3594H30.9219L31.1641 28.7813C31.4453 29.2813 31.9609 29.7031 32.5157 29.8906C33.1094 30.086 33.9844 30.0156 34.5157 29.7266C35.0625 29.4297 35.4922 28.9531 35.6953 28.4063C35.8516 27.9922 35.8594 27.8204 35.8594 25.6641V23.3594H37.9297H40V22.5V21.6406L35.2578 21.6485H30.5078L26.8984 23.9141ZM34.1407 24.2031V25.0547L33.5234 25.0156C32.4688 24.9531 31.6328 25.375 31.1641 26.2188L30.9219 26.6407H28.4141C27.0391 26.6407 25.9297 26.625 25.9453 26.6094C25.9609 26.5938 27.1328 25.8516 28.5469 24.9688L31.125 23.3594H32.6328H34.1407V24.2031ZM33.8282 26.9297C33.9844 27.0704 34.0859 27.25 34.1172 27.4375C34.1563 27.6954 34.1328 27.7579 33.8828 28.0079C33.6719 28.2188 33.5469 28.2813 33.3359 28.2813C32.6094 28.2813 32.2891 27.336 32.8594 26.8829C33.1563 26.6485 33.5391 26.6719 33.8282 26.9297Z" fill="#393F4D"/>
<path d="M25.2266 32.7265L25 32.9531V36.25V39.5468L25.2266 39.7734C25.5547 40.0938 26.0625 40.0938 26.4219 39.7734L26.6797 39.5468V36.25V32.9531L26.4219 32.7265C26.0625 32.4063 25.5547 32.4063 25.2266 32.7265Z" fill="#393F4D"/>
<path d="M9.14062 35.8593V36.7188H9.99996H10.8593V35.8593V35H9.99996H9.14062V35.8593Z" fill="#393F4D"/>
<path d="M12.5 35.8593V36.7188H13.3593H14.2188V35.8593V35H13.3593H12.5V35.8593Z" fill="#393F4D"/>
<path d="M15.7812 35.8593V36.7188H16.6407H17.5V35.8593V35H16.6407H15.7812V35.8593Z" fill="#393F4D"/>
</g>
</svg>
