<svg width="29" height="28" viewBox="0 0 29 28" fill="none" xmlns="http://www.w3.org/2000/svg">
<path d="M16.375 2.66377L18.726 7.36603C19.0429 8.01634 19.8933 8.63323 20.6103 8.7667L24.8624 9.46703C27.5804 9.91724 28.214 11.8848 26.263 13.8524L22.9448 17.1707C22.3945 17.721 22.0777 18.8048 22.2611 19.5884L23.2116 23.6904C23.9619 26.9253 22.2278 28.1925 19.3765 26.4917L15.3912 24.124C14.6741 23.6904 13.4737 23.6904 12.7566 24.124L8.77132 26.4917C5.91996 28.1759 4.18584 26.9253 4.93619 23.6904L5.88664 19.5884C6.07013 18.8215 5.75328 17.7376 5.20302 17.1707L1.88474 13.8524C-0.0661344 11.9015 0.567517 9.93385 3.28541 9.46703L7.53743 8.7667C8.25447 8.64994 9.10487 8.01634 9.42172 7.36603L11.7728 2.66377C13.0234 0.112553 15.0911 0.112553 16.375 2.66377Z" stroke="#242B3A" stroke-width="1.5" stroke-linecap="round" stroke-linejoin="round"/>
</svg>
