<svg width="15" height="14" viewBox="0 0 15 14" fill="none" xmlns="http://www.w3.org/2000/svg">
<path d="M6.03185 0.984127L6.73026 0.285714C7.04772 0 7.52391 0 7.80962 0.285714L14.0001 6.44444C14.2858 6.7619 14.2858 7.2381 14.0001 7.52381L7.80962 13.7143C7.52391 14 7.04772 14 6.73026 13.7143L6.03185 13.0159C5.74613 12.6984 5.74613 12.2222 6.03185 11.9048L9.87312 8.25397H0.762004C0.31756 8.25397 9.93032e-05 7.93651 9.93032e-05 7.49206V6.47619C9.93032e-05 6.06349 0.31756 5.71429 0.762004 5.71429H9.87312L6.03185 2.09524C5.74613 1.77778 5.71439 1.30159 6.03185 0.984127Z" fill="#242B3A"/>
</svg>
