<svg width="17" height="17" viewBox="0 0 17 17" fill="none" xmlns="http://www.w3.org/2000/svg">
<g clip-path="url(#clip0_3_749)">
<path d="M9.29496 1.03492C8.98304 0.809017 8.62911 0.647732 8.25397 0.560551C7.87883 0.47337 7.49005 0.462051 7.11047 0.527259C6.73089 0.592466 6.36818 0.732885 6.04364 0.940265C5.71911 1.14764 5.43929 1.4178 5.22065 1.73485L4.71565 2.46895L3.83663 2.6088C3.45617 2.66953 3.0917 2.80572 2.76464 3.00937C2.43758 3.21301 2.15454 3.48 1.93217 3.79462C1.7098 4.10925 1.55258 4.46516 1.46976 4.84143C1.38694 5.2177 1.38019 5.60673 1.44991 5.98565L1.61045 6.8611L1.08895 7.58181C0.863032 7.89373 0.701748 8.24766 0.614567 8.6228C0.527386 8.99794 0.516066 9.38672 0.581274 9.7663C0.646482 10.1459 0.786901 10.5086 0.99428 10.8331C1.20166 11.1577 1.47182 11.4375 1.78887 11.6561L2.52199 12.1613L2.66183 13.0403C2.72257 13.4208 2.85876 13.7852 3.06241 14.1123C3.26605 14.4393 3.53303 14.7224 3.84766 14.9448C4.16228 15.1671 4.5182 15.3244 4.89447 15.4072C5.27074 15.49 5.65977 15.4967 6.03868 15.427L6.91414 15.2665L7.63484 15.788C7.94676 16.0139 8.3007 16.1752 8.67584 16.2624C9.05098 16.3495 9.43976 16.3609 9.81933 16.2956C10.1989 16.2304 10.5616 16.09 10.8862 15.8826C11.2107 15.6753 11.4905 15.4051 11.7092 15.0881L12.2143 14.3549L13.0933 14.2151C13.4738 14.1544 13.8383 14.0182 14.1653 13.8145C14.4924 13.6109 14.7754 13.3439 14.9978 13.0293C15.2202 12.7146 15.3774 12.3587 15.4602 11.9825C15.543 11.6062 15.5498 11.2172 15.4801 10.8382L15.3195 9.9628L15.841 9.2421C16.0669 8.93017 16.2282 8.57624 16.3154 8.2011C16.4026 7.82596 16.4139 7.43718 16.3487 7.0576C16.2835 6.67803 16.1431 6.31531 15.9357 5.99078C15.7283 5.66624 15.4582 5.38643 15.1411 5.16778L14.408 4.66261L14.2681 3.7836C14.2074 3.40314 14.0712 3.03866 13.8676 2.7116C13.6639 2.38454 13.3969 2.10151 13.0823 1.87913C12.7677 1.65676 12.4118 1.49954 12.0355 1.41672C11.6592 1.3339 11.2702 1.32715 10.8913 1.39687L10.0158 1.55742L9.29513 1.03591L9.29496 1.03492ZM10.591 6.88394L8.14222 10.3485C8.10432 10.4023 8.0562 10.4481 8.0006 10.4832C7.945 10.5183 7.88301 10.5421 7.8182 10.5533C7.75338 10.5644 7.687 10.5626 7.62286 10.5481C7.55873 10.5335 7.4981 10.5064 7.44444 10.4684L5.71213 9.24405C5.65844 9.20611 5.61275 9.15796 5.57767 9.10235C5.54259 9.04675 5.51881 8.98478 5.50768 8.91999C5.49655 8.85519 5.49829 8.78884 5.5128 8.72472C5.52731 8.6606 5.55431 8.59996 5.59226 8.54627C5.6302 8.49259 5.67835 8.4469 5.73395 8.41182C5.78956 8.37674 5.85152 8.35295 5.91632 8.34182C5.98111 8.33069 6.04747 8.33243 6.11159 8.34694C6.17571 8.36146 6.23635 8.38846 6.29003 8.4264L7.61369 9.36281L9.77332 6.30603C9.84996 6.19761 9.96653 6.12406 10.0974 6.10158C10.2282 6.0791 10.3627 6.10953 10.4711 6.18616C10.5795 6.2628 10.6531 6.37936 10.6756 6.51022C10.698 6.64108 10.6676 6.77551 10.591 6.88394Z" fill="#03C95A"/>
</g>
<defs>
<clipPath id="clip0_3_749">
<rect width="17" height="17" fill="white"/>
</clipPath>
</defs>
</svg>
