<svg width="40" height="40" viewBox="0 0 40 40" fill="none" xmlns="http://www.w3.org/2000/svg">
<path d="M26.6679 6.19049C26.4798 5.43815 24.4268 5.58347 21.9186 6.07627C19.3332 6.58426 19.1912 10.0025 21.647 10.9575C22.4152 11.2562 23.2889 11.2141 23.9271 10.6926C25.4462 9.45165 26.975 7.41883 26.6679 6.19049Z" fill="#FF008A"/>
<path d="M36.1919 9.5238L34.2871 16.6666H37.1443L38.0967 10.9524L36.1919 9.5238Z" fill="#FF008A"/>
<path d="M11.9043 27.1428L15.7138 29.0476V30.9523L11.9043 32.3809V27.1428Z" fill="#FF008A"/>
<path d="M22.8581 27.619L18.0962 29.3506V31.0823L22.8581 32.3809V27.619Z" fill="#FF008A"/>
<path d="M19.4297 1.0156C18.7344 1.1406 17.9375 1.41404 17.3438 1.73435C16.7188 2.06247 15.7578 2.79685 15.6328 3.03904C15.5625 3.15622 15.4141 3.18747 14.7109 3.23435C13.6562 3.30466 13.3125 3.38279 12.5859 3.72654C11.8203 4.08591 10.9219 4.96872 10.5547 5.71091C10.0859 6.67185 10.0547 6.84372 10.0234 9.46872L9.98442 11.875H9.625C8.94533 11.8828 8.21875 12.3437 7.86719 13.0078C7.71875 13.2734 7.69532 13.4453 7.69532 14.2187C7.69532 15.2031 7.75 15.3671 8.21875 15.8984C8.54692 16.2734 8.99217 16.4921 9.53908 16.5391L9.99217 16.5859L10.0157 17.5312C10.0312 18.1016 10.0078 18.5 9.96092 18.5312C9.92183 18.5625 9.76567 18.5937 9.63283 18.5937H9.375V19.0391C9.375 19.2891 9.35158 19.5703 9.32817 19.6641C9.28908 19.8125 9.32033 19.8359 9.75783 19.8984L10.2344 19.9609L10.5 20.7266C10.9453 22.0234 11.9141 23.4219 12.9141 24.2187L13.3593 24.5703V25.4844V26.3984L13.0703 26.4766C12.9062 26.5234 10.7422 27.0312 8.25782 27.6171C5.76563 28.2031 3.55468 28.75 3.33594 28.8359C2.14062 29.3046 1.14062 30.2187 0.585938 31.3516C0.00781248 32.5312 0 32.5937 0 36.0312V39.0625H17.3828H34.7657V37.6562V36.25H34.1407H33.5157V37.0312V37.8125H32.3047H31.0938V33.9453V30.0703L31.4219 30.25C31.9219 30.5234 32.75 31.3828 33.0313 31.9219C33.3828 32.5937 33.5157 33.2421 33.5157 34.3125V35.2344H34.1407H34.7657V34.2109C34.7657 32.3281 34.3516 31.2266 33.2032 30.0703C32.6407 29.4921 32.4297 29.3437 31.7968 29.0391C31.125 28.7187 30.6328 28.5859 26.6797 27.6562C24.2734 27.0937 22.0859 26.5781 21.8203 26.5078L21.3282 26.3906V25.5234V24.6562L22.0157 24.0156C23.1484 22.9609 23.8594 21.8984 24.2657 20.6562C24.3828 20.2891 24.5157 19.9766 24.5625 19.9609C24.6094 19.9453 24.8125 19.9141 25.0234 19.8828L25.3907 19.8359V19.4609C25.3907 18.8203 25.3203 18.5937 25.1172 18.5937C24.6953 18.5937 24.6875 18.5703 24.6875 17.5391V16.5859L25.1797 16.5469C25.9532 16.4844 26.5547 16.0781 26.9219 15.3906C27.1484 14.9687 27.1328 13.4375 26.8984 13.0078C26.5312 12.3281 25.8203 11.8828 25.1016 11.875H24.6875V11.2266V10.5859L25.1407 10.2266C25.3984 10.0234 25.7657 9.64064 25.9609 9.37497C27.2657 7.6406 27.3672 5.49997 26.2422 3.73435L26 3.35935L25.6797 3.59372C25.5 3.72654 25.2734 3.8906 25.1719 3.96872L24.9922 4.10154L25.2969 4.68747C26.0703 6.18747 25.8438 7.62497 24.6407 8.89839C24.2266 9.34372 23.9766 9.53122 23.4844 9.76564C22.4141 10.2812 21.0078 10.5391 20.0157 10.3984C18.9219 10.2344 18.2657 9.90622 17.2657 9.03122C16.9844 8.78906 16.4609 8.43747 16.1016 8.25779L15.4453 7.92966H14.4922C13.5547 7.92966 13.5391 7.92966 12.9453 8.22654C12.5703 8.41406 12.1407 8.71089 11.8282 9.0078L11.3125 9.48439L11.3438 8.23435C11.3672 6.99216 11.3672 6.98435 11.6328 6.44529C12.1328 5.43747 13.1719 4.65622 14.1641 4.55466C14.4063 4.53122 14.6093 4.53122 14.6093 4.55466C14.6093 4.58591 14.5078 4.78122 14.375 4.98435C14.25 5.19529 14.1407 5.39841 14.1407 5.43747C14.1407 5.49997 15.0859 6.09372 15.1797 6.09372C15.1953 6.09372 15.4922 5.63279 15.8282 5.07029C16.5703 3.83591 17.125 3.27341 18.0782 2.81247C18.8594 2.42966 19.4532 2.27341 20.3125 2.21091C21.5078 2.13279 22.75 2.43747 23.7188 3.03904C24 3.21872 24.2578 3.34372 24.2891 3.32029C24.3282 3.30466 24.5078 3.08591 24.6953 2.84372L25.0313 2.40622L24.8047 2.21091C24.4532 1.92966 23.0782 1.28122 22.5 1.13279C21.9141 0.976538 20.0157 0.906222 19.4297 1.0156ZM15.5859 9.43747C15.8438 9.57031 16.3203 9.91406 16.6407 10.1953C17.2812 10.7578 18.3359 11.3281 19.0859 11.5156C20.1875 11.7969 21.5313 11.75 22.8125 11.375L23.4375 11.1953V14.7031V18.2109L23.1953 18.0703C23.0625 17.9921 22.5782 17.6016 22.1172 17.2031C21.1875 16.3906 20.5782 16.0469 19.8672 15.9375C19.0782 15.8046 18.1484 16 17.5859 16.3984L17.3672 16.5546L17.0859 16.3594C16.7109 16.1094 16.5 16.0312 15.8984 15.9375C14.8047 15.7656 13.9141 16.0859 12.8125 17.0469C12.1016 17.6719 11.5 18.125 11.3907 18.125C11.3594 18.125 11.3282 16.6953 11.3282 14.9375V11.7578L11.7578 11.125C12.4922 10.0391 13.1407 9.46089 13.9063 9.21089C14.3125 9.07814 15.0938 9.17964 15.5859 9.43747ZM10 14.2187V15.3125H9.80467C9.5 15.3125 9.15625 15.1016 9.02342 14.8437C8.875 14.5546 8.875 13.8828 9.02342 13.5937C9.16408 13.3281 9.47658 13.1328 9.78908 13.125H10V14.2187ZM25.3907 13.2421C25.7032 13.3984 25.8594 13.7344 25.8594 14.2187C25.8594 14.4375 25.8047 14.7187 25.7422 14.8437C25.6094 15.1016 25.2657 15.3125 24.9609 15.3125H24.7657V14.2187V13.125H24.9609C25.0782 13.125 25.2657 13.1796 25.3907 13.2421ZM16.4843 17.5C16.8516 17.7344 16.9766 17.7734 17.3828 17.7734C17.7891 17.7734 17.9219 17.7344 18.2812 17.5C18.6328 17.2734 18.7891 17.2266 19.2344 17.2031C19.9218 17.1641 20.3438 17.3594 21.2109 18.1328C21.5547 18.4375 21.9141 18.7421 22.0078 18.8046C22.1094 18.8671 22.1719 18.9531 22.1484 18.9844C22.0859 19.0937 20.4688 19.2421 19.8282 19.1953C19.3672 19.1641 18.9141 19.0625 18.2812 18.8437L17.3907 18.5391L16.4453 18.8516C15.7969 19.0703 15.3203 19.1719 14.8907 19.2031C14.2734 19.2421 12.6797 19.0859 12.6172 18.9844C12.5938 18.9531 12.6953 18.8359 12.8359 18.7266C12.9688 18.625 13.3516 18.3046 13.6718 18.0156C14.4844 17.2969 14.7422 17.1796 15.4688 17.2031C15.9922 17.2266 16.1094 17.2578 16.4843 17.5ZM18.1563 20.1484C19.0157 20.4219 20.0391 20.5781 20.5782 20.5078C21.4297 20.4062 22.7032 20.2266 22.875 20.1953C23.1172 20.1406 23.0938 20.2578 22.7422 20.9844C21.8984 22.7266 20.1484 24.1641 17.9532 24.9296C17.4766 25.0937 17.3984 25.1016 17.0547 25.0156C16.5 24.8671 15.5234 24.4296 14.8125 24.0078C14.0547 23.5546 12.6719 22.2187 12.2813 21.5469C12.0391 21.1406 11.625 20.2187 11.6641 20.1796C11.6719 20.1719 12.2969 20.2578 13.0469 20.3671C14.25 20.5391 14.5 20.5469 15.1172 20.4766C15.5078 20.4296 16.1172 20.2891 16.4843 20.1641C16.8516 20.0391 17.2188 19.9296 17.2969 19.9296C17.375 19.9219 17.7657 20.0234 18.1563 20.1484ZM20.0782 26.5156V27.6406L19.5938 27.8046L19.1094 27.9687L18.875 27.6875C18.5391 27.2734 18.125 27.1094 17.4218 27.1094C17.1016 27.1094 16.7032 27.1484 16.5469 27.1875C16.2657 27.2656 15.875 27.5703 15.7344 27.8359C15.6641 27.9609 15.6328 27.9609 15.1719 27.8046L14.6875 27.6406V26.5546C14.6875 25.9609 14.7032 25.4687 14.7188 25.4687C14.7344 25.4687 15.0078 25.5859 15.3282 25.7344C16.0157 26.0469 17.1172 26.4062 17.3828 26.4062C17.6562 26.4062 18.9453 25.9609 19.5312 25.6562C19.8125 25.5156 20.0469 25.3984 20.0625 25.3906C20.0703 25.3906 20.0782 25.8984 20.0782 26.5156ZM13.9063 28.7344L15.5078 29.2734L15.5313 29.8594L15.5547 30.4531L13.8594 31.0156C12.4922 31.4766 12.1563 31.5625 12.1016 31.4766C12.0234 31.3516 12.0078 28.5156 12.0782 28.3281C12.1016 28.2578 12.1641 28.2031 12.2188 28.2031C12.2657 28.2031 13.0313 28.4453 13.9063 28.7344ZM22.6407 29.8671C22.6563 31.125 22.6407 31.5 22.5625 31.5234C22.5078 31.5469 21.7422 31.3203 20.8594 31.0312L19.2578 30.4921V29.8828V29.2734L20.8203 28.7421C21.6797 28.4531 22.4375 28.2187 22.5 28.2266C22.6016 28.2421 22.6172 28.4921 22.6407 29.8671ZM10.7969 30.0937C10.8203 32.0391 10.8516 32.1484 11.375 32.5469C11.5859 32.7109 11.7657 32.7734 12.0938 32.7969C12.4766 32.8203 12.75 32.75 14.0391 32.3125L15.5391 31.8125L15.5938 32.0703C15.6562 32.4219 16.1094 32.9375 16.4453 33.0469L16.7188 33.1406V33.7187V34.2969H13.0078H9.29683V31.4921V28.6875L9.90625 28.5312C10.2344 28.4453 10.5703 28.375 10.6407 28.3671C10.7578 28.3594 10.7734 28.5312 10.7969 30.0937ZM17.7969 28.4219C17.8672 28.4766 17.8907 28.875 17.875 30.1641L17.8516 31.8359H17.3438H16.8359L16.8125 30.2031C16.7968 29.0703 16.8203 28.5391 16.8828 28.4687C16.9766 28.3516 17.6328 28.3203 17.7969 28.4219ZM24.7734 28.5234L25.4688 28.6875V31.4921V34.2969H21.7188H17.9688V33.7266V33.1641L18.3203 33.0156C18.7344 32.8516 19.0547 32.4766 19.1172 32.0859L19.1562 31.8125L20.6484 32.3125C22.3359 32.875 22.7266 32.9219 23.2422 32.6328C23.4141 32.5312 23.625 32.3203 23.7266 32.1484C23.8984 31.8516 23.9063 31.7578 23.9063 30.0937C23.9063 28.8594 23.9297 28.3594 23.9922 28.3594C24.0391 28.3594 24.3907 28.4296 24.7734 28.5234ZM8.04688 32.2656V35.5469H17.3828H26.7188V32.2578C26.7188 29.1641 26.7266 28.9766 26.8594 29.0156C26.9297 29.0312 27.6172 29.1953 28.3828 29.375L29.7657 29.7031V33.7578V37.8125H17.3438H4.92188V35.8984V33.9844H4.29688H3.67188V35.8984V37.8125H2.46093H1.25V35.5234C1.25 33.0546 1.28125 32.7969 1.6875 31.9609C1.9375 31.4609 2.82812 30.5234 3.34375 30.25L3.67188 30.0703V31.4766V32.8906H4.29688H4.92188V31.2969V29.7109L5.84375 29.4921C6.34375 29.375 7.00782 29.2187 7.30468 29.1406C7.60938 29.0625 7.89844 28.9921 7.95312 28.9921C8.02344 28.9844 8.04688 29.6875 8.04688 32.2656Z" fill="#393F4D"/>
<path d="M13.75 14.1406V14.7656H14.4141H15.0782V14.1406V13.5156H14.4141H13.75V14.1406Z" fill="#393F4D"/>
<path d="M19.2969 14.1406V14.7656H19.9219H20.5469V14.1406V13.5156H19.9219H19.2969V14.1406Z" fill="#393F4D"/>
<path d="M3.59375 2.61718V3.20312H3.00782H2.42188V3.86718V4.53125H3.00782H3.59375V5.11718V5.70312H4.25782H4.92188V5.11718V4.53125H5.50782H6.09375V3.86718V3.20312H5.50782H4.92188V2.61718V2.03125H4.25782H3.59375V2.61718ZM4.84375 3.86718V4.45312H4.25782H3.67188V3.86718V3.28125H4.25782H4.84375V3.86718Z" fill="#393F4D"/>
<path d="M36.25 3.125V3.75H36.875H37.5V3.125V2.5H36.875H36.25V3.125Z" fill="#393F4D"/>
<path d="M31.522 6.82815C30.8032 7.06252 30.4282 7.25784 29.9907 7.64846C29.2329 8.31252 28.8267 9.25002 28.8267 10.3204C28.8267 10.8047 28.9517 11.5 29.4204 13.5704C29.7485 15.0234 30.0845 16.3359 30.1626 16.4922C30.3735 16.9063 30.7563 17.2657 31.2407 17.4844C31.6235 17.6563 31.7251 17.6719 32.3579 17.6329C33.0532 17.5859 33.061 17.5859 33.0142 17.7579C32.9907 17.8516 32.811 18.6484 32.6157 19.5313C32.4126 20.4141 32.2407 21.1407 32.2329 21.1563C32.2172 21.1641 32.0454 21.0859 31.8501 20.9766C31.2172 20.625 30.2017 20.5938 29.5922 20.9063C29.2017 21.1094 28.7485 21.5704 28.5297 21.9844C28.3501 22.3282 28.3188 22.4844 28.3188 23.0547C28.3188 23.6563 28.3422 23.7734 28.561 24.1954L28.8032 24.6719L28.2563 25.2188L27.7017 25.7734L28.0922 26.1954C28.3032 26.4297 28.5063 26.625 28.5532 26.6329C28.5922 26.6407 28.897 26.3672 29.2329 26.0391L29.8422 25.4375L30.6001 25.4297C31.4829 25.4297 31.8735 25.2891 32.3735 24.7813C32.8032 24.3594 32.9438 24.0313 33.1626 22.9532C33.272 22.4219 33.4751 21.4922 33.6157 20.875L33.8735 19.7579L34.2797 21.6172C34.5063 22.6407 34.6938 23.5313 34.686 23.5938C34.686 23.8672 35.0767 24.5157 35.4595 24.8594C35.9985 25.3438 36.4751 25.5 37.2642 25.4454L37.8735 25.4063L38.4829 26.0234C38.8188 26.3594 39.1313 26.6407 39.1782 26.6407C39.2642 26.6407 39.9985 25.8359 39.9985 25.7422C39.9985 25.7188 39.7563 25.4688 39.4517 25.1875L38.9126 24.6719L39.1547 24.2422C39.3501 23.8984 39.4047 23.6954 39.436 23.2422C39.4829 22.5 39.3188 22.0079 38.8579 21.4922C38.3501 20.9297 37.8267 20.6954 37.0688 20.6875C36.5532 20.6875 36.397 20.7188 35.9907 20.9219C35.7251 21.0547 35.5063 21.1563 35.4985 21.1484C35.4907 21.1407 35.3188 20.3907 35.1157 19.4922C34.9204 18.5859 34.7329 17.7891 34.7172 17.7188C34.686 17.6016 34.7485 17.5938 35.3735 17.6329C36.0063 17.6719 36.1079 17.6563 36.4907 17.4844C36.9751 17.2657 37.3579 16.9063 37.5767 16.4844C37.7172 16.2032 38.7329 11.8829 38.9047 10.8359C39.1392 9.39069 38.3579 7.84377 37.0532 7.17189C36.5845 6.92971 35.561 6.58596 35.5142 6.65627C35.5063 6.6719 35.147 8.22659 34.7251 10.1172C34.3032 12.0079 33.936 13.6329 33.9126 13.7344C33.8813 13.8516 33.5767 12.6407 33.0454 10.2813C32.5922 8.28127 32.1938 6.64064 32.147 6.64846C32.1079 6.64846 31.8267 6.7344 31.522 6.82815ZM32.1938 12.2891C32.6704 14.4297 33.0532 16.1954 33.0376 16.2109C33.022 16.2266 32.7876 16.2813 32.522 16.3359C32.0922 16.4219 31.9985 16.4219 31.7642 16.3047C31.6157 16.2344 31.4282 16.0859 31.3579 15.9766C31.1782 15.7032 30.0767 10.7813 30.0767 10.2813C30.0845 9.81252 30.2172 9.39844 30.4985 8.99219C30.7095 8.68752 31.272 8.2344 31.3032 8.33594C31.311 8.37502 31.7095 10.1484 32.1938 12.2891ZM36.8813 8.58594C37.2876 8.92194 37.5922 9.53127 37.6392 10.1172C37.6704 10.5313 37.5845 11.0079 37.1001 13.1563C36.7876 14.5625 36.4672 15.8125 36.3892 15.9454C36.311 16.0704 36.1235 16.2344 35.9751 16.3047C35.7329 16.4219 35.6392 16.4219 35.2095 16.3359C34.9438 16.2813 34.7172 16.2266 34.7017 16.2109C34.6392 16.1484 36.4438 8.35944 36.522 8.35944C36.5688 8.35944 36.7251 8.46094 36.8813 8.58594ZM31.4985 22.3282C31.7563 22.6094 31.7954 22.6954 31.7954 23.0234C31.7954 24.2813 30.2172 24.6563 29.6782 23.5391C29.4126 22.9922 29.5845 22.4219 30.1157 22.0938C30.2954 21.9766 30.4517 21.9532 30.772 21.9766C31.147 22 31.2251 22.0391 31.4985 22.3282ZM37.6626 22.1329C38.4126 22.6329 38.3345 23.7188 37.5297 24.1016C36.8032 24.4454 35.936 23.8984 35.936 23.0859C35.936 22.2109 36.9438 21.6484 37.6626 22.1329Z" fill="#393F4D"/>
<path d="M3.04688 20.9375V21.5625H3.67188H4.29688V20.9375V20.3125H3.67188H3.04688V20.9375Z" fill="#393F4D"/>
</svg>
