<svg width="24" height="24" viewBox="0 0 24 24" fill="none" xmlns="http://www.w3.org/2000/svg">
<g clip-path="url(#clip0_3_1658)">
<g clip-path="url(#clip1_3_1658)">
<g clip-path="url(#clip2_3_1658)">
<path d="M24 12.0053C24 18.0661 19.5074 23.0766 13.6712 23.8897C13.1255 23.9654 12.5671 24.0049 12.0004 24.0049C11.3463 24.0049 10.7039 23.9528 10.0783 23.8519C4.36394 22.932 0 17.9778 0 12.0053C0 5.37783 5.37295 0.00488281 11.9996 0.00488281C18.6262 0.00488281 24 5.37783 24 12.0053Z" fill="#1877F2"/>
<path d="M13.6691 9.64003V12.2542H16.903L16.3909 15.7756H13.6691V23.8889C13.1234 23.9645 12.5651 24.0041 11.9984 24.0041C11.3442 24.0041 10.7018 23.9519 10.0762 23.851V15.7756H7.09375V12.2542H10.0762V9.05565C10.0762 7.07127 11.6847 5.46191 13.6699 5.46191V5.46359C13.6758 5.46359 13.6809 5.46191 13.6868 5.46191H16.9038V8.50742H14.8017C14.177 8.50742 13.6699 9.01445 13.6699 9.63919L13.6691 9.64003Z" fill="white"/>
</g>
</g>
</g>
<defs>
<clipPath id="clip0_3_1658">
<rect width="24" height="23.03" fill="white" transform="translate(0 0.490234)"/>
</clipPath>
<clipPath id="clip1_3_1658">
<rect width="24" height="23.03" fill="white" transform="translate(0 0.490234)"/>
</clipPath>
<clipPath id="clip2_3_1658">
<rect width="25" height="24" fill="white" transform="translate(-0.5 0.00488281)"/>
</clipPath>
</defs>
</svg>
