<svg width="52" height="22" viewBox="0 0 52 22" fill="none" xmlns="http://www.w3.org/2000/svg">
<g clip-path="url(#clip0_3_419)">
<g clip-path="url(#clip1_3_419)">
<g opacity="0.6">
<path d="M13.1662 5.52107L13.574 5.11327L13.1581 4.71376C12.1305 3.72671 10.7452 2.96558 8.81793 2.96558C5.34094 2.96558 2.41016 5.79556 2.41016 9.29283C2.41016 12.7902 5.34094 15.6201 8.81793 15.6201C10.6797 15.6201 12.1162 15.003 13.2441 13.8356C14.4269 12.6502 14.7676 11.0198 14.7676 9.75706C14.7676 9.36277 14.7345 8.9843 14.67 8.66212L14.5792 8.20776H8.25271V10.9164H11.8928C11.7629 11.366 11.5671 11.6916 11.3282 11.9309C10.8544 12.3992 10.1358 12.9177 8.81793 12.9177C6.81898 12.9177 5.24878 11.3116 5.24878 9.29283C5.24878 7.27417 6.81898 5.66805 8.81793 5.66805C9.90028 5.66805 10.6833 6.0906 11.2725 6.64195L11.6717 7.01555L12.0584 6.62892L13.1662 5.52107Z" fill="white" stroke="white" stroke-width="1.13043"/>
<path d="M18.739 15.614C21.067 15.614 22.962 13.7909 22.962 11.3416C22.962 8.87868 21.0658 7.06909 18.739 7.06909C16.4124 7.06909 14.5161 8.87868 14.5161 11.3416C14.5161 13.7909 16.4111 15.614 18.739 15.614ZM18.739 9.66012C19.5032 9.66012 20.2287 10.2909 20.2287 11.3416C20.2287 12.382 19.5012 13.023 18.739 13.023C17.978 13.023 17.2495 12.3769 17.2495 11.3416C17.2495 10.296 17.9759 9.66012 18.739 9.66012Z" fill="white" stroke="white" stroke-width="1.13043"/>
<path d="M26.9428 13.023H26.9396C26.1785 13.023 25.45 12.3769 25.45 11.3416C25.45 10.296 26.1765 9.66012 26.9396 9.66012C27.7037 9.66012 28.4292 10.2909 28.4292 11.3416C28.4292 12.385 27.6997 13.0273 26.9428 13.023ZM26.9335 15.614C29.2614 15.614 31.1564 13.7909 31.1564 11.3416C31.1564 8.87868 29.2601 7.06909 26.9335 7.06909C24.6067 7.06909 22.7104 8.87868 22.7104 11.3416C22.7104 13.7915 24.6123 15.614 26.9335 15.614Z" fill="white" stroke="white" stroke-width="1.13043"/>
<path d="M39.1529 7.85684V7.29164H36.4752V7.38398C36.0607 7.1867 35.5692 7.06265 35.0289 7.06265C32.8557 7.06265 30.9111 8.96022 30.9111 11.3537C30.9111 12.9566 31.7883 14.329 33.0238 15.0568L32.9742 15.0774L31.5569 15.6654L31.0347 15.8819L31.2515 16.4041C31.7208 17.5348 32.9679 18.9435 35.0599 18.9435C36.1229 18.9435 37.1603 18.6312 37.9342 17.8815C38.7129 17.1272 39.1529 16 39.1529 14.5163V7.85684ZM33.7122 15.3813C34.1306 15.5324 34.5746 15.6138 35.0289 15.6138C35.542 15.6138 36.013 15.5032 36.4164 15.3206C36.3503 15.6138 36.2342 15.8263 36.0959 15.9749C35.884 16.2026 35.5532 16.3525 35.0599 16.3525C34.3727 16.3525 33.9143 15.8645 33.7122 15.3813ZM35.1713 9.65988C35.904 9.65988 36.5866 10.2992 36.5866 11.3599C36.5866 12.3996 35.9116 13.029 35.1713 13.029C34.3854 13.029 33.6693 12.3704 33.6693 11.3599C33.6693 10.3234 34.3924 9.65988 35.1713 9.65988ZM42.0059 3.92679V3.36157H39.2477V15.3972H42.0059V3.92679Z" fill="white" stroke="white" stroke-width="1.13043"/>
<path d="M48.1661 12.0966L47.7002 11.786L47.3852 12.2491C47.0414 12.7547 46.6239 13.0353 46.0268 13.0353C45.7023 13.0353 45.4544 12.9614 45.2584 12.8377C45.2056 12.8045 45.1541 12.766 45.1042 12.7219L49.3997 10.9415L49.9141 10.7282L49.7087 10.2107L49.5436 9.79516C49.2024 8.88516 48.1193 7.0752 45.8412 7.0752C43.5929 7.0752 41.8286 8.85644 41.8286 11.3477C41.8286 13.7197 43.5787 15.6202 46.0206 15.6202C47.9833 15.6202 49.1189 14.4151 49.584 13.7244L49.9013 13.2534L49.4288 12.9384L48.1661 12.0966ZM46.2318 9.67729L44.7733 10.2813C45.0593 9.84851 45.535 9.63531 45.8969 9.63531C46.0215 9.63531 46.1332 9.65091 46.2318 9.67729Z" fill="white" stroke="white" stroke-width="1.13043"/>
</g>
<path d="M8.81814 15.0549C5.6431 15.0549 2.97559 12.4678 2.97559 9.2928C2.97559 6.11781 5.6431 3.53076 8.81814 3.53076C10.5758 3.53076 11.826 4.21776 12.7667 5.12137L11.6589 6.22921C10.9843 5.59793 10.0683 5.1028 8.81814 5.1028C6.49719 5.1028 4.68378 6.9719 4.68378 9.2928C4.68378 11.6137 6.49719 13.4829 8.81814 13.4829C10.3221 13.4829 11.1762 12.8764 11.727 12.3317C12.1788 11.8798 12.4697 11.2362 12.5811 10.3512H8.81814V8.77295H14.116C14.1717 9.05141 14.2026 9.39182 14.2026 9.75703C14.2026 10.9391 13.8808 12.3998 12.8411 13.4395C11.826 14.4917 10.5387 15.0549 8.81814 15.0549Z" fill="#4285F4"/>
<path d="M22.397 11.3416C22.397 13.4768 20.7569 15.0488 18.7393 15.0488C16.7217 15.0488 15.0815 13.4768 15.0815 11.3416C15.0815 9.1939 16.7217 7.63428 18.7393 7.63428C20.7569 7.63428 22.397 9.1939 22.397 11.3416ZM20.7941 11.3416C20.7941 10.0047 19.8409 9.09488 18.7393 9.09488C17.6376 9.09488 16.6845 10.0109 16.6845 11.3416C16.6845 12.6598 17.6376 13.5882 18.7393 13.5882C19.8409 13.5882 20.7941 12.666 20.7941 11.3416Z" fill="#E94235"/>
<path d="M30.5914 11.3416C30.5914 13.4768 28.9513 15.0488 26.9337 15.0488C24.9222 15.0488 23.2759 13.4768 23.2759 11.3416C23.2759 9.1939 24.916 7.63428 26.9337 7.63428C28.9513 7.63428 30.5914 9.1939 30.5914 11.3416ZM28.9946 11.3416C28.9946 10.0047 28.0415 9.09488 26.9398 9.09488C25.8382 9.09488 24.885 10.0109 24.885 11.3416C24.885 12.6598 25.8382 13.5882 26.9398 13.5882C28.0415 13.5944 28.9946 12.666 28.9946 11.3416Z" fill="#FABB05"/>
<path d="M38.5879 7.85712V14.5166C38.5879 17.2584 36.9725 18.3786 35.0601 18.3786C33.259 18.3786 32.1822 17.1718 31.7736 16.1877L33.191 15.5997C33.4447 16.2062 34.0637 16.918 35.0601 16.918C36.2855 16.918 37.0406 16.1568 37.0406 14.7394V14.2072H36.9849C36.6197 14.659 35.9142 15.0489 35.0291 15.0489C33.1724 15.0489 31.4766 13.4336 31.4766 11.354C31.4766 9.2621 33.1786 7.62817 35.0291 7.62817C35.9142 7.62817 36.6197 8.02428 36.9849 8.45746H37.0406V7.85712H38.5879ZM37.152 11.3602C37.152 10.0543 36.2793 9.09495 35.1715 9.09495C34.0451 9.09495 33.1043 10.0481 33.1043 11.3602C33.1043 12.6537 34.0451 13.5945 35.1715 13.5945C36.2793 13.5945 37.152 12.6537 37.152 11.3602Z" fill="#4285F4"/>
<path d="M41.4407 3.927V14.8322H39.813V3.927H41.4407Z" fill="#34A853"/>
<path d="M47.8528 12.5669L49.1155 13.4086C48.7069 14.0152 47.7229 15.055 46.0209 15.055C43.9104 15.055 42.394 13.4272 42.394 11.3477C42.394 9.14431 43.9289 7.64038 45.8414 7.64038C47.7662 7.64038 48.7069 9.16911 49.0164 9.99847L49.1835 10.4193L44.226 12.4741C44.6036 13.2168 45.1977 13.6005 46.027 13.6005C46.8564 13.6005 47.432 13.1858 47.8528 12.5669ZM43.9599 11.23L47.2773 9.85611C47.0916 9.39188 46.547 9.07008 45.8971 9.07008C45.0677 9.07008 43.9166 9.80042 43.9599 11.23Z" fill="#E94235"/>
</g>
</g>
<defs>
<clipPath id="clip0_3_419">
<rect width="52" height="21.84" fill="white"/>
</clipPath>
<clipPath id="clip1_3_419">
<rect width="52" height="21.84" fill="white"/>
</clipPath>
</defs>
</svg>
