<svg width="39" height="39" viewBox="0 0 39 39" fill="none" xmlns="http://www.w3.org/2000/svg">
<mask id="mask0_3_898" style="mask-type:luminance" maskUnits="userSpaceOnUse" x="-1" y="-1" width="41" height="41">
<path d="M39.6346 -0.642623H-0.643606V39.6356H39.6346V-0.642623Z" fill="white"/>
</mask>
<g mask="url(#mask0_3_898)">
<path d="M8.35888 17.5037L7.22324 18.1857L7.98033 19.3008C8.73743 20.4343 9.50379 21.5126 9.87304 21.9918L10.0761 22.2499L10.584 21.8075C11.0272 21.4204 12.0243 20.7477 12.329 20.637C12.3937 20.6186 12.0428 20.1855 11.5534 19.6879C10.5194 18.6188 9.99307 17.9369 9.69763 17.2917L9.48526 16.8218L8.35888 17.5037Z" fill="#FF008A"/>
<path d="M11.8371 0.230564C9.76026 0.529501 8.30493 1.43419 7.61265 2.85022C7.06984 3.94372 6.95183 4.58879 6.95183 6.3195C6.95183 7.27139 6.99116 7.94007 7.0541 8.16821C7.10917 8.36488 7.1485 8.55368 7.14064 8.60089C7.03049 10.1113 7.03837 10.1978 7.25077 10.6462C7.47104 11.0868 7.91158 11.5038 8.24986 11.5902C8.38359 11.6218 8.48587 11.7398 8.58027 11.9758C8.83201 12.5815 9.47711 13.4783 10.0749 14.0447C11.0897 15.0045 12.3484 15.508 13.7488 15.508C15.0546 15.508 16.0223 15.1067 16.9348 14.1785C18.2565 12.8332 19.051 10.7485 19.2949 7.98727C19.3342 7.49953 19.3263 7.44446 19.1454 7.26352C18.9016 7.01966 18.8229 7.01966 18.5869 7.26352C18.4217 7.42086 18.3902 7.531 18.3902 7.90861C18.3902 9.6 17.5563 12.0702 16.5887 13.2502C16.1325 13.8088 15.4008 14.328 14.8266 14.5011C14.3074 14.6583 13.2295 14.6505 12.616 14.4932C11.2628 14.147 10.012 12.9985 9.31975 11.4565C9.14668 11.0789 9.06015 10.9767 8.72973 10.8115C8.19479 10.544 8.00598 10.2215 8.00598 9.59214C8.00598 9.32464 8.05319 8.98636 8.11612 8.84476C8.21053 8.62449 8.27346 8.57728 8.55667 8.53009C8.74547 8.49862 9.16241 8.37275 9.49281 8.24688L10.0907 8.01087H12.2541C13.5363 8.01087 14.5433 7.9794 14.7164 7.92433C14.9052 7.87714 15.2277 7.649 15.5661 7.34219C16.4707 6.5083 17.2732 6.21723 18.8229 6.14643C19.4129 6.12283 19.8928 6.13857 20.0974 6.19363C20.766 6.37457 21.1751 6.98031 20.7109 7.09832C20.4356 7.16912 20.2389 7.48379 20.357 7.68833C20.4907 7.94794 20.6873 8.01087 21.0256 7.92433C21.6078 7.75913 21.9382 7.17699 21.7729 6.6027C21.592 5.95763 21.0099 5.46988 20.0974 5.17881L19.7198 5.0608L19.4522 4.27412C18.5711 1.74886 17.4934 0.623903 15.5975 0.262032C14.9288 0.128296 12.6317 0.112562 11.8371 0.230564ZM15.4873 1.19819C16.8562 1.48926 17.6665 2.28381 18.3509 4.02238C18.4689 4.31346 18.5554 4.57306 18.5319 4.58879C18.516 4.60453 18.2014 4.53373 17.8396 4.42359C16.4313 4.01452 15.7155 3.91225 14.9131 3.99879C13.2217 4.18759 12.5137 4.55732 10.8931 6.1071C10.2874 6.68924 9.76026 7.12192 9.4614 7.27926C8.96574 7.53886 8.05319 7.77487 7.95092 7.66473C7.91158 7.63326 7.88799 6.99605 7.89585 6.25656C7.90372 5.13948 7.93518 4.8012 8.06892 4.28986C8.40719 3.04689 9.06014 2.21301 10.0749 1.72526C10.956 1.30046 10.9718 1.31619 10.4998 2.01634C10.0278 2.70862 9.77607 3.29863 9.66591 3.98305C9.58727 4.4708 9.64225 4.65173 9.90194 4.78547C10.1143 4.90347 10.429 4.7068 10.4841 4.40786C10.7358 3.19636 11.019 2.61422 11.7034 1.94553C11.9551 1.70167 12.3406 1.41059 12.5766 1.30046C12.9621 1.10379 13.0644 1.08805 13.9769 1.08805C14.5276 1.08805 15.2042 1.14312 15.4873 1.19819ZM16.8248 5.07654C17.2967 5.18667 17.6743 5.29681 17.6586 5.31254C17.6429 5.32828 17.3675 5.41482 17.045 5.50135C16.2583 5.72162 15.6526 6.05203 15.0546 6.6027L14.5512 7.06685H12.8756H11.1999L11.4359 6.82298C11.8686 6.35884 12.789 5.60362 13.1824 5.39122C14.1894 4.84053 15.4322 4.73827 16.8248 5.07654Z" fill="#393F4D" stroke="#393F4D" stroke-width="0.3"/>
<path d="M9.8094 14.9258C9.65202 15.0516 9.61264 15.1697 9.58123 15.6102L9.54185 16.1452L7.92918 17.1128C7.04022 17.6398 6.08834 18.1905 5.80513 18.3242C3.97216 19.229 1.54917 21.1249 0.762487 22.2656C0.164607 23.1467 0.117406 23.3118 0.164607 24.6492C0.251143 26.962 0.746759 29.6446 1.52557 32.0362C2.02905 33.5781 2.09985 33.7276 2.32799 33.7905C2.5168 33.8377 3.55522 33.7276 4.08229 33.6095C4.26323 33.5702 4.44417 33.7276 5.77366 35.0492C7.27623 36.5439 8.13372 37.2913 9.14854 37.9677C9.45536 38.1644 9.74647 38.3769 9.79359 38.4241C9.84867 38.4791 10.1319 38.5971 10.4151 38.6915C10.8713 38.8488 11.0523 38.8646 11.6974 38.8253C12.4841 38.778 13.5697 38.542 13.9551 38.3375C14.081 38.2746 14.2227 38.2195 14.2778 38.2195C14.4272 38.2195 16.6771 37.4801 19.0844 36.6383C20.3824 36.182 21.4365 35.8595 21.6096 35.8595C21.8692 35.8595 22.1996 35.9224 23.7337 36.2607C24.4338 36.4102 26.7781 36.3079 28.1705 36.064C28.8077 35.9538 29.4292 35.8123 29.5551 35.7415C30.1845 35.4189 30.6644 34.7267 30.6644 34.1287V33.8141H34.6293C38.1299 33.8141 38.6099 33.7983 38.72 33.6882C38.8302 33.5781 38.8459 33.0117 38.8459 28.622C38.8459 24.2323 38.8302 23.6658 38.72 23.5557C38.6099 23.4455 37.5636 23.4298 28.3752 23.4298H18.1482L17.9594 23.6265L17.7627 23.8153V27.2216C17.7627 30.1795 17.7785 30.6516 17.8886 30.809C18.0459 31.0371 18.4315 31.0449 18.5652 30.8247C18.6517 30.6831 18.754 30.6673 19.4384 30.6673C20.1543 30.6673 20.2251 30.6516 20.3981 30.4707C20.642 30.2346 20.642 30.156 20.3981 29.92C20.2251 29.7391 20.1464 29.7233 19.4541 29.7233H18.7068V28.622V27.5206H20.4374H22.1682V27.9533C22.1682 28.3152 22.1996 28.4253 22.3648 28.5826C22.4671 28.6928 22.593 28.7793 22.6401 28.7793C22.6874 28.7793 22.8132 28.6928 22.9155 28.5826C23.0807 28.4253 23.1122 28.3152 23.1122 27.9533V27.5206H30.507H37.9019V28.622V29.7154L30.6487 29.7391C22.1917 29.7627 23.2931 29.6289 21.6096 30.8876L20.5554 31.6664L16.5591 32.2801L12.5549 32.8858L12.1616 32.5082C11.9492 32.2958 11.4693 31.7609 11.0995 31.3125C10.5725 30.6752 10.4388 30.4707 10.478 30.3291C10.5017 30.2032 10.2106 29.4323 9.54971 27.8746C8.51919 25.4674 8.36185 25.2078 8.01571 25.3886C7.61451 25.609 7.62237 25.6641 8.59 27.9297C9.31375 29.6132 9.48677 30.0852 9.41602 30.1717C9.24294 30.3684 7.90558 31.2259 7.22116 31.5721C6.85142 31.753 6.25354 32.0126 5.88381 32.1463C5.18365 32.3902 3.62602 32.76 3.09894 32.8071L2.79213 32.8308L2.52466 32.044C1.73011 29.6997 1.08503 26.1754 1.08503 24.1615C1.08503 23.6186 1.11649 23.5006 1.3289 23.1151C1.64357 22.5724 2.62693 21.589 3.61028 20.8573C4.68804 20.0472 6.70196 18.7885 6.78062 18.875C6.79636 18.8907 7.15823 19.4178 7.58304 20.0472C8.98334 22.116 9.79359 23.1151 10.0532 23.1151C10.1004 23.1151 10.4466 22.8241 10.8321 22.4622C11.5165 21.8172 12.2245 21.3688 12.6886 21.2743L12.9246 21.2271L13.7821 23.2489C14.5688 25.1291 14.852 25.6325 15.0959 25.6325C15.1352 25.6325 15.2532 25.5539 15.3477 25.4516C15.4814 25.3179 15.6544 24.7357 16.1029 22.9342C16.6378 20.7787 16.6929 20.5978 16.8501 20.5978C17.1413 20.6056 17.6369 20.881 18.2269 21.3766C18.5415 21.6362 18.8405 21.8565 18.8877 21.8565C18.927 21.8565 19.1001 21.7227 19.2575 21.5496C19.6429 21.1485 19.9655 20.3146 20.0205 19.5987L20.0678 19.0322L21.7276 19.8662C23.301 20.6528 23.4112 20.7236 23.773 21.1642C24.2607 21.7621 24.4652 21.8958 24.6777 21.7778C24.7642 21.7306 24.8744 21.6284 24.9216 21.5418C25.0317 21.3451 24.9609 21.2114 24.3787 20.5034L23.9382 19.9527L20.4925 18.2299C18.6045 17.2859 16.9997 16.507 16.9367 16.507C16.8501 16.507 16.8187 16.4205 16.8187 16.1923C16.8187 15.9564 16.7636 15.8226 16.6221 15.681C16.386 15.4371 16.3074 15.4371 16.0557 15.6888C15.8747 15.8698 15.859 15.9249 15.9061 16.326C15.9691 16.8295 16.0399 17.0026 16.3703 17.3488C16.5984 17.5926 16.6064 17.6163 16.5591 18.1984C16.5276 18.6783 16.449 18.9379 16.1972 19.4807C15.9849 19.9291 15.7567 20.6607 15.5207 21.6205C15.0093 23.6658 15.0015 23.6974 14.9385 23.6186C14.9071 23.5794 14.5845 22.8556 14.2227 22.0138C13.6563 20.6765 13.5304 20.4483 13.2472 20.2044C12.6257 19.6853 11.5322 18.5917 11.1546 18.1197C10.5488 17.3567 10.5252 17.278 10.5252 16.1531C10.5252 15.209 10.5174 15.1539 10.3286 14.973C10.1004 14.737 10.0453 14.7291 9.8094 14.9258ZM9.69139 17.3802C9.77003 17.7972 10.4151 18.6783 11.304 19.5908L12.1616 20.4877L11.5951 20.7787C11.2805 20.9439 10.8005 21.2743 10.5252 21.5182C10.0532 21.9509 10.0296 21.9588 9.91946 21.8093C9.64416 21.4474 8.31466 19.5594 7.93705 19.0008L7.52797 18.395L7.93705 18.1354C9.00694 17.4747 9.54971 17.1522 9.58908 17.1442C9.6206 17.1363 9.65987 17.2465 9.69139 17.3802ZM19.1473 18.7569C19.2338 19.0952 19.1316 19.9133 18.9507 20.3146L18.7854 20.6922L18.4944 20.4405C18.337 20.2989 17.9673 20.0707 17.6841 19.9448C17.4008 19.8111 17.1648 19.701 17.1491 19.6931C17.1334 19.6774 17.1963 19.4098 17.2828 19.0952C17.3773 18.7726 17.4638 18.3479 17.4874 18.1433L17.5346 17.7657L18.3134 18.1591C18.9349 18.4738 19.1079 18.5917 19.1473 18.7569ZM22.1682 25.4752V26.5766H20.4374H18.7068V25.4752V24.3738H20.4374H22.1682V25.4752ZM37.9019 25.4752V26.5766H30.507H23.1122V25.4752V24.3738H30.507H37.9019V25.4752ZM26.5736 30.8247C26.5736 31.0528 26.314 31.1866 25.3936 31.4147C24.4652 31.6507 24.1585 31.8395 23.9461 32.3036C23.6708 32.9094 24.009 33.5938 24.6462 33.7354C24.8193 33.7748 26.0308 33.8141 27.3445 33.8141H29.7203V34.0816C29.7203 34.3963 29.445 34.7739 29.1146 34.9076C28.9887 34.9547 28.2964 35.0806 27.5727 35.1908C25.8892 35.4425 24.4417 35.4582 23.4898 35.2301C23.1279 35.1435 22.5064 35.0413 22.0974 34.9941L21.3579 34.9076L19.9733 35.3953C17.1963 36.363 13.9237 37.425 13.082 37.6374C12.4762 37.7868 12.0042 37.8577 11.5007 37.8577C10.8399 37.8655 10.7534 37.8497 10.2892 37.598C9.60479 37.244 8.9912 36.7956 7.96065 35.9146C6.88289 34.9784 5.28592 33.3499 5.38033 33.2713C5.41966 33.2398 5.75006 33.1139 6.11981 32.9959C7.02449 32.697 8.08652 32.1699 8.9912 31.5721L9.73851 31.0764L10.4466 31.926C11.2805 32.9251 12.0908 33.696 12.3504 33.7511C12.5785 33.7905 20.815 32.5397 20.9881 32.4373C21.0511 32.3981 21.5702 32.0283 22.1288 31.6113C22.6952 31.1945 23.2224 30.809 23.3089 30.7618C23.4112 30.7067 24.0011 30.6752 25.0238 30.6673C26.5185 30.6673 26.5736 30.6752 26.5736 30.8247ZM37.9019 31.7687V32.87H31.3409C27.2108 32.87 24.7564 32.8386 24.7249 32.7914C24.6148 32.6183 25.0159 32.4138 25.8656 32.2014C27.022 31.9182 27.2973 31.6901 27.4704 30.8798L27.5176 30.6673H32.7097H37.9019V31.7687Z" fill="#393F4D" stroke="#393F4D" stroke-width="0.3"/>
<path d="M4.04503 35.5134C3.94277 35.6156 3.91916 35.8752 3.91916 37.1182C3.91916 38.7466 3.94277 38.8489 4.39117 38.8489C4.83172 38.8489 4.86318 38.7466 4.86318 37.1889C4.86318 35.7887 4.86318 35.773 4.66652 35.5842C4.44624 35.356 4.2181 35.3324 4.04503 35.5134Z" fill="#393F4D" stroke="#393F4D" stroke-width="0.3"/>
<path d="M21.7377 36.8429C21.5567 37.0158 21.5409 37.0867 21.5409 37.8183C21.5409 38.6915 21.6118 38.8489 22.013 38.8489C22.422 38.8489 22.485 38.6915 22.485 37.7475C22.485 37.0788 22.4614 36.8664 22.3591 36.7721C22.186 36.5911 21.9579 36.6147 21.7377 36.8429Z" fill="#393F4D" stroke="#393F4D" stroke-width="0.3"/>
<path d="M14.9981 4.80006C13.5002 4.99545 12.4369 5.57231 11.1701 6.8749L10.7633 7.30289H12.631H14.4988L15.0998 6.74464C15.858 6.06543 16.4682 5.70257 17.3559 5.43275C17.9475 5.25597 18.0123 5.21875 17.8367 5.14432C17.5593 5.04197 15.8395 4.69771 15.6823 4.70702C15.6175 4.71632 15.3032 4.75354 14.9981 4.80006Z" fill="#FF008A"/>
<path d="M18.7088 25.4752V26.5766H20.4395H22.1701V25.4752V24.3739H20.4395H18.7088V25.4752Z" fill="#FF008A"/>
<path d="M27.52 30.8798C27.52 31.1866 27.2132 31.6901 26.9143 31.8946C26.7727 31.9889 26.2692 32.162 25.7972 32.2801C24.9554 32.4846 24.6958 32.6183 24.806 32.7914C24.8374 32.8465 26.9301 32.87 31.3826 32.87H37.9043V31.7687V30.6674H34.9699H32.0356L31.8547 30.9112C31.3275 31.6193 30.36 31.635 29.8251 30.9349L29.6283 30.6674H28.5742H27.52V30.8798Z" fill="#FF008A"/>
</g>
</svg>
