<svg width="40" height="40" viewBox="0 0 40 40" fill="none" xmlns="http://www.w3.org/2000/svg">
<mask id="mask0_3_953" style="mask-type:luminance" maskUnits="userSpaceOnUse" x="0" y="0" width="40" height="40">
<path d="M40 0H0V40H40V0Z" fill="white"/>
</mask>
<g mask="url(#mask0_3_953)">
<path d="M11.4292 35.5777L14.0007 32L16.5721 36.7702L15.4292 38.8572H12.2864L11.4292 35.5777Z" fill="#FF008A"/>
<path d="M15.4297 6.28577H22.8583V9.71431H18.8583C16.9648 9.71431 15.4297 8.17931 15.4297 6.28577Z" fill="#FF008A"/>
<path d="M31.4292 28.8571C31.4292 28.3999 32.7625 27.3332 33.4292 26.8571L34.0007 36.2856H31.4292V28.8571Z" fill="#FF008A"/>
<path d="M19.1415 21.7142H11.9985L14.57 19.7142H19.1415V21.7142Z" fill="#FF008A"/>
<path d="M39.9811 4.54981C39.8967 4.21656 39.6777 4.01551 39.3278 4.01885C38.9777 4.02106 38.7588 4.22323 38.6822 4.5587C38.6522 4.69199 38.6666 4.83528 38.6655 4.97413V11.9866H37.3321V10.8081C37.3321 8.79527 37.3343 6.78252 37.3298 4.76864C37.3288 4.30876 37.0643 4.01885 36.6732 4.0144C36.2798 4.00885 36.0143 4.29766 35.9998 4.75308C35.9943 4.94081 35.9987 5.12965 35.9987 5.31293H34.6408C34.1408 1.96053 31.4618 0.124369 28.9149 0.00995672C27.4715 -0.0544699 26.1181 0.169912 24.9314 1.04522C23.4924 2.10716 22.7746 3.56675 22.649 5.34403H22.3213C20.4733 5.34403 18.6266 5.34736 16.7798 5.34292C15.9143 5.3407 15.0942 5.52065 14.3519 5.96719C12.7518 6.93136 11.9796 8.36761 12.0017 10.2271C12.0063 10.577 11.9618 10.8036 11.6018 11.0169C10.3262 11.7767 10.3606 13.5918 11.6284 14.3715C11.7484 14.4459 11.8684 14.5182 12.0873 14.6525H9.32833C9.32833 14.4026 9.33608 14.1704 9.32717 13.9383C9.285 12.8553 8.39717 12.0044 7.31819 12.0099C6.24258 12.0155 5.34697 12.8742 5.33697 13.9605C5.31918 15.7656 5.3203 17.5706 5.33586 19.3757C5.34586 20.4654 6.23257 21.3274 7.30708 21.3384C8.40158 21.3484 9.29383 20.4854 9.32833 19.379C9.335 19.1502 9.32942 18.9203 9.32942 18.7125H12.0684C11.8496 18.8414 11.7163 18.9125 11.5907 18.9936C10.375 19.7778 10.3328 21.5651 11.5695 22.3038C12.0518 22.5914 12.0184 22.9014 11.9729 23.339H11.4528C7.91044 23.339 4.36913 23.3379 0.827827 23.3401C0.302242 23.3401 -0.00110813 23.5912 3.04205e-06 24.0078C0.00111422 24.4121 0.298908 24.6698 0.791158 24.6709C4.70693 24.6731 8.62383 24.6731 12.5396 24.6698C13.0829 24.6698 13.3218 24.4232 13.3297 23.8778C13.3352 23.4824 13.3308 23.0858 13.3308 22.6825H17.3298C17.3298 23.5868 17.3388 24.4576 17.3288 25.3284C17.3054 27.2024 15.8653 28.6431 13.993 28.6687C13.3407 28.6775 12.6873 28.6631 12.0351 28.6754C11.6095 28.6831 11.3317 28.9619 11.334 29.3407C11.3362 29.7195 11.6162 29.9949 12.0429 29.9994C12.8074 30.0083 13.573 30.0305 14.3342 29.9849C16.4743 29.8572 18.3077 28.2054 18.5743 26.0749C18.7066 25.0208 18.6466 23.9422 18.6599 22.8747C18.6622 22.6604 18.7088 22.5359 18.9188 22.4259C19.6155 22.0616 19.9889 21.4629 19.9911 20.6764C19.9923 19.8911 19.6233 19.2857 18.9244 18.9259C18.6877 18.8036 18.6599 18.6581 18.661 18.437C18.6677 17.2852 18.671 16.1321 18.6599 14.9803C18.6566 14.7081 18.7033 14.537 18.9822 14.3959C19.5 14.1338 19.8423 13.6839 19.9311 13.1019C19.9833 12.7564 19.9411 12.3954 19.9411 12.0033C20.1989 12.0033 20.4622 12.0222 20.7222 11.9989C21.0845 11.9666 21.3478 11.6679 21.3245 11.3246C21.3012 10.958 21.0901 10.7414 20.7289 10.6837C20.6067 10.6648 20.4789 10.6759 20.3545 10.6759H13.3741C13.0729 8.42869 14.5808 6.68366 16.7932 6.67811C18.6122 6.67255 20.4323 6.677 22.2513 6.677H22.6646C22.6646 8.87752 22.6579 11.0147 22.6713 13.1519C22.6735 13.4729 22.5923 13.6562 22.2968 13.835C21.1223 14.5481 20.5623 15.6334 20.7 16.9908C20.8445 18.4182 21.6457 19.399 23.0258 19.84C23.4135 19.9644 23.8424 19.9822 24.2547 19.9999C24.8303 20.0255 25.4081 20.0066 25.9981 20.0066C25.9981 20.7931 26.0059 21.5151 25.9903 22.236C25.9881 22.3559 25.9103 22.4937 25.8281 22.5904C25.1625 23.379 25.1625 24.2965 25.8293 25.0841C25.9103 25.1808 25.9814 25.3163 25.9914 25.4384C26.047 26.1316 25.6481 26.637 25.0458 26.667C24.4258 26.6992 24.0003 26.2249 23.9991 25.4929C23.9958 24.3132 24.0036 23.1324 23.9936 21.9528C23.9902 21.524 23.7136 21.2529 23.3302 21.2529C22.9458 21.254 22.6713 21.5251 22.669 21.9549C22.6613 23.2457 22.6413 24.5376 22.6768 25.8284C22.7079 26.958 23.648 27.8934 24.7781 27.9966C25.9114 28.0999 26.9748 27.3479 27.246 26.2504C27.2793 26.1183 27.3104 25.9861 27.3482 25.825C27.7771 25.9683 28.176 26.1283 28.5883 26.2315C28.8694 26.3015 28.9105 26.4537 28.9205 26.7048C29.0249 29.3951 29.1272 32.0866 29.2583 34.7769C29.3105 35.8311 29.8483 36.6176 30.8018 37.0774C32.6096 37.9472 34.6553 36.6309 34.6619 34.587C34.673 30.6714 34.6653 26.7569 34.6653 22.8414C34.6653 22.7581 34.6719 22.6725 34.6563 22.5926C34.5853 22.2349 34.3686 22.0161 34.0008 22.0149C33.6318 22.0139 33.4085 22.2283 33.343 22.5881C33.3185 22.7225 33.3318 22.8647 33.3318 23.0036V30.7092C33.3318 32.0144 33.3408 33.3196 33.3285 34.6237C33.3197 35.4868 32.6473 36.0822 31.8018 36.0055C31.1128 35.9422 30.6117 35.3668 30.5806 34.6059C30.465 31.7767 30.3495 28.9464 30.2339 26.1172C30.2073 25.4707 30.115 25.3463 29.4894 25.1352C28.7283 24.8775 27.9671 24.6187 27.2015 24.3709C26.8848 24.2688 26.6093 24.131 26.6803 23.7444C26.7459 23.3857 27.0338 23.3313 27.3538 23.3368C27.9638 23.3457 28.5749 23.3401 29.1861 23.339C29.905 23.3379 30.1139 23.1302 30.0939 22.4259C30.0673 21.4684 30.0317 20.5109 30.0028 19.5534C29.9828 18.8747 29.7783 18.6748 29.0872 18.6737C27.4348 18.6725 25.7814 18.6848 24.1291 18.6648C23.7924 18.6604 23.4313 18.5926 23.1258 18.457C22.2957 18.0883 21.849 17.1485 22.0368 16.2832C22.2435 15.3346 23.0224 14.6804 23.9991 14.6781C27.0271 14.6704 30.055 14.6748 33.0829 14.677C33.1596 14.677 33.2374 14.6992 33.3318 14.7148V17.1485C33.3318 18.0916 33.3252 19.0358 33.3363 19.9799C33.3418 20.3988 33.6374 20.6798 34.0141 20.6698C34.3753 20.6609 34.6363 20.3876 34.663 19.9899C34.6697 19.8789 34.6653 19.7678 34.6653 19.6567V12.0089H35.9987C35.9987 12.1833 35.9976 12.3065 35.9987 12.4299C36.0031 13.1374 36.2076 13.3407 36.9198 13.3418C37.6421 13.3429 38.3643 13.3429 39.0866 13.3418C39.7911 13.3407 39.9989 13.1319 39.9989 12.4199C39.9989 9.92052 39.9989 7.42234 39.9977 4.92304C39.9977 4.79863 40.01 4.66866 39.9811 4.54981ZM7.996 19.2124C7.99489 19.7023 7.73488 20.0022 7.33263 20.0033C6.92928 20.0044 6.66815 19.7056 6.66482 19.2169C6.66038 18.3559 6.66371 17.4951 6.66371 16.6342C6.66371 15.8011 6.66038 14.968 6.66482 14.1349C6.66815 13.6439 6.92373 13.3463 7.32819 13.3451C7.73154 13.3429 7.99489 13.6417 7.996 14.1316C7.99933 15.8244 7.99933 17.5184 7.996 19.2124ZM11.974 17.3219H9.36167V16.0344H11.974V17.3219ZM18.0199 12.0166C18.391 12.0189 18.6599 12.3099 18.6577 12.6554C18.6566 13.0253 18.4533 13.2496 18.0999 13.3307C17.4254 13.4862 17.331 13.5962 17.331 14.2782V18.6737C16.6953 18.6737 16.102 18.6714 15.5087 18.6748C14.9775 18.677 14.6753 18.9136 14.6675 19.3279C14.6597 19.7544 14.9719 20.0044 15.5264 20.0055C16.3032 20.0078 17.0798 20.0033 17.8577 20.0078C18.3533 20.0099 18.651 20.2565 18.661 20.6575C18.671 21.0719 18.361 21.3374 17.8466 21.3384C16.1676 21.3418 14.4875 21.3407 12.8085 21.3384C12.3273 21.3374 12.0407 21.1164 12.0029 20.7342C11.9663 20.3532 12.214 20.0866 12.684 20.0055C13.1463 19.9255 13.3285 19.7034 13.3297 19.1946C13.333 17.7106 13.3308 16.2265 13.3308 14.6748H14.8198C14.9864 14.6748 15.1531 14.6825 15.3197 14.6714C15.7164 14.6459 15.9876 14.3804 15.9943 14.0194C16.0009 13.6417 15.722 13.3529 15.3008 13.3463C14.4675 13.334 13.6352 13.3507 12.8029 13.3351C12.6185 13.3318 12.3607 13.2996 12.2707 13.1796C12.1307 12.993 11.9918 12.6787 12.0596 12.4954C12.1351 12.2899 12.4396 12.0366 12.6496 12.0322C14.4386 11.9955 16.2298 12.0055 18.0199 12.0166ZM27.3571 20.0266H28.6949V21.9749H27.3571V20.0266ZM33.0241 4.35875C33.1041 4.66422 33.1997 4.96525 33.3052 5.32626H28.6872V4.03551C28.7949 4.02773 28.9138 4.01218 29.0316 4.01218C30.1961 4.00996 31.3607 4.02329 32.524 4.00329C32.8152 3.99774 32.9541 4.09438 33.0241 4.35875ZM25.9981 6.73031V13.3185H24.0224C24.0147 13.2108 23.9991 13.093 23.9991 12.9741C23.998 10.4904 23.9913 8.00774 24.0003 5.52398C24.0091 3.40791 25.4114 1.70948 27.496 1.40179C29.0828 1.16741 30.5939 1.41735 31.8596 2.64145C31.7284 2.657 31.6318 2.677 31.534 2.677C30.4106 2.67921 29.2861 2.67588 28.1616 2.67921C27.5648 2.68144 27.336 2.9136 27.3327 3.51231C27.3293 4.1066 27.3315 4.70087 27.3315 5.32071C25.9981 5.41512 25.9981 5.41512 25.9981 6.73031ZM28.6338 13.3251H27.3548V12.0289H28.6338V13.3251ZM33.2985 13.3129H30.0173V11.3646H33.2985V13.3129ZM35.9709 10.6525H34.6942C34.4819 10.0983 34.3575 10.0105 33.7708 10.0094C32.3685 10.0083 30.9673 10.0083 29.565 10.0094C28.9738 10.0105 28.8449 10.0994 28.636 10.6548H27.3548C27.346 10.5837 27.3337 10.5314 27.3337 10.4793C27.3327 9.23186 27.3327 7.98441 27.3327 6.70699H35.9709V10.6525Z" fill="#393F4D"/>
<path d="M17.0555 35.3146C16.5099 33.8584 15.5566 32.6654 14.4898 31.5612C14.1609 31.2214 13.7586 31.2302 13.442 31.6312C12.7052 32.5643 11.9786 33.5096 11.3186 34.4971C10.8941 35.1336 10.6841 35.8801 10.6641 36.511C10.6641 38.4549 12.0996 39.9456 13.8765 39.9978C16.3366 40.07 17.9522 37.7051 17.0555 35.3146ZM14.0098 38.6671C12.7308 38.6748 11.7607 37.4918 12.0519 36.2466C12.3497 34.9759 13.162 34.0039 13.9942 32.9797C14.7898 33.9273 15.5132 34.8448 15.8743 35.9778C16.311 37.3463 15.3876 38.6593 14.0098 38.6671Z" fill="#393F4D"/>
<path d="M9.99392 29.3352C9.995 29.7495 9.68833 30.0027 9.16492 30.0027C6.38813 30.005 3.6102 30.005 0.832272 30.0027C0.305576 30.0027 0.00111422 29.7551 3.04205e-06 29.3397C-0.00110813 28.9231 0.302242 28.6732 0.827827 28.6721C2.23012 28.6698 3.63354 28.6709 5.03584 28.6709C6.41036 28.6709 7.78599 28.6698 9.1605 28.6721C9.68717 28.6732 9.99167 28.9197 9.99392 29.3352Z" fill="#393F4D"/>
<path d="M31.9943 16.6655C31.9999 17.0809 31.6921 17.3386 31.1721 17.3397C30.1031 17.343 29.0331 17.3409 27.9641 17.3409C26.9229 17.3409 25.8806 17.343 24.8395 17.3397C24.3095 17.3386 24.0061 17.0975 24.0006 16.6821C23.995 16.2656 24.3006 16.0089 24.8217 16.0089C26.9329 16.0068 29.0441 16.0068 31.1542 16.0089C31.6843 16.0089 31.9876 16.2511 31.9943 16.6655Z" fill="#393F4D"/>
</g>
</svg>
