<svg width="39" height="39" viewBox="0 0 39 39" fill="none" xmlns="http://www.w3.org/2000/svg">
<mask id="mask0_3_841" style="mask-type:luminance" maskUnits="userSpaceOnUse" x="-1" y="-1" width="41" height="41">
<path d="M39.5927 -0.596601H-0.632446V39.6285H39.5927V-0.596601Z" fill="white"/>
</mask>
<g mask="url(#mask0_3_841)">
<path d="M11.0737 36.7216L27.2187 37.3894L27.8079 38.2929H11.0737V36.7216Z" fill="#FF008A"/>
<path d="M21.2086 13.4665H18.2292L17.6731 16.7661L21.2086 16.5187V13.4665Z" fill="#FF008A"/>
<path d="M38.3356 3.72446H30.1649V5.06005H38.3356V3.72446Z" fill="#FF008A"/>
<path d="M1.09598 28.0009H15.0805C16.3388 28.0009 17.3588 29.0211 17.3588 30.2793H1.09598V28.0009Z" fill="#FF008A"/>
<path d="M17.4534 0.024047C16.3691 0.0790418 16.3456 0.0868988 16.3299 0.660424C16.3299 0.856834 16.2984 1.1868 16.2749 1.39893C16.2199 1.76818 16.2042 1.78389 15.8428 1.92531L15.4578 2.07459L14.9785 1.64248C14.1929 0.92754 14.0279 0.951111 13.0537 1.87817L12.3466 2.54598H7.12995C1.24544 2.54598 1.48114 2.5224 0.789774 3.14307C0.577646 3.33948 0.318385 3.66159 0.216251 3.86586L0.0355526 4.23511L0.0119827 16.8369C-0.0115862 31.2535 -0.0744379 29.9887 0.695496 30.7586C1.434 31.4971 1.04903 31.4578 7.90774 31.4578H13.8237V32.7148V33.9718H13.2108C12.4174 33.9718 11.9616 34.1289 11.4667 34.5768C10.7675 35.2054 10.7282 35.3389 10.6968 37.1616C10.6654 38.7407 10.6654 38.7486 10.8461 38.8743C11.011 38.9843 11.8202 39 19.4803 39C27.1404 39 27.9496 38.9843 28.1145 38.8743C28.2952 38.7486 28.2952 38.7407 28.2639 37.1616C28.2324 35.3389 28.1932 35.2054 27.494 34.5768C26.999 34.1289 26.5432 33.9718 25.7498 33.9718H25.137V32.7148V31.4578H31.0922C37.8017 31.4578 37.4794 31.4892 38.1708 30.8606C38.383 30.6642 38.6423 30.3421 38.7444 30.1379L38.925 29.7686L38.9487 17.1669C38.9722 2.7581 39.0272 4.01513 38.273 3.25305C37.5266 2.50669 37.8566 2.54598 31.8149 2.54598H26.5826L26.0797 2.02745C25.4355 1.37536 24.9877 1.10039 24.6735 1.17109C24.5478 1.19466 24.2335 1.41465 23.9663 1.65819L23.4793 2.0903L23.11 1.93317L22.7408 1.77604L22.6779 1.11609C22.5836 0.196889 22.5679 0.134038 22.3715 0.0868988C22.0729 0.01619 18.4904 -0.0309488 17.4534 0.024047ZM21.3659 1.94102C21.3659 2.3417 21.4052 2.64811 21.468 2.72667C21.6016 2.90737 23.2199 3.58303 23.6207 3.62231C23.9271 3.66159 23.9821 3.63802 24.3749 3.26091L24.7913 2.86809L26.0641 4.14083L27.3446 5.42144L27.1011 5.64927C26.7083 6.02638 26.5276 6.36422 26.5747 6.6549C26.6297 7.03201 27.3133 8.61902 27.4703 8.72901C27.5489 8.79186 27.8553 8.83115 28.256 8.83115H28.9081V10.7167V12.6023H28.256C27.8553 12.6023 27.5489 12.6416 27.4703 12.6965C27.2975 12.838 26.614 14.4485 26.5747 14.8414C26.5432 15.132 26.5747 15.1949 26.9361 15.5877L27.3289 16.0198L26.0562 17.2926L24.7913 18.5653L24.3749 18.1725C23.9821 17.7954 23.9271 17.7718 23.6207 17.8111C23.2121 17.8503 21.5937 18.526 21.468 18.7067C21.4052 18.7853 21.3659 19.0917 21.3659 19.4924V20.1445H19.4803H17.5948V19.4924C17.5948 19.0917 17.5554 18.7853 17.5004 18.7067C17.359 18.526 15.7406 17.8503 15.3399 17.8111C15.0335 17.7718 14.9785 17.7954 14.5857 18.1725L14.1693 18.5653L12.8966 17.2926L11.616 16.0119L11.8596 15.7842C12.2524 15.4071 12.4331 15.0692 12.3859 14.7785C12.3309 14.4014 11.6474 12.8143 11.4903 12.6965C11.4118 12.6416 11.1053 12.6023 10.7046 12.6023H10.0526V10.7167V8.83115H10.7046C11.1053 8.83115 11.4118 8.79186 11.4903 8.72901C11.6632 8.59545 12.3466 6.98488 12.3859 6.59205C12.4174 6.30136 12.3859 6.23851 12.0245 5.84569L11.6317 5.41359L12.9044 4.14083L14.1693 2.86809L14.5857 3.26091C14.9785 3.63802 15.0335 3.66159 15.3399 3.62231C15.7485 3.58303 17.3669 2.90737 17.5004 2.72667C17.5554 2.64811 17.5948 2.3417 17.5948 1.94102V1.28894H19.4803H21.3659V1.94102ZM10.5239 4.40796C9.72261 5.28788 9.70682 5.44501 10.414 6.2228L10.8539 6.71775L10.6968 7.08701L10.5397 7.45627L9.87969 7.51912C8.88194 7.62125 8.8898 7.6134 8.82694 7.95123C8.74837 8.32834 8.74837 13.1051 8.82694 13.4822C8.8898 13.82 8.88194 13.82 9.88753 13.9143L10.5397 13.9772L10.6889 14.3543L10.8381 14.7392L10.4061 15.2185C9.94254 15.7292 9.84831 15.9334 9.92685 16.2633C9.9897 16.4991 13.2423 19.783 13.7451 20.113C14.1536 20.388 14.3736 20.3252 14.9864 19.783L15.4813 19.3431L15.8506 19.4924L16.2199 19.6417L16.2592 20.3566C16.322 21.4879 16.0548 21.4015 19.4882 21.4015C22.7564 21.4015 22.6151 21.4329 22.6307 20.7887C22.6307 20.5844 22.6622 20.2466 22.6858 20.0345C22.7408 19.6652 22.7564 19.6495 23.1257 19.5003L23.5107 19.3509L23.8328 19.6573C24.7363 20.5137 24.8306 20.5137 25.8127 19.6181C26.229 19.2489 27.1247 18.3453 27.8161 17.6147C29.3402 15.9884 29.3324 16.0198 28.4524 15.1006L28.0988 14.7314L28.2639 14.3543L28.421 13.9772L29.0809 13.9143C30.0787 13.8121 30.0709 13.82 30.1337 13.4822C30.2123 13.1051 30.2123 8.32834 30.1337 7.95123C30.0709 7.6134 30.0787 7.6134 29.0731 7.51912L28.421 7.45627L28.2717 7.07916L28.1225 6.69419L28.5545 6.21494C29.2459 5.45286 29.238 5.28788 28.4367 4.41581L27.8789 3.81087L31.9878 3.85015C34.2505 3.87372 36.2853 3.90514 36.5131 3.92872C37.016 3.9837 37.3302 4.2194 37.5109 4.69079C37.6209 4.98933 37.6288 6.17566 37.6131 17.1747C37.5895 29.2893 37.5895 29.3287 37.4245 29.5487C37.3381 29.6665 37.0945 29.855 36.8902 29.9572L36.5131 30.1457H19.6139C10.3118 30.1457 2.54962 30.1144 2.36107 30.0829C2.11751 30.0436 1.93681 29.9415 1.7247 29.7293C1.434 29.4387 1.42615 29.415 1.37115 28.7001C1.34759 28.2917 1.33187 22.7292 1.34759 16.334C1.36329 7.14986 1.39472 4.66722 1.47329 4.53366C1.52828 4.43938 1.70112 4.25868 1.85825 4.14083L2.14109 3.92085L5.33081 3.88157C7.0828 3.858 9.10192 3.82657 9.80115 3.81872L11.0896 3.80301L10.5239 4.40796ZM23.8799 32.7148V33.9718H19.4803H15.0807V32.7148V31.4578H19.4803H23.8799V32.7148ZM26.0954 35.386C26.6533 35.5431 26.8811 35.9988 26.9832 37.1301L27.0382 37.743H19.4803H11.9224L11.9774 37.1301C12.0717 36.0224 12.2445 35.6532 12.763 35.4174C12.9516 35.3311 14.2401 35.3153 19.4018 35.3074C23.5342 35.3074 25.9069 35.3389 26.0954 35.386Z" fill="#393F4D"/>
<path d="M17.6495 3.96008C16.361 4.33719 15.3162 4.98143 14.3969 5.94777C13.6977 6.69414 13.2027 7.51121 12.8492 8.50113C12.6135 9.17678 12.6057 9.20035 12.6057 10.7167C12.6135 12.1701 12.6214 12.2801 12.8256 12.8772C13.1714 13.9143 13.6899 14.747 14.4913 15.5563C14.8841 15.9412 15.4104 16.4047 15.6697 16.5697C16.2982 16.9782 17.2253 17.3711 17.8853 17.5125C18.5766 17.6617 20.3757 17.6617 21.0592 17.5203C23.204 17.0647 25.1367 15.3834 25.9931 13.2307C26.3544 12.3193 26.4173 11.8244 26.3781 10.3867C26.3388 9.1925 26.3152 9.05893 26.0874 8.43041C25.3174 6.3406 23.7305 4.77716 21.6406 4.07008C21.0671 3.87366 20.8942 3.8501 19.5979 3.82653C18.3644 3.81081 18.113 3.82653 17.6495 3.96008ZM20.855 5.33497C21.1142 5.39782 21.6249 5.60208 21.9941 5.78278C22.5205 6.04205 22.7877 6.23847 23.3297 6.78056C24.359 7.82547 24.8382 8.7761 24.9717 10.0803C25.1603 11.8794 24.5396 13.5528 23.2355 14.7627C22.6934 15.2655 22.1749 15.6348 22.1042 15.5641C22.0727 15.5406 22.0335 15.2892 22.0177 15.0141L21.9706 14.5035L22.5126 13.9613C23.4633 13.0107 23.9032 11.9422 23.9032 10.5988C23.9032 9.69535 23.7697 9.1375 23.3534 8.344C22.662 7.01625 20.8471 5.90849 20.25 6.45058C20.1243 6.56843 20.1086 6.73341 20.1086 8.43828V10.2924L19.7943 10.5988L19.4801 10.9052L19.1658 10.5988L18.8516 10.2924V8.44613C18.8516 6.32488 18.8516 6.31702 18.2309 6.31702C17.3745 6.32488 16.1018 7.34623 15.5283 8.47756C15.1905 9.16107 15.0569 9.75026 15.0569 10.5988C15.049 11.9344 15.4969 13.0107 16.4475 13.9613L16.9895 14.5035L16.9425 15.0141C16.9267 15.2892 16.8875 15.5406 16.856 15.5641C16.7068 15.7212 15.3712 14.5191 14.8919 13.7964C14.2241 12.7671 13.9648 11.9344 13.9648 10.7559C13.957 9.82105 14.0748 9.20035 14.3734 8.54826C15.0569 7.03197 16.306 5.90849 17.8695 5.40567C18.553 5.17784 20.1086 5.14641 20.855 5.33497ZM22.2062 9.27106C22.4734 9.8289 22.4813 9.84459 22.4498 10.6852C22.4184 11.8008 22.222 12.2094 21.3499 13.0343L20.7371 13.6078V14.8727C20.7371 16.1062 20.7371 16.1298 20.5642 16.1848C20.3365 16.2555 18.4273 16.2555 18.3094 16.1848C18.2544 16.1454 18.223 15.7055 18.223 14.8727V13.6078L17.5945 13.0265C16.9032 12.3665 16.6517 11.9344 16.4867 11.1173C16.3218 10.2452 16.6753 9.05893 17.2724 8.48541L17.4924 8.27328L17.5395 9.16107C17.571 9.64819 17.5945 10.3002 17.5945 10.6145V11.1723L18.3487 11.8872C19.0873 12.5865 19.1108 12.6022 19.4879 12.6022C19.8572 12.6022 19.8807 12.5865 20.6193 11.8872L21.3656 11.1723V9.67172V8.17115L21.6484 8.44613C21.7977 8.58754 22.0492 8.96465 22.2062 9.27106Z" fill="#393F4D"/>
<path d="M2.63585 5.2329C2.52585 5.39002 2.51014 6.52135 2.51014 15.7449C2.51014 24.5519 2.52585 26.1075 2.62014 26.2411C2.73012 26.3903 2.98938 26.3903 19.4801 26.3903C35.9708 26.3903 36.2301 26.3903 36.3401 26.2411C36.4344 26.1075 36.4501 24.5519 36.4501 15.7292C36.4501 5.47645 36.4501 5.37432 36.293 5.21719C36.1437 5.06791 36.0337 5.06006 33.1504 5.06006H30.1649V5.68857V6.31709H32.679H35.1931V15.7449V25.1726H19.4801H3.76718V15.7449V6.31709H6.28125H8.79532V5.68857V5.06006H5.77843H2.75369L2.63585 5.2329Z" fill="#393F4D"/>
<path d="M14.452 23.2871V23.9156H18.2231H21.9942V23.2871V22.6585H18.2231H14.452V23.2871Z" fill="#393F4D"/>
<path d="M23.2512 23.2871V23.9156H23.8797H24.5083V23.2871V22.6585H23.8797H23.2512V23.2871Z" fill="#393F4D"/>
<path d="M30.1649 28.3152V28.9437H30.7934H31.4219V28.3152V27.6867H30.7934H30.1649V28.3152Z" fill="#393F4D"/>
<path d="M32.679 28.3152V28.9437H33.3075H33.936V28.3152V27.6867H33.3075H32.679V28.3152Z" fill="#393F4D"/>
<path d="M35.1931 28.3152V28.9437H35.8216H36.4501V28.3152V27.6867H35.8216H35.1931V28.3152Z" fill="#393F4D"/>
</g>
</svg>
