<svg width="112" height="32" viewBox="0 0 112 32" fill="none" xmlns="http://www.w3.org/2000/svg">
<g clip-path="url(#clip0_3_1605)">
<g clip-path="url(#clip1_3_1605)">
<g clip-path="url(#clip2_3_1605)">
<path d="M110.656 28.3103C110.656 30.0156 109.246 31.397 107.501 31.397H4.27561C2.53226 31.397 1.11719 30.0156 1.11719 28.3103V3.69518C1.11719 1.99067 2.53226 0.604492 4.27561 0.604492H107.501C109.246 0.604492 110.655 1.99067 110.655 3.69518L110.656 28.3103Z" fill="black"/>
<path d="M107.167 0.640999C109.066 0.640999 110.612 2.148 110.612 4V28C110.612 29.852 109.066 31.359 107.167 31.359H4.60256C2.70308 31.359 1.15744 29.852 1.15744 28V4C1.15744 2.148 2.70308 0.640999 4.60256 0.640999H107.167ZM107.167 0H4.60256C2.34718 0 0.5 1.801 0.5 4V28C0.5 30.199 2.34718 32 4.60256 32H107.167C109.422 32 111.269 30.199 111.269 28V4C111.269 1.801 109.422 0 107.167 0Z" fill="#A6A6A6"/>
<path d="M25.2206 15.8269C25.1968 13.2485 27.3859 11.9941 27.486 11.9357C26.2462 10.1733 24.3246 9.93257 23.6493 9.91337C22.0354 9.74777 20.4698 10.8549 19.6477 10.8549C18.8091 10.8549 17.543 9.92937 16.1785 9.95657C14.4226 9.98297 12.78 10.9741 11.879 12.5133C10.0198 15.6517 11.4064 20.2637 13.1878 22.8005C14.0788 24.0429 15.1201 25.4301 16.4829 25.3813C17.8163 25.3277 18.3143 24.5525 19.9234 24.5525C21.5176 24.5525 21.9853 25.3813 23.3752 25.3501C24.8062 25.3277 25.7071 24.1021 26.567 22.8485C27.5968 21.4245 28.0103 20.0221 28.0267 19.9501C27.9931 19.9389 25.2477 18.9173 25.2206 15.8269Z" fill="white"/>
<path d="M22.5951 8.24483C23.3123 7.37043 23.8029 6.18083 23.6667 4.97363C22.6288 5.01843 21.3307 5.67363 20.5832 6.52883C19.9219 7.28243 19.3311 8.51763 19.4838 9.67923C20.6497 9.76403 21.8468 9.10563 22.5951 8.24483Z" fill="white"/>
<path d="M40.7454 8.00696C40.7454 8.94856 40.4557 9.65736 39.8773 10.1334C39.3415 10.5726 38.58 10.7926 37.5938 10.7926C37.1048 10.7926 36.6863 10.7718 36.3359 10.7302V5.58536C36.793 5.51336 37.2853 5.47656 37.817 5.47656C38.7565 5.47656 39.4646 5.67576 39.9421 6.07416C40.4771 6.52456 40.7454 7.16856 40.7454 8.00696ZM39.8387 8.03016C39.8387 7.41976 39.673 6.95176 39.3415 6.62536C39.01 6.29976 38.5259 6.13656 37.8884 6.13656C37.6176 6.13656 37.387 6.15416 37.1958 6.19096V10.1022C37.3017 10.1182 37.4953 10.1254 37.7768 10.1254C38.4348 10.1254 38.9427 9.94696 39.3005 9.59016C39.6582 9.23336 39.8387 8.71336 39.8387 8.03016Z" fill="white"/>
<path d="M45.5539 8.82964C45.5539 9.40964 45.3841 9.88484 45.0444 10.2576C44.6883 10.6408 44.2165 10.832 43.6274 10.832C43.0596 10.832 42.6075 10.6488 42.2702 10.2808C41.9338 9.91364 41.7656 9.45044 41.7656 8.89204C41.7656 8.30804 41.9388 7.82884 42.2866 7.45684C42.6345 7.08484 43.1022 6.89844 43.6914 6.89844C44.2592 6.89844 44.7154 7.08164 45.0608 7.44884C45.389 7.80564 45.5539 8.26644 45.5539 8.82964ZM44.662 8.85684C44.662 8.50884 44.5849 8.21044 44.4315 7.96164C44.251 7.66084 43.9941 7.51044 43.6602 7.51044C43.3148 7.51044 43.0522 7.66084 42.8717 7.96164C42.7174 8.21044 42.6411 8.51364 42.6411 8.87204C42.6411 9.22004 42.7182 9.51844 42.8717 9.76724C43.0579 10.068 43.3172 10.2184 43.652 10.2184C43.9802 10.2184 44.2378 10.0656 44.4233 9.75924C44.5824 9.50564 44.662 9.20484 44.662 8.85684Z" fill="white"/>
<path d="M51.9986 6.97559L50.7884 10.7468H50.0007L49.4993 9.10919C49.3722 8.70039 49.2688 8.29399 49.1884 7.89079H49.1728C49.0981 8.30519 48.9947 8.71079 48.8618 9.10919L48.3293 10.7468H47.5326L46.3945 6.97559H47.2782L47.7156 8.76839C47.8214 9.19239 47.9084 9.59639 47.9781 9.97879H47.9937C48.0577 9.66359 48.1636 9.26199 48.3129 8.77639L48.8618 6.97639H49.5625L50.0885 8.73799C50.2157 9.16759 50.319 9.58119 50.3986 9.97959H50.4224C50.4807 9.59159 50.5685 9.17799 50.685 8.73799L51.1543 6.97639L51.9986 6.97559Z" fill="white"/>
<path d="M56.4568 10.7469H55.5969V8.58688C55.5969 7.92128 55.3376 7.58848 54.8174 7.58848C54.5622 7.58848 54.3562 7.67968 54.1962 7.86288C54.0379 8.04608 53.9575 8.26208 53.9575 8.50928V10.7461H53.0976V8.05328C53.0976 7.72208 53.0869 7.36288 53.0664 6.97408H53.8221L53.8623 7.56368H53.8861C53.9862 7.38048 54.1355 7.22928 54.3316 7.10848C54.5647 6.96768 54.8256 6.89648 55.1111 6.89648C55.4721 6.89648 55.7725 7.01008 56.0112 7.23808C56.3082 7.51728 56.4568 7.93408 56.4568 8.48768V10.7469Z" fill="white"/>
<path d="M58.8278 10.7467H57.9688V5.24512H58.8278V10.7467Z" fill="white"/>
<path d="M63.8899 8.82964C63.8899 9.40964 63.72 9.88484 63.3803 10.2576C63.0242 10.6408 62.5516 10.832 61.9633 10.832C61.3947 10.832 60.9426 10.6488 60.6062 10.2808C60.2698 9.91364 60.1016 9.45044 60.1016 8.89204C60.1016 8.30804 60.2747 7.82884 60.6226 7.45684C60.9705 7.08484 61.4382 6.89844 62.0265 6.89844C62.5951 6.89844 63.0505 7.08164 63.3967 7.44884C63.7249 7.80564 63.8899 8.26644 63.8899 8.82964ZM62.9972 8.85684C62.9972 8.50884 62.92 8.21044 62.7666 7.96164C62.5869 7.66084 62.3293 7.51044 61.9961 7.51044C61.6499 7.51044 61.3873 7.66084 61.2076 7.96164C61.0534 8.21044 60.9771 8.51364 60.9771 8.87204C60.9771 9.22004 61.0542 9.51844 61.2076 9.76724C61.3939 10.068 61.6532 10.2184 61.9879 10.2184C62.3161 10.2184 62.5729 10.0656 62.7584 9.75924C62.9184 9.50564 62.9972 9.20484 62.9972 8.85684Z" fill="white"/>
<path d="M68.0504 10.7464H67.2783L67.2143 10.312H67.1905C66.9263 10.6584 66.5497 10.832 66.0606 10.832C65.6955 10.832 65.4001 10.7176 65.1778 10.4904C64.9759 10.284 64.875 10.0272 64.875 9.72244C64.875 9.26164 65.0719 8.91044 65.4682 8.66724C65.8637 8.42404 66.42 8.30484 67.1363 8.31044V8.24004C67.1363 7.74324 66.8688 7.49524 66.3331 7.49524C65.9515 7.49524 65.6151 7.58884 65.3246 7.77444L65.1499 7.22404C65.5093 7.00724 65.9532 6.89844 66.4766 6.89844C67.4875 6.89844 67.9946 7.41844 67.9946 8.45844V9.84724C67.9946 10.224 68.0135 10.524 68.0504 10.7464ZM67.1577 9.45044V8.86884C66.2092 8.85284 65.7349 9.10644 65.7349 9.62884C65.7349 9.82564 65.7891 9.97284 65.8998 10.0712C66.0106 10.1696 66.1517 10.2184 66.3199 10.2184C66.5086 10.2184 66.6851 10.16 66.8459 10.044C67.0075 9.92724 67.1068 9.77924 67.1437 9.59764C67.1527 9.55684 67.1577 9.50724 67.1577 9.45044Z" fill="white"/>
<path d="M72.9384 10.7467H72.1753L72.1351 10.1411H72.1113C71.8676 10.6019 71.4524 10.8323 70.8691 10.8323C70.403 10.8323 70.0149 10.6539 69.7072 10.2971C69.3995 9.94032 69.2461 9.47712 69.2461 8.90832C69.2461 8.29792 69.4127 7.80352 69.7474 7.42592C70.0715 7.07392 70.4687 6.89792 70.9413 6.89792C71.4606 6.89792 71.8241 7.06832 72.0309 7.40992H72.0473V5.24512H72.908V9.73072C72.908 10.0979 72.9179 10.4363 72.9384 10.7467ZM72.0473 9.15632V8.52752C72.0473 8.41872 72.0391 8.33072 72.0235 8.26352C71.9751 8.06192 71.8709 7.89232 71.7125 7.75552C71.5525 7.61872 71.3597 7.54992 71.1374 7.54992C70.8165 7.54992 70.5655 7.67392 70.3809 7.92272C70.1979 8.17152 70.1052 8.48912 70.1052 8.87712C70.1052 9.24992 70.193 9.55232 70.3694 9.78512C70.5556 10.0331 70.8067 10.1571 71.121 10.1571C71.4032 10.1571 71.6289 10.0539 71.8003 9.84672C71.9661 9.65552 72.0473 9.42512 72.0473 9.15632Z" fill="white"/>
<path d="M80.2922 8.82964C80.2922 9.40964 80.1224 9.88484 79.7827 10.2576C79.4266 10.6408 78.9556 10.832 78.3657 10.832C77.7987 10.832 77.3466 10.6488 77.0085 10.2808C76.6721 9.91364 76.5039 9.45044 76.5039 8.89204C76.5039 8.30804 76.677 7.82884 77.0249 7.45684C77.3728 7.08484 77.8405 6.89844 78.4305 6.89844C78.9974 6.89844 79.4545 7.08164 79.7991 7.44884C80.1273 7.80564 80.2922 8.26644 80.2922 8.82964ZM79.4011 8.85684C79.4011 8.50884 79.324 8.21044 79.1706 7.96164C78.9892 7.66084 78.7332 7.51044 78.3985 7.51044C78.0539 7.51044 77.7913 7.66084 77.61 7.96164C77.4557 8.21044 77.3794 8.51364 77.3794 8.87204C77.3794 9.22004 77.4565 9.51844 77.61 9.76724C77.7962 10.068 78.0555 10.2184 78.3903 10.2184C78.7185 10.2184 78.9769 10.0656 79.1624 9.75924C79.3207 9.50564 79.4011 9.20484 79.4011 8.85684Z" fill="white"/>
<path d="M84.9169 10.7469H84.0578V8.58688C84.0578 7.92128 83.7985 7.58848 83.2775 7.58848C83.0223 7.58848 82.8164 7.67968 82.6572 7.86288C82.498 8.04608 82.4184 8.26208 82.4184 8.50928V10.7461H81.5577V8.05328C81.5577 7.72208 81.5479 7.36288 81.5273 6.97408H82.2822L82.3224 7.56368H82.3462C82.4471 7.38048 82.5965 7.22928 82.7918 7.10848C83.0256 6.96768 83.2857 6.89648 83.5721 6.89648C83.9323 6.89648 84.2326 7.01008 84.4713 7.23808C84.7692 7.51728 84.9169 7.93408 84.9169 8.48768V10.7469Z" fill="white"/>
<path d="M90.7033 7.60236H89.7565V9.43436C89.7565 9.89996 89.9247 10.1327 90.2578 10.1327C90.4121 10.1327 90.5401 10.1199 90.641 10.0935L90.6631 10.7295C90.4933 10.7919 90.2701 10.8231 89.9952 10.8231C89.6555 10.8231 89.3913 10.7223 89.2002 10.5207C89.0082 10.3191 88.913 9.97996 88.913 9.50396V7.60236H88.3477V6.97436H88.913V6.28316L89.7556 6.03516V6.97356H90.7025L90.7033 7.60236Z" fill="white"/>
<path d="M95.2537 10.7467H94.393V8.60272C94.393 7.92672 94.1337 7.58832 93.6143 7.58832C93.2156 7.58832 92.9432 7.78432 92.7938 8.17632C92.7684 8.25872 92.7536 8.35952 92.7536 8.47792V10.7459H91.8945V5.24512H92.7536V7.51792H92.77C93.0408 7.10432 93.4289 6.89792 93.9319 6.89792C94.288 6.89792 94.5825 7.01152 94.8164 7.23952C95.1077 7.52352 95.2537 7.94592 95.2537 8.50432V10.7467Z" fill="white"/>
<path d="M99.9505 8.68183C99.9505 8.83223 99.939 8.95863 99.9185 9.06183H97.3396C97.3511 9.43463 97.4742 9.71862 97.713 9.91542C97.9312 10.0914 98.2126 10.1794 98.5573 10.1794C98.9388 10.1794 99.2867 10.1202 99.6001 10.001L99.7347 10.5834C99.3679 10.7386 98.9363 10.8162 98.4366 10.8162C97.8377 10.8162 97.3659 10.6442 97.0245 10.3002C96.6816 9.95623 96.5117 9.49462 96.5117 8.91542C96.5117 8.34662 96.6701 7.87303 96.9893 7.49543C97.3224 7.09223 97.7729 6.89062 98.3415 6.89062C98.8978 6.89062 99.3203 7.09223 99.6059 7.49543C99.8364 7.81543 99.9505 8.21143 99.9505 8.68183ZM99.13 8.46503C99.1365 8.21623 99.0799 8.00182 98.9634 7.82102C98.8141 7.58822 98.5868 7.47143 98.2791 7.47143C97.9985 7.47143 97.7696 7.58503 97.5948 7.81302C97.452 7.99462 97.3675 8.21143 97.3396 8.46503H99.13Z" fill="white"/>
<path d="M44.5153 25.203H42.652L41.6312 22.0758H38.0833L37.111 25.203H35.2969L38.812 14.5566H40.983L44.5153 25.203ZM41.3235 20.7638L40.4005 17.9838C40.3028 17.6998 40.1198 17.031 39.8499 15.9782H39.8171C39.7096 16.431 39.5365 17.0998 39.2985 17.9838L38.3918 20.7638H41.3235Z" fill="white"/>
<path d="M53.555 21.2707C53.555 22.5763 53.1932 23.6083 52.4695 24.3659C51.8213 25.0403 51.0163 25.3771 50.0555 25.3771C49.0184 25.3771 48.2734 25.0139 47.8196 24.2875H47.7868V28.3315H46.0375V20.0539C46.0375 19.2331 46.0153 18.3907 45.9727 17.5267H47.5111L47.6088 18.7435H47.6416C48.225 17.8267 49.1103 17.3691 50.2984 17.3691C51.2272 17.3691 52.0026 17.7267 52.6229 18.4427C53.2449 19.1595 53.555 20.1019 53.555 21.2707ZM51.7729 21.3331C51.7729 20.5859 51.6006 19.9699 51.2543 19.4851C50.876 18.9795 50.3681 18.7267 49.7314 18.7267C49.2998 18.7267 48.9076 18.8675 48.5573 19.1451C48.2061 19.4251 47.9763 19.7907 47.8689 20.2435C47.8147 20.4547 47.7876 20.6275 47.7876 20.7635V22.0435C47.7876 22.6019 47.9632 23.0731 48.3144 23.4579C48.6656 23.8427 49.1218 24.0347 49.683 24.0347C50.3419 24.0347 50.8547 23.7867 51.2215 23.2923C51.5891 22.7971 51.7729 22.1443 51.7729 21.3331Z" fill="white"/>
<path d="M62.6129 21.2707C62.6129 22.5763 62.251 23.6083 61.5265 24.3659C60.8791 25.0403 60.0742 25.3771 59.1133 25.3771C58.0763 25.3771 57.3312 25.0139 56.8783 24.2875H56.8455V28.3315H55.0961V20.0539C55.0961 19.2331 55.074 18.3907 55.0312 17.5267H56.5697L56.6674 18.7435H56.7002C57.2827 17.8267 58.1681 17.3691 59.357 17.3691C60.285 17.3691 61.0605 17.7267 61.6824 18.4427C62.3019 19.1595 62.6129 20.1019 62.6129 21.2707ZM60.8307 21.3331C60.8307 20.5859 60.6575 19.9699 60.3112 19.4851C59.933 18.9795 59.4267 18.7267 58.7892 18.7267C58.3568 18.7267 57.9655 18.8675 57.6143 19.1451C57.2631 19.4251 57.0342 19.7907 56.9267 20.2435C56.8734 20.4547 56.8455 20.6275 56.8455 20.7635V22.0435C56.8455 22.6019 57.021 23.0731 57.3705 23.4579C57.7217 23.8419 58.1779 24.0347 58.7408 24.0347C59.3997 24.0347 59.9126 23.7867 60.2794 23.2923C60.6469 22.7971 60.8307 22.1443 60.8307 21.3331Z" fill="white"/>
<path d="M72.7351 22.2182C72.7351 23.1238 72.4126 23.8606 71.7652 24.4294C71.0539 25.051 70.0635 25.3614 68.7909 25.3614C67.6159 25.3614 66.674 25.1406 65.9609 24.6982L66.3663 23.2766C67.1343 23.7294 67.9769 23.9566 68.8951 23.9566C69.554 23.9566 70.0668 23.811 70.4352 23.5214C70.802 23.2318 70.9849 22.843 70.9849 22.3582C70.9849 21.9262 70.834 21.5622 70.5312 21.267C70.2301 20.9718 69.7271 20.6974 69.0247 20.4438C67.1129 19.7486 66.1579 18.7302 66.1579 17.391C66.1579 16.5158 66.4926 15.7982 67.163 15.2398C67.8309 14.6806 68.722 14.4014 69.8362 14.4014C70.8299 14.4014 71.6553 14.5702 72.3142 14.907L71.8768 16.2974C71.2614 15.971 70.5657 15.8078 69.787 15.8078C69.1716 15.8078 68.6908 15.9558 68.3462 16.2502C68.0549 16.5134 67.9088 16.8342 67.9088 17.2142C67.9088 17.635 68.0754 17.983 68.4102 18.2566C68.7014 18.5094 69.2307 18.783 69.9987 19.0782C70.9382 19.447 71.6282 19.8782 72.0721 20.3726C72.5144 20.8654 72.7351 21.4822 72.7351 22.2182Z" fill="white"/>
<path d="M78.5216 18.8071H76.5934V22.5343C76.5934 23.4823 76.9331 23.9559 77.6142 23.9559C77.9268 23.9559 78.186 23.9295 78.3912 23.8767L78.4396 25.1719C78.095 25.2975 77.6412 25.3607 77.0792 25.3607C76.3883 25.3607 75.8484 25.1551 75.4587 24.7447C75.0706 24.3335 74.8753 23.6439 74.8753 22.6751V18.8055H73.7266V17.5255H74.8753V16.1199L76.5934 15.6143V17.5255H78.5216V18.8071Z" fill="white"/>
<path d="M87.2198 21.3011C87.2198 22.4811 86.8736 23.4499 86.1827 24.2075C85.4582 24.9875 84.4965 25.3763 83.2978 25.3763C82.1425 25.3763 81.2227 25.0027 80.5367 24.2555C79.8508 23.5083 79.5078 22.5651 79.5078 21.4283C79.5078 20.2387 79.8606 19.2643 80.5687 18.5067C81.2752 17.7483 82.2286 17.3691 83.4274 17.3691C84.5827 17.3691 85.5123 17.7427 86.2139 18.4907C86.885 19.2163 87.2198 20.1531 87.2198 21.3011ZM85.4048 21.3563C85.4048 20.6483 85.2498 20.0411 84.9355 19.5347C84.5687 18.9219 84.0444 18.6163 83.365 18.6163C82.6619 18.6163 82.1277 18.9227 81.7609 19.5347C81.4467 20.0419 81.2916 20.6587 81.2916 21.3883C81.2916 22.0963 81.4467 22.7035 81.7609 23.2091C82.1392 23.8219 82.6676 24.1275 83.3495 24.1275C84.0174 24.1275 84.5417 23.8155 84.9199 23.1931C85.2424 22.6771 85.4048 22.0635 85.4048 21.3563Z" fill="white"/>
<path d="M92.9078 19.0267C92.7347 18.9955 92.5501 18.9795 92.3565 18.9795C91.7411 18.9795 91.2652 19.2059 90.9304 19.6595C90.6391 20.0595 90.4931 20.5651 90.4931 21.1755V25.2035H88.7445L88.761 19.9443C88.761 19.0595 88.7388 18.2539 88.6953 17.5275H90.219L90.283 18.9963H90.3314C90.516 18.4915 90.8073 18.0851 91.2061 17.7803C91.5958 17.5059 92.0168 17.3691 92.4705 17.3691C92.6321 17.3691 92.7782 17.3803 92.9078 17.4003V19.0267Z" fill="white"/>
<path d="M100.728 21.0017C100.728 21.3073 100.707 21.5649 100.664 21.7753H95.4158C95.4363 22.5337 95.6899 23.1137 96.1772 23.5137C96.6195 23.8713 97.1914 24.0505 97.8937 24.0505C98.6708 24.0505 99.3797 23.9297 100.017 23.6873L100.291 24.8713C99.5463 25.1881 98.6667 25.3457 97.6517 25.3457C96.4308 25.3457 95.4724 24.9953 94.775 24.2953C94.0792 23.5953 93.7305 22.6553 93.7305 21.4761C93.7305 20.3185 94.0546 19.3545 94.7036 18.5857C95.383 17.7649 96.3011 17.3545 97.4564 17.3545C98.5912 17.3545 99.4503 17.7649 100.034 18.5857C100.496 19.2377 100.728 20.0441 100.728 21.0017ZM99.0597 20.5593C99.0712 20.0537 98.9571 19.6169 98.72 19.2481C98.4172 18.7737 97.952 18.5369 97.326 18.5369C96.7541 18.5369 96.2888 18.7681 95.9335 19.2321C95.6423 19.6009 95.4691 20.0433 95.4158 20.5585L99.0597 20.5593Z" fill="white"/>
</g>
</g>
</g>
<defs>
<clipPath id="clip0_3_1605">
<rect width="112" height="32" fill="white"/>
</clipPath>
<clipPath id="clip1_3_1605">
<rect width="112" height="32" fill="white"/>
</clipPath>
<clipPath id="clip2_3_1605">
<rect width="112" height="32" fill="white"/>
</clipPath>
</defs>
</svg>
