<svg width="39" height="39" viewBox="0 0 39 39" fill="none" xmlns="http://www.w3.org/2000/svg">
<mask id="mask0_3_994" style="mask-type:luminance" maskUnits="userSpaceOnUse" x="-1" y="-1" width="41" height="41">
<path d="M39.627 -0.627035H-0.629001V39.629H39.627V-0.627035Z" fill="white"/>
</mask>
<g mask="url(#mask0_3_994)">
<path d="M32.0948 6.29983C31.9061 6.56715 31.7803 6.8109 31.8195 6.84235C31.851 6.8738 32.6372 7.44776 33.5651 8.10819L35.2555 9.31117L34.9016 9.46054C34.2334 9.75147 32.7159 10.2153 31.9453 10.3726C29.1699 10.9387 26.2608 10.7736 23.6662 9.90084C23.2573 9.76716 22.015 9.25616 20.9143 8.76864L18.9093 7.88804L18.87 9.65712L18.8307 11.434L18.6342 11.4812C17.8951 11.6856 16.9909 12.4562 16.6764 13.1638C16.4956 13.5726 16.354 14.3117 16.354 14.8228C16.3619 15.1844 16.6371 15.9157 16.9516 16.3717C17.3211 16.8985 18.1467 17.4095 18.8779 17.5668C19.043 17.6061 19.1137 17.7004 19.2632 18.1014C19.672 19.2494 20.529 20.4366 21.4568 21.1522L22.015 21.5846V22.1742V22.7639L18.8543 23.8175C17.1088 24.3914 15.3869 25.0047 15.0252 25.1777C13.9009 25.7123 13.0203 26.7738 12.6979 27.9925C12.6036 28.3541 12.58 29.3292 12.58 33.7085V39H25.789H38.998V33.7085C38.998 29.3292 38.9745 28.3541 38.8801 27.9925C38.5577 26.7738 37.6771 25.7123 36.5528 25.1777C36.1911 25.0047 34.4692 24.3914 32.7316 23.8175L29.563 22.7639V22.1742V21.5846L30.1212 21.1522C31.0491 20.4366 31.9061 19.2494 32.3149 18.1014C32.4643 17.7004 32.5351 17.6061 32.7001 17.5668C33.4314 17.4095 34.257 16.8985 34.6265 16.3717C34.941 15.9157 35.2161 15.1844 35.224 14.8228C35.224 13.3918 34.5636 12.2439 33.392 11.6778L32.8417 11.4183L33.4235 11.2453C33.7459 11.151 34.2412 10.9937 34.5242 10.8837C34.8152 10.7736 35.1376 10.6714 35.2476 10.6478C35.4599 10.6163 37.6614 9.69646 37.7558 9.60211C37.8187 9.54701 35.3577 7.7544 35.0903 7.65218C35.0118 7.62073 34.3906 7.19616 33.7065 6.70868C33.0304 6.2212 32.4643 5.82022 32.4485 5.82022C32.4407 5.82022 32.2835 6.04037 32.0948 6.29983ZM21.7555 10.5377C23.3359 11.2217 25.0814 11.6935 26.7246 11.8822C27.5267 11.9687 30.3493 11.9372 31.1276 11.8272L31.4736 11.78L31.4265 14.123C31.395 16.1752 31.3714 16.5526 31.222 17.0872C30.6952 19.0686 29.107 20.6567 27.1571 21.1522C26.3472 21.3644 25.2308 21.3644 24.421 21.1522C22.4711 20.6567 20.8907 19.0764 20.3482 17.0872C20.1909 16.5211 20.183 16.2302 20.1438 13.1481L20.1123 9.83014L20.4975 9.99519C20.702 10.0895 21.2681 10.3333 21.7555 10.5377ZM18.87 14.469V16.2066L18.6578 16.0886C18.3432 15.9236 17.9501 15.4989 17.8165 15.1609C17.557 14.5554 17.7064 13.7299 18.1467 13.2581C18.3197 13.0773 18.7757 12.7392 18.8543 12.7392C18.8621 12.7392 18.87 13.5176 18.87 14.469ZM33.392 13.2267C33.7223 13.5726 33.8874 13.9815 33.8874 14.469C33.8874 15.1373 33.4943 15.7899 32.9282 16.0886L32.708 16.2066V14.469V12.7313L32.9282 12.8493C33.0461 12.9122 33.2506 13.0773 33.392 13.2267ZM23.902 22.4258C24.3502 22.5752 24.5782 22.5988 25.789 22.5988C26.9999 22.5988 27.2278 22.5752 27.676 22.4258C27.9591 22.3315 28.2107 22.2528 28.25 22.2528C28.2815 22.2528 28.305 22.4023 28.305 22.5831V22.9212L27.047 23.9276L25.789 24.9262L24.531 23.9276L23.273 22.9212V22.5831C23.273 22.4023 23.2966 22.2528 23.3359 22.2528C23.3674 22.2528 23.619 22.3315 23.902 22.4258ZM23.6898 24.9733L24.7591 25.8303L23.8785 26.7187L22.9979 27.5993L22.5732 25.901C22.2195 24.4937 22.1644 24.187 22.2587 24.132C22.4474 24.0062 22.589 24.0927 23.6898 24.9733ZM29.3193 24.132C29.4137 24.187 29.3586 24.4937 29.0048 25.901L28.5802 27.5993L27.6996 26.7187L26.8112 25.8303L27.9276 24.9418C28.5331 24.4622 29.0756 24.0612 29.1227 24.0612C29.1699 24.0612 29.2564 24.0927 29.3193 24.132ZM21.5747 27.4028C21.9521 28.936 22.2902 30.194 22.3216 30.194C22.3453 30.194 23.1393 29.4234 24.075 28.4878L25.789 26.7738L27.5031 28.4878C28.4387 29.4234 29.2328 30.194 29.2564 30.194C29.2879 30.194 29.6259 28.936 30.0033 27.4028C30.3886 25.8696 30.7267 24.6117 30.7581 24.6117C30.7975 24.6117 30.821 26.1526 30.821 28.0318V31.452H25.789H20.757V28.0318C20.757 26.1526 20.7806 24.6117 20.8199 24.6117C20.8514 24.6117 21.1894 25.8696 21.5747 27.4028ZM19.499 28.8967V32.71H25.789H32.079V28.8967C32.079 26.7974 32.1026 25.0833 32.134 25.0833C32.1655 25.0833 32.5901 25.217 33.0775 25.3743L33.966 25.6652V31.7036V37.742H25.789H17.612V31.7036V25.6652L18.4612 25.3821C18.925 25.2249 19.3497 25.0912 19.4047 25.0912C19.4755 25.0833 19.499 25.8932 19.499 28.8967ZM16.354 31.9237V37.742H15.096H13.838V33.5513C13.838 31.2554 13.8773 29.1168 13.9167 28.8023C14.066 27.6465 14.7894 26.703 15.8429 26.2706C16.0631 26.1841 16.2597 26.1134 16.299 26.1134C16.3304 26.1055 16.354 28.7237 16.354 31.9237ZM35.9788 26.3885C36.8515 26.7974 37.5278 27.7645 37.6614 28.8023C37.7007 29.1168 37.74 31.2554 37.74 33.5513V37.742H36.482H35.224V31.9159V26.0976L35.4048 26.1526C35.4992 26.1763 35.7587 26.2863 35.9788 26.3885Z" fill="#393F4D"/>
<path d="M21.5433 12.7392C21.441 12.8415 21.386 12.9987 21.386 13.211C21.386 13.4232 21.441 13.5805 21.5433 13.6827C21.6455 13.785 21.8028 13.84 22.015 13.84C22.2273 13.84 22.3845 13.785 22.4868 13.6827C22.589 13.5805 22.644 13.4232 22.644 13.211C22.644 12.9987 22.589 12.8415 22.4868 12.7392C22.3845 12.637 22.2273 12.582 22.015 12.582C21.8028 12.582 21.6455 12.637 21.5433 12.7392Z" fill="#393F4D"/>
<path d="M29.0913 12.7392C28.989 12.8415 28.934 12.9987 28.934 13.211C28.934 13.4232 28.989 13.5805 29.0913 13.6827C29.1935 13.785 29.3508 13.84 29.563 13.84C29.7753 13.84 29.9325 13.785 30.0348 13.6827C30.137 13.5805 30.192 13.4232 30.192 13.211C30.192 12.9987 30.137 12.8415 30.0348 12.7392C29.9325 12.637 29.7753 12.582 29.563 12.582C29.3508 12.582 29.1935 12.637 29.0913 12.7392Z" fill="#393F4D"/>
<path d="M23.2892 17.3702C23.36 18.1329 23.9261 18.9112 24.673 19.2808C25.2076 19.5402 26.3713 19.5402 26.9059 19.2808C27.6529 18.9112 28.219 18.1329 28.2897 17.3702L28.3291 16.985H27.645C26.9925 16.985 26.9688 16.9928 26.9688 17.1579C26.9688 17.6611 26.3713 18.1643 25.7895 18.1643C25.2076 18.1643 24.6101 17.6611 24.6101 17.1579C24.6101 16.9928 24.5865 16.985 23.9339 16.985H23.2499L23.2892 17.3702Z" fill="#393F4D"/>
<path d="M0 11.9294C0 13.4154 0.117938 15.6483 0.589684 22.7247C0.912051 27.6308 1.20297 31.8373 1.22655 32.0652L1.27373 32.482L2.20937 33.111L3.145 33.7321V35.9572C3.145 38.0329 3.15287 38.1902 3.30225 38.4339C3.62462 38.9607 3.774 39 5.661 39C7.54801 39 7.6974 38.9607 8.01976 38.4339C8.16912 38.1902 8.17701 38.0329 8.17701 35.9572V33.7321L9.11262 33.111L10.0483 32.482L10.0955 32.0652C10.119 31.8373 10.41 27.6308 10.7323 22.7247C11.2041 15.6483 11.322 13.4154 11.322 11.9294V10.066H5.661H0V11.9294ZM2.516 11.953V12.582H1.887H1.258V11.953V11.324H1.887H2.516V11.953ZM5.032 11.953V12.582H4.403H3.774V11.953V11.324H4.403H5.032V11.953ZM7.54801 11.953V12.582H6.91901H6.29001V11.953V11.324H6.91901H7.54801V11.953ZM10.064 11.953V12.582H9.43501H8.80601V11.953V11.324H9.43501H10.064V11.953ZM9.95398 14.2016C9.93033 14.4061 9.90676 14.6891 9.90676 14.8306V15.098H5.661H1.41525V14.8778C1.41525 14.7599 1.39167 14.4769 1.36808 14.2488L1.31304 13.84H5.661H10.009L9.95398 14.2016ZM9.80453 16.6862C9.78096 16.8749 9.71806 17.724 9.66304 18.5732L9.56869 20.13H5.661H1.75334L1.65899 18.5732C1.60395 17.724 1.54105 16.8749 1.51747 16.6862L1.47815 16.356H5.661H9.84386L9.80453 16.6862ZM9.14407 26.3178C8.96326 29.0382 8.81389 31.3498 8.80601 31.4677C8.80601 31.6564 8.68809 31.7586 8.04332 32.1989L7.27282 32.71H5.661H4.04919L3.27867 32.1989C2.63394 31.7586 2.516 31.6564 2.516 31.4677C2.50814 31.3498 2.35875 29.0382 2.17792 26.3178L1.83983 21.388H5.661H9.48223L9.14407 26.3178ZM6.91901 35.855V37.742H5.661H4.403V35.855V33.968H5.661H6.91901V35.855Z" fill="#393F4D"/>
<path d="M23.9415 0.159216C20.1203 0.961191 17.2898 3.80742 16.5114 7.62074C16.3699 8.32048 16.3542 8.6822 16.3621 11.1431C16.3621 13.5255 16.3777 13.84 16.4721 13.5491C16.6293 13.038 16.9282 12.5741 17.3685 12.1653C17.7615 11.7958 18.4613 11.4026 18.7365 11.4026C18.8623 11.4026 18.8702 11.2611 18.8702 9.60205V7.8016L20.7807 8.65075C22.8801 9.58637 23.6978 9.89298 24.8378 10.176C26.1194 10.5063 27.2044 10.6321 28.6983 10.6321C30.2394 10.6242 31.2929 10.4984 32.6767 10.1446C33.6675 9.8851 35.0827 9.36622 35.0513 9.27187C35.0355 9.24042 34.3043 8.69 33.4159 8.061C32.5274 7.43204 31.7805 6.88952 31.7411 6.85021C31.6703 6.77945 32.378 5.77305 32.488 5.8045C32.5353 5.82022 33.117 6.22121 33.7854 6.69296C34.4537 7.17257 35.0119 7.54997 35.0355 7.53425C35.122 7.4399 34.6266 6.00892 34.2414 5.22267C32.9362 2.57301 30.5539 0.764633 27.6054 0.159216C26.5675 -0.0530721 24.9479 -0.0530721 23.9415 0.159216Z" fill="#FF008A"/>
<path d="M34.6358 10.8994C34.3764 11.0094 33.8889 11.1666 33.5508 11.261L32.9375 11.434L33.3307 11.5755C34.0619 11.8507 34.856 12.7313 35.1076 13.549C35.2019 13.8478 35.2177 13.722 35.2177 12.2832C35.2256 11.4104 35.2019 10.6949 35.1705 10.7028C35.1312 10.7028 34.8953 10.7971 34.6358 10.8994Z" fill="#FF008A"/>
<path d="M2.516 17.1894C2.516 18.1407 2.62608 18.4159 3.09783 18.7068C3.34943 18.8641 3.47523 18.872 5.661 18.872C7.84682 18.872 7.97262 18.8641 8.22422 18.7068C8.69597 18.4159 8.80601 18.1407 8.80601 17.1894V16.356H5.661H2.516V17.1894Z" fill="#FF008A"/>
<path d="M4.96356 24.6195C4.5783 24.7375 3.96503 25.3901 3.85495 25.791C3.79991 26.0033 3.77633 26.7345 3.79205 27.8746L3.81564 29.6279L4.05151 29.966C4.18518 30.1547 4.44464 30.4142 4.63334 30.5479C4.94784 30.768 5.01861 30.7837 5.66333 30.7837C6.30806 30.7837 6.37881 30.768 6.69331 30.5479C6.88201 30.4142 7.14148 30.1547 7.27514 29.966L7.51102 29.6279V27.678V25.7281L7.27514 25.3901C7.14148 25.2014 6.88988 24.9419 6.70904 24.8161C6.43386 24.6274 6.29233 24.588 5.80486 24.5645C5.49036 24.5488 5.11296 24.5724 4.96356 24.6195Z" fill="#FF008A"/>
</g>
</svg>
