<svg width="16" height="16" viewBox="0 0 16 16" fill="none" xmlns="http://www.w3.org/2000/svg">
<path d="M8 3.09677C9.70968 3.09677 11.0968 4.48387 11.0968 6.19355C11.0968 7.90323 9.70968 9.29032 8 9.29032C6.29032 9.29032 4.90323 7.90323 4.90323 6.19355C4.90323 4.48387 6.29032 3.09677 8 3.09677ZM8 7.74194C8.83871 7.74194 9.54839 7.06452 9.54839 6.19355C9.54839 5.35484 8.83871 4.64516 8 4.64516C7.12903 4.64516 6.45161 5.35484 6.45161 6.19355C6.45161 7.06452 7.12903 7.74194 8 7.74194ZM8 0C12.4194 0 16 3.58065 16 8C16 12.4194 12.4194 16 8 16C3.58065 16 0 12.4194 0 8C0 3.58065 3.58065 0 8 0ZM8 14.4516C9.58065 14.4516 11.0645 13.871 12.1935 12.9032C11.7097 12.1613 10.871 11.6774 9.93548 11.6452C9.25806 11.8387 8.6129 11.9355 8 11.9355C7.35484 11.9355 6.70968 11.8387 6.03226 11.6452C5.09677 11.6452 4.25806 12.1613 3.77419 12.9032C4.90323 13.871 6.3871 14.4516 8 14.4516ZM13.2258 11.7419C14 10.7097 14.4516 9.41935 14.4516 8C14.4516 4.45161 11.5484 1.54839 8 1.54839C4.41935 1.54839 1.54839 4.45161 1.54839 8C1.54839 9.41935 1.96774 10.7097 2.74194 11.7419C3.51613 10.7419 4.74194 10.0645 6.12903 10.0645C6.45161 10.0645 6.96774 10.3871 8 10.3871C9 10.3871 9.51613 10.0645 9.83871 10.0645C11.2258 10.0645 12.4516 10.7419 13.2258 11.7419Z" fill="white"/>
</svg>
