<svg width="24" height="24" viewBox="0 0 24 24" fill="none" xmlns="http://www.w3.org/2000/svg">
<g clip-path="url(#clip0_3_1678)">
<g clip-path="url(#clip1_3_1678)">
<g clip-path="url(#clip2_3_1678)">
<path d="M12.0273 0.00488281H11.9727C5.36035 0.00488281 0 5.36523 0 11.9776V12.0322C0 18.6446 5.36035 24.0049 11.9727 24.0049H12.0273C18.6397 24.0049 24 18.6446 24 12.0322V11.9776C24 5.36523 18.6397 0.00488281 12.0273 0.00488281Z" fill="#00E510"/>
<path d="M14.3409 15.5154C11.2693 15.5154 8.77037 13.0156 8.76953 9.94399C8.77037 9.16537 9.40437 8.53223 10.1813 8.53223C10.2612 8.53223 10.3402 8.53895 10.4159 8.55241C10.5824 8.58015 10.7405 8.63649 10.8859 8.72141C10.9069 8.73403 10.9212 8.75421 10.9246 8.77775L11.2492 10.8235C11.2534 10.8479 11.2458 10.8715 11.2298 10.8891C11.0507 11.0876 10.822 11.2305 10.5672 11.302L10.4445 11.3364L10.4907 11.455C10.9095 12.5212 11.7621 13.373 12.8291 13.7934L12.9477 13.8405L12.9821 13.7177C13.0536 13.4629 13.1965 13.2342 13.395 13.0551C13.4093 13.0417 13.4286 13.0349 13.4479 13.0349C13.4522 13.0349 13.4564 13.0349 13.4614 13.0358L15.5072 13.3603C15.5315 13.3645 15.5517 13.378 15.5643 13.399C15.6484 13.5445 15.7048 13.7034 15.7333 13.8699C15.7468 13.9439 15.7527 14.0221 15.7527 14.1036C15.7527 14.8814 15.1195 15.5146 14.3409 15.5154Z" fill="#FDFDFD"/>
<path d="M19.7878 11.3308C19.6222 9.45909 18.7645 7.72277 17.373 6.44217C15.973 5.15401 14.1568 4.44434 12.2573 4.44434C8.08844 4.44434 4.69651 7.83628 4.69651 12.0052C4.69651 13.4043 5.08245 14.7673 5.81314 15.9546L4.18359 19.5618L9.40099 19.006C10.3083 19.3776 11.2685 19.566 12.2565 19.566C12.5163 19.566 12.7828 19.5525 13.0502 19.5248C13.2857 19.4995 13.5236 19.4625 13.7574 19.4154C17.2485 18.71 19.7971 15.6115 19.8173 12.0455V12.0052C19.8173 11.7781 19.808 11.5511 19.7878 11.3308ZM9.6019 17.4227L6.71536 17.7304L7.57722 15.8209L7.40484 15.5896C7.39223 15.5728 7.37962 15.556 7.36533 15.5367C6.61698 14.5033 6.22178 13.2824 6.22178 12.006C6.22178 8.67795 8.92928 5.97046 12.2573 5.97046C15.3751 5.97046 18.0179 8.403 18.2727 11.5082C18.2861 11.6747 18.2937 11.842 18.2937 12.0068C18.2937 12.0539 18.2928 12.1002 18.292 12.1498C18.2281 14.9338 16.2832 17.2982 13.5623 17.9003C13.3546 17.9465 13.1419 17.9818 12.93 18.0045C12.7097 18.0298 12.4835 18.0424 12.259 18.0424C11.4594 18.0424 10.6824 17.8876 9.9484 17.5816C9.8668 17.5488 9.7869 17.5135 9.7121 17.4773L9.6028 17.4243L9.6019 17.4227Z" fill="#FDFDFD"/>
</g>
</g>
</g>
<defs>
<clipPath id="clip0_3_1678">
<rect width="24" height="23.03" fill="white" transform="translate(0 0.490234)"/>
</clipPath>
<clipPath id="clip1_3_1678">
<rect width="24" height="23.03" fill="white" transform="translate(0 0.490234)"/>
</clipPath>
<clipPath id="clip2_3_1678">
<rect width="25" height="24" fill="white" transform="translate(-0.5 0.00488281)"/>
</clipPath>
</defs>
</svg>
