<svg width="40" height="40" viewBox="0 0 40 40" fill="none" xmlns="http://www.w3.org/2000/svg">
<path d="M27.6192 4.04752V3.57133C27.6192 2.38786 26.6598 1.42847 25.4763 1.42847C24.2929 1.42847 23.3335 2.38786 23.3335 3.57133V4.04752C23.3335 5.23098 24.2929 6.19038 25.4763 6.19038C26.6598 6.19038 27.6192 5.23098 27.6192 4.04752Z" fill="#FF008A"/>
<path d="M35.6879 13.3333H36.0721C37.1895 13.3333 38.0954 12.4275 38.0954 11.31C38.0954 10.2896 37.3356 9.42884 36.323 9.30225L34.6333 9.09109C34.4067 9.06275 34.1769 9.10217 33.9727 9.20425C33.581 9.40009 33.3335 9.8005 33.3335 10.2385V10.9789C33.3335 12.2793 34.3876 13.3333 35.6879 13.3333Z" fill="#FF008A"/>
<path d="M10.1208 32.2155L5.01717 33.4269C3.82537 33.7098 3.08936 34.9062 3.37424 36.0975C3.64372 37.2245 4.736 37.9533 5.88 37.7696L11.0592 36.938C13.0003 36.6264 13.7709 34.2461 12.3808 32.8559C11.7896 32.2648 10.9343 32.0224 10.1208 32.2155Z" fill="#FF008A"/>
<path d="M36.347 30.1993L31.0822 31.5155C30.3967 31.6868 30.1603 32.5404 30.6599 33.04C30.8463 33.2263 31.1044 33.3226 31.3673 33.3038L36.7804 32.9172C37.2961 32.8804 37.748 32.5586 37.9517 32.0835C38.4017 31.0335 37.4552 29.9222 36.347 30.1993Z" fill="#FF008A"/>
<path d="M4.54688 1.39063C4.44532 1.49218 4.10938 2.71093 3.45313 5.33593L2.5 9.14067V15.8203V22.5H3.125H3.75V17.8593V13.2109L4.20312 13.4531C4.5 13.6016 4.82812 13.7031 5.14062 13.7266L5.625 13.7734V13.0937V12.4218H5.41407C4.89062 12.4141 4.1875 11.8828 3.95312 11.3203C3.89062 11.1641 3.8125 10.8047 3.78125 10.5156L3.72657 10H4.99219H6.25V9.375V8.75H5.11719C4.49218 8.75 3.98438 8.72658 3.98438 8.6875C3.98438 8.65625 4.33593 7.25781 4.75 5.58593L5.51562 2.53906L7.0625 2.51562L8.60942 2.5L8.57033 2.67187C8.42967 3.28125 7.79687 7.35156 7.83594 7.39843C7.91407 7.47656 9.01567 7.64843 9.07033 7.59375C9.09375 7.5625 9.30467 6.40625 9.53125 5.01562L9.94533 2.5H11.5H13.0625L13.0157 2.71093C12.9532 3.07031 12.625 7.41406 12.6562 7.45312C12.6797 7.46875 12.9766 7.50781 13.3203 7.53907L13.9532 7.59375L14.1328 5.34375C14.2266 4.10156 14.3282 2.95312 14.3516 2.78906L14.3984 2.5H15.9453H17.5V4.6875V6.875H18.125H18.75V4.6875V2.5H20.625H22.5V5.625V8.75H21.25H20V9.375V10H21.2578H22.5234L22.4688 10.5156C22.4062 11.1562 22.2578 11.5234 21.9297 11.8672C21.4375 12.3828 20.5938 12.5703 19.9453 12.3047C19.7891 12.2422 19.6562 12.1953 19.6484 12.2031C19.1875 12.9922 19.0625 13.2343 19.0625 13.3125C19.0625 13.5391 19.7657 13.7109 20.6641 13.7109C21.4453 13.7109 21.5625 13.6875 21.9609 13.4922C22.2032 13.375 22.5625 13.1328 22.7657 12.9609L23.125 12.6406L23.4844 12.9609C23.6875 13.1328 24.0469 13.375 24.2891 13.4922C24.6875 13.6953 24.8047 13.7109 25.625 13.7109C26.4453 13.7109 26.5625 13.6953 26.9609 13.4922C27.2032 13.375 27.5625 13.1328 27.7657 12.9609L28.125 12.6406L28.4844 12.9609C28.6875 13.1328 29.0469 13.375 29.2891 13.4922C29.6875 13.6953 29.8047 13.7109 30.625 13.7109C31.4453 13.7109 31.5625 13.6953 31.9609 13.4922C32.2032 13.375 32.5625 13.1328 32.7657 12.9609L33.125 12.6406L33.4844 12.9609C33.6875 13.1328 34.0469 13.375 34.2891 13.4922C34.6875 13.6953 34.8047 13.7109 35.625 13.7109C36.4766 13.7109 36.5469 13.6953 37.0157 13.4609L37.5 13.2188V19.7343V26.25H38.125H38.75V17.6953V9.14067L37.7969 5.33593C37.1407 2.71093 36.8047 1.49218 36.7032 1.39063C36.5703 1.25781 35.9766 1.25 20.625 1.25C5.27344 1.25 4.67969 1.25781 4.54688 1.39063ZM26.9062 2.86718C26.9297 3.07812 27.0391 4.35156 27.1484 5.70312C27.2578 7.05468 27.3594 8.29687 27.3828 8.45308L27.4219 8.75H25.5859H23.75V5.625V2.5H25.3047H26.8594L26.9062 2.86718ZM31.7891 5.44531C32.0625 7.07032 32.2969 8.47658 32.3203 8.57033L32.3594 8.75H30.5625H28.7657L28.7188 8.375C28.6953 8.17188 28.5859 6.89843 28.4766 5.54688C28.3672 4.19531 28.2657 2.95312 28.2422 2.78906L28.2032 2.5H29.75H31.3047L31.7891 5.44531ZM36.5 5.58593C36.9141 7.25781 37.2657 8.65625 37.2657 8.6875C37.2657 8.72658 36.4609 8.75 35.4844 8.75H33.6953L33.2109 5.79688C32.9375 4.17968 32.7032 2.77343 32.6797 2.67187L32.6407 2.5L34.1875 2.51562L35.7344 2.53906L36.5 5.58593ZM27.4688 10.5156C27.4062 11.1562 27.2578 11.5234 26.9297 11.8672C26.0547 12.7891 24.5 12.5234 23.9766 11.3672C23.8984 11.1953 23.8125 10.8125 23.7812 10.5234L23.7266 10H25.625H27.5234L27.4688 10.5156ZM32.4688 10.5156C32.4062 11.1562 32.2578 11.5234 31.9297 11.8672C31.0547 12.7891 29.5 12.5234 28.9766 11.3672C28.8984 11.1953 28.8125 10.8125 28.7812 10.5234L28.7266 10H30.625H32.5234L32.4688 10.5156ZM37.4688 10.5156C37.4062 11.1562 37.2578 11.5234 36.9297 11.8672C36.0547 12.7891 34.5 12.5234 33.9766 11.3672C33.8984 11.1953 33.8125 10.8125 33.7812 10.5234L33.7266 10H35.625H37.5234L37.4688 10.5156Z" fill="#393F4D"/>
<path d="M9.00924 8.24221C8.22803 8.48445 7.5249 9.1172 7.12646 9.92186C6.91553 10.3516 6.91553 10.3594 6.89209 12.3594L6.86865 14.375H6.61865C6.06396 14.3829 5.36865 14.8984 5.12646 15.4844C4.95459 15.8907 4.97021 16.6797 5.1499 17.0704C5.41553 17.6484 6.0874 18.125 6.62646 18.125C6.84521 18.125 6.85303 18.1484 6.98584 18.75C7.24365 19.9609 8.17334 21.4141 9.09524 22.0391C9.25149 22.1407 9.37649 22.2891 9.37649 22.3594C9.37649 22.4922 9.23583 22.5 7.47803 22.5C5.41553 22.5 5.07178 22.5469 4.37646 22.9532C4.03271 23.1484 3.20459 23.875 3.20459 23.9844C3.20459 24.0391 4.17334 24.7657 4.25928 24.7657C4.28271 24.7657 4.3999 24.6641 4.50146 24.5313C4.61084 24.4063 4.93115 24.1875 5.2124 24.0469L5.73584 23.7891L7.55615 23.7656L9.37649 23.7344V25.1484C9.37649 26.4609 9.38424 26.5704 9.53274 26.7188C9.74366 26.9297 10.0952 26.9141 11.0171 26.6797C11.4233 26.5704 11.7827 26.4844 11.8217 26.4844C11.853 26.4844 11.8765 27.5782 11.8765 28.9141V31.3438L11.6655 31.2969C11.3374 31.2266 8.25146 30.7032 8.18896 30.7032C8.1499 30.7032 8.12646 29.8438 8.12646 28.7891V26.875H7.50146H6.87646V27.5V28.125H5.30615H3.72803L3.76709 26.9219L3.81396 25.7109L3.44678 25.6329C3.25146 25.5938 2.95459 25.5313 2.79053 25.5079L2.49365 25.4531L2.51709 30.9844L2.54053 36.5234L2.76709 36.9922C3.06396 37.5938 3.65771 38.1875 4.25928 38.4844L4.72803 38.7109H12.5015H20.2749L20.7437 38.4844C21.3452 38.1875 21.939 37.5938 22.2358 36.9922L22.4624 36.5234L22.4858 31.0625C22.5015 26.2422 22.4937 25.5469 22.3765 25.1641C22.0483 24 21.0717 23.0079 19.9155 22.6484C19.5015 22.5234 19.189 22.5 17.5327 22.5C15.7671 22.5 15.6265 22.4922 15.6265 22.3594C15.6265 22.2891 15.7515 22.1407 15.9077 22.0391C16.8296 21.4141 17.7592 19.9609 18.0171 18.75C18.1499 18.1329 18.1577 18.125 18.3921 18.125C18.939 18.1172 19.6342 17.6016 19.8765 17.0157C20.0327 16.6407 20.0327 15.8594 19.8765 15.4844C19.6342 14.8906 18.939 14.3829 18.3842 14.375H18.1265V13.3672C18.1265 12.4609 18.1421 12.3438 18.2905 12.1563C18.6733 11.6719 18.7515 11.2656 18.7515 9.8047C18.7515 8.53911 18.7358 8.42195 18.5952 8.28128C18.439 8.12503 18.3374 8.12503 13.8921 8.13285C10.3374 8.13285 9.26708 8.15628 9.00924 8.24221ZM17.4858 10.1484C17.4312 11.2109 17.1733 11.6329 16.439 11.7969C16.2749 11.8359 14.5483 11.875 12.6108 11.875C9.91549 11.875 9.06399 11.8984 8.97024 11.9688C8.89991 12.0234 8.69674 12.3125 8.51708 12.6172C8.33741 12.9141 8.16553 13.1797 8.1499 13.2032C8.12646 13.2266 8.12646 12.7109 8.14209 12.0704C8.18115 10.7734 8.26709 10.4609 8.69674 10.0156C9.00149 9.69536 9.28274 9.53911 9.71241 9.45319C9.89208 9.42194 11.7202 9.39061 13.7827 9.38286L17.5249 9.37503L17.4858 10.1484ZM16.0562 14.5313L16.8999 15.9454L16.853 17.0547C16.7749 18.6329 16.5562 19.3204 15.8296 20.2422C15.4155 20.7656 14.5171 21.3906 13.8687 21.6016C13.2124 21.8204 11.7905 21.8204 11.1342 21.6016C10.4858 21.3906 9.58741 20.7656 9.17333 20.2422C8.44674 19.3204 8.22803 18.6329 8.1499 17.0547L8.10303 15.9454L8.94674 14.5313L9.78274 13.125H12.5015H15.2202L16.0562 14.5313ZM6.87646 16.25C6.87646 16.8516 6.78271 16.9375 6.48584 16.6407C6.19678 16.3516 6.38428 15.7032 6.75928 15.7032C6.85303 15.7032 6.87646 15.8125 6.87646 16.25ZM18.5171 15.8594C18.8062 16.1484 18.6187 16.7969 18.2437 16.7969C18.1499 16.7969 18.1265 16.6875 18.1265 16.25C18.1265 15.6484 18.2202 15.5625 18.5171 15.8594ZM12.5015 23.125C12.9546 23.125 13.5327 23.0704 13.7827 23.0156L14.2437 22.9063L13.3687 23.7734L12.5015 24.6484L11.6342 23.7734L10.7592 22.9063L11.2202 23.0156C11.4702 23.0704 12.0483 23.125 12.5015 23.125ZM19.4702 23.8984C20.1577 24.1172 20.8921 24.8516 21.103 25.5313C21.1499 25.6875 21.2046 26.3359 21.228 26.9688L21.2749 28.125H19.6967H18.1265V27.5V26.875H17.5015H16.8765V28.7891C16.8765 29.8438 16.853 30.7032 16.8217 30.7032C16.7827 30.7032 15.9546 30.8438 14.9624 31.0157C13.978 31.1875 13.1577 31.3282 13.1499 31.3282C13.1342 31.3282 13.1265 30.2344 13.1265 28.9063C13.1265 27.5704 13.1499 26.4844 13.189 26.4844C13.2202 26.4844 13.5796 26.5704 13.9858 26.6797C14.9077 26.9141 15.2592 26.9297 15.4702 26.7188C15.6187 26.5704 15.6265 26.4609 15.6265 25.1484V23.7344L17.4077 23.7734C18.4155 23.7891 19.3062 23.8438 19.4702 23.8984ZM11.0015 25.3281C10.6577 25.4219 10.6265 25.4063 10.6265 25.0625V24.7344L10.9077 25.0079C11.1812 25.2734 11.1812 25.2734 11.0015 25.3281ZM14.353 25.3594C14.3374 25.375 14.2124 25.3672 14.0717 25.3438L13.8217 25.2891L14.0796 25.0234L14.3374 24.7579L14.3608 25.0391C14.3765 25.2031 14.3687 25.3438 14.353 25.3594ZM6.87646 30V30.625H5.31396H3.75146V30V29.375H5.31396H6.87646V30ZM21.2515 30V30.625H19.689H18.1265V30V29.375H19.689H21.2515V30ZM7.75928 31.9609C8.07178 32.0156 8.34524 32.0781 8.37649 32.1016C8.40774 32.1329 7.44678 32.3281 6.23584 32.5313C5.0249 32.7422 3.97021 32.9297 3.89209 32.9531C3.76709 32.9844 3.75146 32.9297 3.75146 32.4297V31.875H5.47803C6.42334 31.875 7.45459 31.9141 7.75928 31.9609ZM21.2515 33.4375V35H19.2437H17.2437L11.8842 36.2579C6.6499 37.4922 6.50928 37.5156 5.88428 37.4766C4.86865 37.4063 4.25146 37.0234 3.93896 36.2891C3.75928 35.8594 3.68115 34.2969 3.8374 34.2969C3.8999 34.2891 7.0249 33.75 10.7827 33.0938L17.6187 31.8907L19.439 31.8829L21.2515 31.875V33.4375ZM20.9858 36.4609C20.8217 36.7813 20.3999 37.1641 20.0483 37.3047C19.8842 37.375 19.439 37.4532 19.0717 37.4766C18.4702 37.5079 18.2592 37.4766 16.9546 37.1641C16.1577 36.9688 15.564 36.7891 15.6265 36.7657C15.689 36.7422 16.1655 36.6172 16.6812 36.4922C17.564 36.2813 17.7202 36.2656 19.3608 36.2579L21.103 36.25L20.9858 36.4609Z" fill="#393F4D"/>
<path d="M9.64067 15.2656C9.40625 15.5 9.375 15.5781 9.375 15.9375C9.375 16.5234 9.72658 16.875 10.3125 16.875C10.6719 16.875 10.75 16.8438 10.9844 16.6093C11.2188 16.375 11.25 16.2968 11.25 15.9375C11.25 15.5781 11.2188 15.5 10.9844 15.2656C10.75 15.0313 10.6719 15 10.3125 15C9.95317 15 9.875 15.0313 9.64067 15.2656Z" fill="#393F4D"/>
<path d="M14.0157 15.2656C13.7812 15.5 13.75 15.5781 13.75 15.9375C13.75 16.2968 13.7812 16.375 14.0157 16.6093C14.25 16.8438 14.3282 16.875 14.6875 16.875C15.0469 16.875 15.125 16.8438 15.3594 16.6093C15.5937 16.375 15.625 16.2968 15.625 15.9375C15.625 15.5781 15.5937 15.5 15.3594 15.2656C15.125 15.0313 15.0469 15 14.6875 15C14.3282 15 14.25 15.0313 14.0157 15.2656Z" fill="#393F4D"/>
<path d="M10.5848 18.7267C10.2333 19.2579 10.2333 19.2579 10.3896 19.3907C10.8817 19.7892 12.1942 20.0626 13.0301 19.9376C13.6161 19.8517 14.3661 19.5938 14.6083 19.3907C14.7646 19.2579 14.7646 19.2579 14.413 18.7267C14.2176 18.4376 14.0458 18.2032 14.0301 18.2032C14.0146 18.2032 13.7958 18.297 13.5458 18.4142C13.1708 18.586 12.9676 18.6251 12.4989 18.6251C12.0301 18.6251 11.8271 18.586 11.4521 18.4142C11.2021 18.297 10.9833 18.2032 10.9676 18.2032C10.9521 18.2032 10.7801 18.4376 10.5848 18.7267Z" fill="#393F4D"/>
<path d="M20.625 15.6249V16.2499H22.5H24.375V21.2499V26.2499H24.0625H23.75V26.8749V27.4999H24.5312C25.7578 27.4999 25.625 28.2499 25.625 21.2499C25.625 15.414 25.625 15.3124 25.4688 15.1561C25.3203 15.0077 25.2109 14.9999 22.9688 14.9999H20.625V15.6249Z" fill="#393F4D"/>
<path d="M27.0312 15.1562C26.875 15.3125 26.875 15.4141 26.875 22.6562V30H25.3125H23.75V30.625V31.25H30.625H37.5V31.875V32.5H30.625H23.75V33.125V33.75H31.0938C38.3359 33.75 38.4375 33.75 38.5938 33.5938C38.7422 33.4453 38.75 33.3359 38.75 30.4688V27.5H38.125H37.5V28.75V30H36.5625H35.625V22.6562C35.625 15.4141 35.625 15.3125 35.4688 15.1562C35.3203 15.0078 35.2109 15 31.25 15C27.2891 15 27.1797 15.0078 27.0312 15.1562ZM34.375 23.125V30H31.25H28.125V23.125V16.25H31.25H34.375V23.125Z" fill="#393F4D"/>
<path d="M31.875 23.125V25H32.5H33.125V23.125V21.25H32.5H31.875V23.125Z" fill="#393F4D"/>
<path d="M5 20V21.25H5.625H6.25V20V18.75H5.625H5V20Z" fill="#393F4D"/>
<path d="M9.375 28.75V29.375H10H10.625V28.75V28.125H10H9.375V28.75Z" fill="#393F4D"/>
</svg>
