<svg width="15" height="14" viewBox="0 0 15 14" fill="none" xmlns="http://www.w3.org/2000/svg">
<path d="M8.25407 13.0159L7.55565 13.7143C7.23819 14 6.762 14 6.47629 13.7143L0.31756 7.52381C9.93032e-05 7.2381 9.93032e-05 6.7619 0.31756 6.47619L6.47629 0.285714C6.762 0 7.26994 0 7.55565 0.285714L8.25407 0.984127C8.57153 1.30159 8.53978 1.77778 8.25407 2.09524L4.4128 5.71429H13.5557C13.9684 5.71429 14.3176 6.06349 14.3176 6.47619V7.49206C14.3176 7.93651 13.9684 8.25397 13.5557 8.25397H4.4128L8.25407 11.9048C8.53978 12.2222 8.57153 12.6984 8.25407 13.0159Z" fill="#242B3A"/>
</svg>
