<svg width="40" height="40" viewBox="0 0 40 40" fill="none" xmlns="http://www.w3.org/2000/svg">
<g clip-path="url(#clip0_3_1154)">
<path d="M2.48258 0.148437C1.37321 0.507812 0.490393 1.39843 0.123205 2.54687C0.00601763 2.89843 -0.00179487 3.52343 0.0138302 8.44531L0.0372677 13.9453L0.32633 14.5312C0.85758 15.625 1.89664 16.3906 3.08414 16.5625C3.38883 16.6015 4.07633 16.6406 4.62321 16.6406H5.62321L7.02946 18.5156C8.48258 20.4453 8.58414 20.5469 9.02164 20.4375C9.16227 20.3984 9.61539 19.8515 10.6232 18.5156L12.0295 16.6406H24.2013C31.9513 16.6406 36.5607 16.6094 36.9123 16.5625C38.2795 16.3594 39.4435 15.3672 39.8498 14.0547C39.9904 13.6094 39.9982 13.2656 39.9982 8.28906C39.9982 3.6875 39.9826 2.94531 39.8732 2.57031C39.5373 1.42968 38.631 0.5 37.4904 0.148437C37.0295 0.0078125 36.5451 0 23.4357 0H9.84977L9.69352 0.203125C9.41227 0.554687 9.53727 1.02343 9.94352 1.17187C10.0998 1.22656 14.4123 1.25 23.5529 1.25H36.9279L37.4045 1.48437C37.9123 1.74218 38.256 2.07812 38.5295 2.60156L38.7091 2.92968L38.7326 8.1875L38.756 13.4453L38.5451 13.914C38.2951 14.4687 37.7482 15 37.2013 15.2109C36.8498 15.3437 36.256 15.3515 24.1388 15.375C11.7091 15.3906 11.4513 15.3984 11.2873 15.5469C11.2013 15.625 10.6232 16.3828 9.99821 17.2187C9.37321 18.0547 8.84977 18.7422 8.82633 18.7422C8.80289 18.7422 8.27946 18.0547 7.65446 17.2187C7.02946 16.3828 6.45133 15.6328 6.36539 15.5469C6.22477 15.4219 6.03727 15.3984 4.64664 15.375C3.11539 15.3515 3.07633 15.3437 2.63883 15.1328C2.07633 14.8594 1.53727 14.2734 1.34977 13.7265C1.21696 13.3515 1.20914 12.9531 1.20914 8.28125C1.20914 3.625 1.21696 3.21093 1.34977 2.83593C1.54508 2.27343 2.03727 1.74218 2.61539 1.47656L3.08414 1.25H5.12321C6.34196 1.25 7.25602 1.21875 7.39664 1.17187C7.80289 1.02343 7.92789 0.554687 7.64664 0.203125L7.49039 0L5.20914 0.0078125C3.21696 0.0078125 2.87321 0.0234374 2.48258 0.148437Z" fill="#FFF3F3"/>
<path d="M8.29688 3.95302C8.19531 4.01552 7.87501 4.5624 7.57812 5.15615C7.25001 5.80459 6.98438 6.25771 6.89844 6.28115C6.82031 6.30459 6.35156 6.3749 5.85938 6.44521C4.60156 6.61709 4.5625 6.6249 4.34375 6.85146C4.17969 7.01552 4.14062 7.1249 4.14062 7.44521V7.83584L5.04688 8.71084L5.95312 9.57802L5.75 10.8124C5.54688 12.0155 5.54688 12.0546 5.67969 12.3358C5.78906 12.5468 5.89844 12.6483 6.15625 12.7343L6.49219 12.8515L7.64062 12.2577L8.78906 11.664L9.9375 12.2577L11.0859 12.8515L11.4219 12.7343C11.6797 12.6483 11.7891 12.5468 11.8984 12.328C12.0391 12.0468 12.0312 12.0155 11.8281 10.8124L11.6172 9.58584L12.5234 8.71084L13.4375 7.83584V7.45302C13.4297 6.77334 13.25 6.66396 11.7812 6.45302L10.5859 6.28115L10.0312 5.19521C9.72657 4.60146 9.39062 4.04678 9.29688 3.96865C9.07812 3.78896 8.53906 3.78115 8.29688 3.95302ZM9.82812 7.3749C9.94531 7.42959 10.3984 7.52334 10.8438 7.57802C11.2812 7.63271 11.6406 7.70302 11.6406 7.72646C11.6406 7.75771 11.375 8.03896 11.0547 8.35928C10.7344 8.67959 10.4297 9.05459 10.3906 9.1874C10.3125 9.42178 10.3828 10.0311 10.5938 10.9999C10.625 11.1718 10.5781 11.1561 9.82812 10.7655C9.26562 10.4843 8.9375 10.3593 8.75 10.3671C8.58594 10.3749 8.17188 10.539 7.71094 10.7811C6.99219 11.164 6.94531 11.1718 6.98438 11.0077C7.00781 10.9061 7.08594 10.4921 7.15625 10.0937C7.3125 9.1874 7.28906 9.11709 6.52344 8.35928C6.20312 8.03896 5.9375 7.75771 5.9375 7.72646C5.9375 7.70302 6.29688 7.63271 6.74219 7.57802C7.17969 7.52334 7.64062 7.42178 7.75781 7.35146C7.92188 7.26552 8.10156 6.98428 8.38281 6.40615L8.78906 5.58584L9.20312 6.42178C9.5 7.03115 9.67189 7.28896 9.82812 7.3749Z" fill="#FFF3F3"/>
<path d="M19.5078 3.91408C19.4297 3.96095 19.125 4.4922 18.8203 5.10158C18.5156 5.71095 18.25 6.22658 18.2344 6.2422C18.2188 6.25783 17.6875 6.35158 17.0469 6.44533C16.4141 6.53908 15.8203 6.65627 15.7266 6.71095C15.4609 6.85158 15.3125 7.1172 15.3125 7.45314C15.3125 7.7422 15.375 7.82033 16.2422 8.70314L17.1641 9.64845L16.9844 10.6641C16.7422 12.0234 16.7422 12.2031 17.0156 12.5156C17.3828 12.9219 17.7188 12.8672 18.9609 12.2031L19.9922 11.6562L21.0312 12.2031C22.1797 12.8125 22.5 12.8828 22.8672 12.6094C23.2422 12.3281 23.2578 12.1484 23.0312 10.8359L22.8281 9.64845L23.7188 8.75002C24.4375 8.02345 24.625 7.78908 24.6562 7.57033C24.7109 7.2422 24.5391 6.85158 24.2812 6.71095C24.1875 6.65627 23.5859 6.53908 22.9531 6.44533C22.3125 6.35158 21.7812 6.25783 21.7656 6.2422C21.75 6.22658 21.5078 5.75002 21.2188 5.1797C20.9375 4.6172 20.6328 4.07814 20.5312 3.9922C20.3438 3.81252 19.7578 3.76564 19.5078 3.91408ZM20.3828 6.38283C20.5938 6.8047 20.8359 7.21095 20.9219 7.29689C21.0312 7.39064 21.3594 7.47658 21.9453 7.57033C22.4141 7.64064 22.8203 7.71877 22.8438 7.7422C22.8672 7.76564 22.6094 8.0547 22.2656 8.39064C21.9141 8.72658 21.6172 9.07814 21.5859 9.20314C21.5391 9.38283 21.6328 10.2578 21.7734 10.9531L21.8203 11.1875L21.0625 10.7812C20.0703 10.25 19.9297 10.25 18.9531 10.7734C18.5234 11 18.2031 11.125 18.2031 11.0703C18.2031 11.0234 18.2578 10.6797 18.3203 10.3125C18.5156 9.1797 18.5312 9.21095 17.7656 8.43752C17.3984 8.06252 17.125 7.73439 17.1641 7.71095C17.1953 7.69533 17.5703 7.63283 17.9922 7.57033C18.4141 7.51564 18.8594 7.41408 18.9766 7.33595C19.1328 7.2422 19.3125 6.96095 19.5781 6.41408C19.7812 5.97658 19.9609 5.62502 19.9766 5.62502C19.9844 5.62502 20.1719 5.96877 20.3828 6.38283Z" fill="#FFF3F3"/>
<path d="M30.7175 3.95314C30.616 4.01564 30.2957 4.56252 29.9988 5.16408C29.5847 5.99221 29.4129 6.25783 29.2801 6.28908C29.1785 6.31252 28.6316 6.39846 28.0613 6.47658C27.491 6.56252 26.9363 6.67971 26.8347 6.75002C26.7332 6.81252 26.616 6.99221 26.5613 7.14846C26.405 7.61721 26.5535 7.87502 27.5144 8.77346L28.3738 9.58596L28.1629 10.8359L27.9441 12.0938L28.0926 12.3516C28.2019 12.5312 28.3504 12.6562 28.5769 12.7344L28.9051 12.8438L30.0535 12.2578L31.2019 11.6641L32.3347 12.25C33.3035 12.7422 33.5144 12.8281 33.7254 12.7812C34.0379 12.7109 34.3582 12.3906 34.3894 12.125C34.405 12.0078 34.3269 11.3906 34.2254 10.75L34.03 9.58596L34.8582 8.78127C35.3191 8.34377 35.7254 7.90627 35.7722 7.82033C35.9285 7.53127 35.8738 7.13283 35.6472 6.87502C35.4363 6.64064 35.3738 6.62502 34.1785 6.45314C33.3816 6.33596 32.9207 6.2344 32.905 6.1719C32.7566 5.74221 31.8504 4.05471 31.7097 3.95314C31.4754 3.7969 30.9441 3.78908 30.7175 3.95314ZM32.241 7.36721C32.366 7.42971 32.8191 7.52346 33.2644 7.57814C33.7019 7.63283 34.0613 7.70314 34.0613 7.72658C34.0613 7.75783 33.78 8.05471 33.4363 8.39846C33.0066 8.82033 32.7957 9.09377 32.7722 9.25783C32.7488 9.38283 32.7957 9.86721 32.8738 10.3203L33.0222 11.1562L32.155 10.7344C31.1472 10.2344 31.1785 10.2344 30.116 10.7969C29.7097 11.0078 29.3738 11.1719 29.3738 11.1562C29.3738 11.1406 29.4441 10.7422 29.5301 10.2734C29.6472 9.61721 29.6707 9.3594 29.6082 9.1719C29.5613 9.03908 29.2488 8.65627 28.9051 8.32814C28.5691 8.00002 28.3347 7.71096 28.3816 7.69533C28.4363 7.67971 28.8347 7.61721 29.2801 7.55471C29.8269 7.47658 30.1394 7.39064 30.2488 7.28908C30.3347 7.21096 30.5847 6.7969 30.7957 6.36721L31.1941 5.58596L31.6082 6.4219C31.9129 7.02346 32.0925 7.28908 32.241 7.36721Z" fill="#FFF3F3"/>
<path d="M6.95217 22.5782C5.29592 22.9298 3.88967 23.6876 2.63185 24.9142C1.31154 26.1954 0.452166 27.7813 0.116229 29.5548C-0.0400212 30.3673 -0.0400212 32.0626 0.124041 32.8907C0.459979 34.6563 1.35842 36.297 2.71779 37.586C3.80373 38.6329 5.07717 39.3517 6.5381 39.7423C7.24123 39.9376 7.42873 39.9532 8.7881 39.9532C10.1553 39.9532 10.335 39.9376 11.0537 39.7423C11.9756 39.4923 13.3428 38.836 14.0694 38.2892C15.624 37.1095 16.8115 35.3517 17.3272 33.4532C17.5147 32.7657 17.5303 32.5626 17.5303 31.211C17.5381 29.8204 17.5225 29.6798 17.3194 28.9532C16.9053 27.461 16.21 26.2267 15.1631 25.1407C13.8584 23.7657 12.249 22.8829 10.4444 22.5392C9.57717 22.3751 7.81154 22.3907 6.95217 22.5782ZM9.74123 23.711C12.1397 23.9376 14.585 25.7345 15.6631 28.0782C16.1787 29.1798 16.2881 29.7345 16.2881 31.172C16.2881 32.2735 16.2647 32.5548 16.1084 33.1095C15.874 33.9689 15.5615 34.6407 15.0303 35.4454L14.585 36.1095L14.3819 35.5782C13.8975 34.3517 12.8272 33.1251 11.6865 32.5001L11.0928 32.172L11.4053 31.8517C11.7569 31.4845 12.1162 30.836 12.2647 30.297C12.3272 30.0704 12.3506 29.6407 12.3272 29.1876C12.3037 28.5392 12.2647 28.3907 12.0069 27.8751C11.624 27.0939 11.0694 26.5392 10.3194 26.1798C9.78029 25.9298 9.64748 25.8985 8.92873 25.8751C7.95217 25.836 7.34279 26.0079 6.63967 26.5313C4.95998 27.7657 4.70998 30.1017 6.06935 31.7735C6.26467 32.0079 6.40529 32.211 6.38967 32.2267C6.37404 32.2345 6.18654 32.336 5.9756 32.4454C4.70998 33.0782 3.60842 34.3439 3.12404 35.711L2.99123 36.1017L2.58498 35.5079C1.55373 34.0157 1.11623 32.3829 1.26467 30.5313C1.5381 26.9923 4.49123 24.0157 8.06935 23.6798C8.42092 23.6485 8.83498 23.6251 8.98342 23.6407C9.13185 23.6563 9.4756 23.6876 9.74123 23.711ZM9.81154 27.3282C10.2022 27.5313 10.6709 28.0001 10.874 28.3985C10.9678 28.5782 11.0537 28.9298 11.0772 29.2267C11.124 29.9298 10.9444 30.461 10.4756 30.961C9.98342 31.4923 9.61623 31.6563 8.89748 31.7032C8.38185 31.7345 8.24123 31.711 7.88185 31.547C7.27248 31.2657 6.99123 30.9923 6.70217 30.4142C6.37404 29.7501 6.35842 29.1485 6.65529 28.5157C6.9131 27.9376 7.17092 27.6563 7.65529 27.3907C8.33498 27.0235 9.1631 27.0001 9.81154 27.3282ZM9.93654 33.172C11.2178 33.4767 12.4522 34.4923 13.0303 35.7032C13.2022 36.0704 13.3819 36.5392 13.4209 36.7423L13.499 37.1173L13.1319 37.3907C12.6084 37.7813 11.46 38.3282 10.7412 38.5235C10.2881 38.6485 9.81154 38.7032 9.02248 38.7267C7.76467 38.7657 6.92873 38.6251 5.89748 38.2032C5.32717 37.961 4.20998 37.2892 4.10842 37.1173C4.03029 36.9923 4.20998 36.3439 4.49904 35.7423C5.4756 33.6798 7.70217 32.6251 9.93654 33.172Z" fill="#FFF3F3"/>
<path d="M21.1481 23.3126C20.0388 23.711 19.5466 25.1251 20.1091 26.2735C20.2263 26.5157 20.445 26.8126 20.5856 26.922C21.1559 27.3595 20.8903 27.3439 29.9216 27.3439C39.2575 27.3439 38.7809 27.3751 39.3591 26.797C39.7497 26.3985 39.9216 25.9142 39.9216 25.2032C39.9216 24.5392 39.7575 24.1329 39.3356 23.7267C38.7653 23.172 39.2731 23.2032 29.8903 23.2032C23.0388 23.211 21.3903 23.2267 21.1481 23.3126ZM38.4528 24.6798C38.6716 24.8751 38.7106 24.961 38.7106 25.2735C38.7106 25.586 38.6716 25.672 38.4528 25.8673L38.2028 26.0939H29.9606C23.7419 26.0939 21.6794 26.0704 21.5231 26.0001C21.1403 25.8282 20.9841 25.2501 21.2028 24.8517C21.4294 24.4454 21.07 24.461 29.9372 24.4532H38.2028L38.4528 24.6798Z" fill="#FFF3F3"/>
<path d="M21.2318 29.2344C20.8646 29.3281 20.3489 29.7734 20.1302 30.1875C19.8958 30.625 19.8802 31.7734 20.1068 32.1875C20.3099 32.5703 20.6068 32.875 20.9739 33.0703L21.2864 33.2422H29.9583H38.6302L38.9583 33.0703C40.3333 32.3359 40.3333 30.0781 38.9583 29.3594C38.6927 29.2188 38.4661 29.1797 37.7161 29.1562C36.8255 29.125 36.8021 29.125 36.6068 29.3281C36.3646 29.5625 36.3411 29.9062 36.5521 30.1641C36.6849 30.3359 36.7786 30.3516 37.5364 30.3906C38.3333 30.4297 38.3802 30.4453 38.5599 30.6484C38.763 30.8828 38.8177 31.3672 38.6693 31.6484C38.4505 32.0469 38.7474 32.0312 29.9427 32.0312C23.5755 32.0312 21.7083 32.0078 21.5599 31.9297C21.4505 31.875 21.3021 31.7031 21.2239 31.5391C21.0989 31.2969 21.0911 31.2109 21.1693 30.9766C21.2161 30.8281 21.3489 30.6328 21.4583 30.5469C21.6536 30.3906 21.763 30.3906 27.9661 30.3906C34.0443 30.3906 34.2864 30.3828 34.4583 30.2422C34.5989 30.1328 34.6458 30.0156 34.6458 29.7656C34.6458 29.5156 34.5989 29.3984 34.4583 29.2891C34.2864 29.1484 34.0443 29.1406 27.8958 29.1484C24.0286 29.1562 21.4114 29.1875 21.2318 29.2344Z" fill="#FFF3F3"/>
<path d="M21.2263 35.1874C20.1169 35.5859 19.6247 36.9999 20.1872 38.1484C20.6091 39.0234 21.1091 39.2187 22.8903 39.2187C23.9841 39.2187 24.1403 39.203 24.3044 39.0702C24.5622 38.8593 24.5622 38.328 24.3044 38.1171C24.1481 37.9843 23.9841 37.9687 22.9528 37.9687C21.6794 37.9687 21.4294 37.9062 21.2653 37.539C21.07 37.1093 21.2263 36.5937 21.6013 36.4218C21.7575 36.3515 23.82 36.328 30.0466 36.328H38.2966L38.57 36.6015C38.82 36.8515 38.8434 36.9062 38.8044 37.2109C38.7731 37.4452 38.6872 37.6015 38.5153 37.7577L38.2809 37.9687H32.4138H26.5544L26.3669 38.164C26.2419 38.2812 26.1716 38.4452 26.1716 38.5937C26.1716 38.7421 26.2419 38.9062 26.3669 39.0234L26.5544 39.2187H32.445C39.0778 39.2187 38.8669 39.2343 39.4372 38.6562C39.8669 38.2265 40.0231 37.7499 39.9919 36.9609C39.9528 36.203 39.6872 35.7109 39.1091 35.3515L38.7263 35.1171L30.1247 35.1015C23.0778 35.0859 21.4684 35.1015 21.2263 35.1874Z" fill="#FFF3F3"/>
</g>
<defs>
<clipPath id="clip0_3_1154">
<rect width="40" height="40" fill="white"/>
</clipPath>
</defs>
</svg>
